<svg width="425" height="589" viewBox="0 0 425 589" fill="none" xmlns="http://www.w3.org/2000/svg">
<g clip-path="url(#clip0_362_14790)">
<path d="M402.138 489.24C401.449 488.82 400.76 488.39 400.051 487.98C399.122 487.43 398.193 486.9 397.253 486.36C397.933 485.38 398.462 484.25 399.311 483.46C400.78 482.09 402.378 480.84 404.047 479.71C405.325 478.85 406.724 477.85 408.172 477.62C413.097 476.84 416.464 472.58 416.284 466.54C415.335 466.78 414.166 466.71 413.627 467.26C411.119 469.81 408.462 470.85 404.656 470.78C402.009 470.73 399.411 473.4 396.624 474.41C389.431 477.03 383.068 480.61 379.981 488.39C375.765 485.96 372.958 485.06 369.572 489.23C367.524 491.75 362.689 491.94 359.172 493.36C357.774 493.92 356.365 494.77 355.336 495.84C354.088 497.14 353.538 499.71 352.16 500.17C346.306 502.13 342.42 501.67 339.812 499.61C340.861 502.69 343.289 506.2 342.629 508.96C342.02 511.51 338.094 513.27 335.357 515.6C332.18 513.2 329.463 516.97 326.406 518.41C321.921 520.54 317.615 523.09 313.309 525.57C307.156 529.11 301.062 532.76 294.758 536.48C293.03 534.21 293.609 532.68 296.217 531.39C303.32 527.89 310.662 524.75 317.315 520.52C321.471 517.88 324.548 513.55 328.114 509.98C330.632 508.82 333.159 507.65 335.676 506.48L335.656 504.93C333.728 504.6 331.571 503.55 329.942 504.09C327.135 505.03 326.895 507.55 328.254 510.11C323.859 507.87 320.942 508.98 318.604 513.39C312.59 512.92 306.826 511.92 302.58 517.81C302.161 517.59 301.741 517.37 301.322 517.16C301.581 516.02 301.491 514.18 302.151 513.86C307.325 511.3 312.64 509.03 318.624 506.36C317.115 505.12 315.417 503.72 313.419 502.09C314.328 501.32 315.068 500.42 316.007 499.92C324.408 495.44 332.829 490.99 341.291 486.61C342.579 485.94 344.208 485.89 345.466 485.19C347.494 484.06 349.362 482.64 351.281 481.31C352.429 480.51 353.448 479.13 354.667 478.94C356.845 478.6 358.713 478.84 360.181 476.28C360.791 475.21 364.117 475.68 367.144 475.35C367.144 475.33 367.494 472.99 368.433 472.72C375.256 470.76 372.788 466.68 371.15 462.78C365.906 461.61 364.377 464.63 364.077 468.97C358.134 467.54 357.574 467.82 356.415 472.85C352.279 470.89 345.886 472.69 342.07 475.14C338.763 477.26 334.438 477.78 330.562 479.01C330.312 478.4 330.062 477.79 329.812 477.18C335.537 474.11 341.271 471.05 347.335 467.8C345.856 466.31 344.288 464.73 342.709 463.14V467.81C339.712 464.29 337.485 466.11 333.808 467.94C327.285 471.18 321.941 476.52 314.308 478.06C309.793 478.97 305.787 482.51 301.611 484.97C298.934 486.55 296.527 487.34 294.449 483.73C301.901 479.44 309.433 475.57 316.446 470.94C322.16 467.17 327.385 462.62 332.53 458.09C333.519 457.22 333.239 454.81 333.369 453.1C333.499 451.42 333.399 449.72 333.399 446.75C330.532 449.37 328.344 451.36 325.976 453.52C324.278 453.28 321.99 452.95 319.963 452.66C317.215 449.09 327.665 451.95 322.46 447.08C324.878 446.84 327.315 446.71 329.713 446.34C332.6 445.89 335.297 445.02 335.706 449.63C335.806 450.79 338.344 452.05 339.992 452.64C340.871 452.96 342.23 451.98 343.369 451.59C342.799 450.13 342.3 448.62 341.62 447.21C341.201 446.32 340.292 445.64 339.982 444.73C339.582 443.53 339.552 442.21 339.343 440.82C342.899 442.29 345.297 443.27 346.885 443.93C346.535 445.37 346.156 446.96 345.776 448.55C346.875 448.7 348.184 449.31 349.043 448.93C352.24 447.49 355.296 445.72 358.403 444.08C362.519 441.91 366.635 439.74 371.35 437.25C369.172 436.59 366.994 435.12 365.696 435.68C360.811 437.82 356.205 440.63 351.5 443.18C351.071 442.99 350.631 442.79 350.202 442.6C351.041 440.92 351.45 438.37 352.799 437.7C358.163 435.04 362.249 429.72 368.922 429.71C369.662 429.71 370.501 429.35 371.13 428.92C375.316 426.01 379.512 423.1 383.567 420.01C384.596 419.22 385.156 417.8 385.925 416.68C387.014 417.41 388.432 418.98 389.112 418.71C392.668 417.28 396.085 415.47 399.451 413.61C402.978 411.67 406.384 409.53 410.19 407.27C410.47 405.76 410.82 403.79 411.459 400.33C408.952 401.93 406.894 402.53 406.104 403.87C403.167 408.87 397.323 409.18 393.058 411.92C390.68 413.45 387.793 414.29 385.985 416.82C382.858 417.02 379.741 417.22 377.124 417.39C375.416 418.7 373.897 419.95 372.279 421.08C368.972 423.38 365.706 425.76 362.259 427.84C358.973 429.82 355.286 433.17 352.14 432.79C348.553 432.36 346.595 433.45 344.198 435.13C343.389 435.69 342.48 436.12 341.57 436.51C334.977 439.32 328.364 442.07 321.811 444.98C321.511 445.11 321.791 446.54 321.811 447.37C317.605 448.23 313.399 449.09 308.864 450.01C307.226 446.92 310.163 446.24 312.161 445.12C319.353 441.09 326.536 437.06 333.768 433.11C335.876 431.96 338.144 431.1 340.322 430.06C346.356 427.19 352.449 424.46 358.373 421.38C365.066 417.9 371.43 413.77 378.223 410.52C386.155 406.73 394.396 403.61 402.468 400.12C403.068 399.86 403.327 398.87 403.827 398.29C405.245 396.63 405.825 393.86 409.321 395.33C410.6 395.87 412.997 394.92 414.336 393.92C418.212 391.03 424.536 392.74 426.943 386.63C427.542 385.12 431.658 384.86 434.216 384.3C438.481 383.36 442.857 383.32 446.153 379.38C447.602 377.66 450.879 377.52 453.296 376.59C462.067 373.23 470.818 369.83 480.169 366.22C480.199 365.77 480.289 364.51 480.358 363.65C485.104 362.29 489.659 360.99 494.214 359.69C494.124 358.89 494.034 358.1 493.945 357.3C492.686 357.4 491.357 357.29 490.168 357.63C483.815 359.46 477.441 361.23 471.188 363.36C466.812 364.85 462.637 366.92 458.341 368.65C457.052 369.17 455.674 369.43 454.035 369.89C454.835 365.51 454.825 365.54 458.021 365.79C458.83 365.85 459.76 365.95 460.439 365.61C464.914 363.42 469.52 361.42 473.745 358.8C480.518 354.61 487.481 351.11 495.373 349.48C497.741 348.99 499.749 346.94 502.086 346.09C512.745 342.2 523.474 338.53 534.143 334.66C537.13 333.58 539.938 331.99 542.905 330.83C549.158 328.39 555.422 325.99 561.745 323.75C564.902 322.64 568.279 322.14 571.385 320.93C572.804 320.38 573.813 318.76 575.002 317.62L574.253 316.01C568.798 317.31 563.084 317.98 557.969 320.11C553.194 322.09 546.581 319.81 543.194 326.13C542.445 325.54 541.486 324.78 541.596 324.86C535.832 327.1 530.807 328.88 525.932 331C517.8 334.53 509.349 336.73 500.768 338.93C492.836 340.96 485.573 345.53 477.891 348.69C472.956 350.72 467.781 352.18 462.756 354.01C460.928 354.67 459.22 355.65 457.072 356.66L456.423 353.5C449.5 353.58 444.305 357.14 438.851 361.37C432.827 366.03 426.943 371.41 419.101 373.33C417.023 373.84 415.055 374.84 413.107 375.78C410.13 377.21 407.653 379.66 404.706 374.91C403.257 372.57 396.574 377.05 396.215 381.12C399.102 380.13 401.819 379.19 404.536 378.25C404.706 378.93 404.886 379.62 405.055 380.3C399.421 380 395.355 386.78 389.461 383.46C386.584 384.13 384.107 384.65 381.669 385.3C380.76 385.54 379.941 386.1 379.082 386.51L381.13 389.83C379.512 389.95 377.324 390.7 376.754 390.05C373.518 386.31 372.129 388.91 371.01 391.58C368.493 391.19 366.405 390.86 364.317 390.54C364.177 390.13 364.037 389.72 363.898 389.32C400.54 373.52 433.596 350.34 472.427 339.05C472.097 338.27 471.777 337.5 471.448 336.72C465.354 338.87 459.2 340.84 453.196 343.21C444.835 346.52 436.603 350.16 428.292 353.6C415.605 358.86 402.808 363.85 390.241 369.37C380.71 373.55 371.48 378.39 362.099 382.89C357.744 384.98 353.278 386.86 348.973 389.05C346.136 390.49 343.708 391.13 341.56 385.52C336.915 401.52 321.551 399.63 312.35 408.75C311.581 404.46 311.122 401.88 310.662 399.29C308.085 403.36 312.92 408.94 305.727 412.46C306.676 409.82 307.285 408.1 308.205 405.54C305.158 406.77 302.59 407.8 299.663 408.98C299.204 408.11 298.654 407.09 298.115 406.07C295.308 407.61 292.8 408.98 289.594 410.75C291.322 412.01 292.541 412.9 294.349 414.22C292.86 415.13 291.671 416.14 290.303 416.62C289.074 417.05 287.636 416.9 286.287 417C286.946 418.29 287.606 419.58 288.385 421.1C285.618 422.64 282.761 424.22 279.714 425.92C279.714 424.18 280.083 422.33 279.614 420.73C279.084 418.91 277.806 417.32 276.847 415.62C274.689 416.86 272.072 417.69 270.503 419.46C269.045 421.1 268.515 422.38 265.828 423.5C260.873 425.57 254.849 428.42 253.89 435.19C247.047 432.72 243.77 439.37 237.397 440.53C239.355 437.96 240.883 435.96 242.412 433.95L241.703 433.44C234.03 437.64 226.258 441.65 218.746 446.12C215.839 447.84 213.531 450.57 210.964 452.84C208.676 454.86 206.589 457.21 204.031 458.8C202.683 459.64 200.515 459.17 198.517 458.78C194.441 460.1 198.906 465.91 193.422 467.6C188.807 469.02 184.751 472.3 178.837 475.67C176.869 480.18 157.888 488.24 153.663 485.04C161.635 479.16 169.686 473.21 178.238 466.9V463.71C173.642 465.87 168.977 467.98 164.402 470.26C162.973 470.97 161.565 471.96 160.516 473.15C156.19 478.09 156.25 478.14 149.827 473.6C151.785 472.54 153.483 471.74 155.051 470.73C159.996 467.52 164.951 464.32 169.796 460.95C176.2 456.5 182.353 451.66 188.907 447.44C194.081 444.1 199.825 441.66 205.03 438.39C207.857 436.61 212.283 435.81 211.623 429.78C197.238 437.01 183.222 444.05 168.727 451.33C169.417 450.07 169.746 448.52 170.685 447.9C175.58 444.69 180.575 441.6 185.66 438.69C195.63 432.97 205.749 427.51 215.669 421.7C218.586 419.99 221.054 417.5 223.721 415.36L222.412 413.36C219.056 415.18 215.689 416.99 212.353 418.85C211.793 419.16 211.404 420.1 210.904 420.12C200.625 420.56 195.68 431.9 185.29 432.57C182.703 432.74 180.495 436.28 177.778 437.55C175.021 438.84 171.834 439.22 168.857 440.06C167.778 440.36 166.19 440.55 165.79 441.3C162.044 448.45 154.102 447.85 148.248 451.06L148.388 451.21C149.347 449.95 150.056 448.32 151.295 447.48C155.341 444.75 159.617 442.35 163.732 439.73C164.432 439.29 164.801 438.33 165.001 437.18C153.493 441.37 144.822 450.88 132.734 454.94C133.204 451.94 133.543 449.85 133.883 447.77C135.831 448.04 138.238 449.16 139.597 448.4C146.43 444.57 153.043 440.33 159.597 436.02C161.185 434.98 162.254 433.14 163.563 431.67C163.193 431.21 162.823 430.76 162.454 430.3C160.656 430.91 158.578 431.15 157.109 432.22C155.021 433.75 153.643 436.31 151.485 437.68C145.781 441.29 139.827 444.49 133.973 447.86C128.408 449.92 122.774 451.82 117.3 454.1C114.812 455.13 112.685 456.99 110.297 458.29C105.112 461.12 99.9176 463.95 94.6231 466.55C88.0398 469.78 81.3366 472.79 74.6834 475.87C73.9642 476.2 72.7255 476.13 72.4757 476.62C69.5986 482.31 63.3051 482.29 58.6898 485.03C58.1504 485.35 57.1913 485.4 57.0115 485.82C54.3443 492.11 47.3414 491.43 42.856 494.75C40.9879 496.13 39.3796 497.93 37.3716 499.04C31.2978 502.39 24.8644 505.14 19.0004 508.81C14.495 511.63 10.6489 515.49 6.48321 518.86C4.75498 520.26 2.97679 521.58 1.21859 522.94C0.789033 522.53 0.359472 522.12 -0.0800781 521.71C1.25855 520.18 2.41737 518.43 3.97577 517.17C9.88972 512.36 15.8936 507.67 21.9274 503.01C26.1331 499.76 30.4787 496.69 34.6844 493.43C37.2717 491.43 39.7791 489.3 42.1267 487.03C42.4364 486.73 41.5773 485.23 41.5773 485.25C44.5643 482.21 46.9918 479.32 49.8588 476.95C52.7059 474.6 55.7528 471.83 59.1393 470.97C63.2252 469.94 64.6237 468.72 62.5059 464.65C67.9204 463.7 73.0751 462.87 78.1899 461.86C80.1878 461.46 82.2557 460.93 84.0039 459.95C88.6691 457.35 93.4043 454.79 97.6699 451.62C101.066 449.1 103.564 445.4 106.91 442.8C110.247 440.21 114.203 438.44 117.779 436.13C119.358 435.11 120.497 433.37 122.115 432.45C128.668 428.73 135.331 425.21 141.715 421.05C134.962 421.75 128.868 424.08 123.703 428.76L122.854 427.49C125.002 426.11 127.12 424.69 129.288 423.34C132.944 421.07 136.59 418.79 140.306 416.61C146.77 412.83 153.323 409.18 159.776 405.37C165.68 401.89 171.385 398.04 177.418 394.81C181.614 392.57 186.279 391.25 190.615 389.25C192.843 388.22 194.671 386.31 196.908 385.32C203.482 382.43 209.985 379.47 215.32 374.54C216.219 373.71 216.548 372.25 217.168 371.03C213.042 372.6 209.735 373.54 206.748 375.08C202.583 377.22 198.786 380.11 194.571 382.15C187.678 385.48 181.135 389.42 173.432 391.22C169.077 392.24 165.401 395.95 161.245 398.1C159.786 398.86 157.788 398.59 156.04 398.8L156.16 398.95C161.684 395.71 167.249 392.54 172.713 389.2C178.917 385.4 185.001 381.4 191.204 377.59C193.232 376.35 195.45 375.41 197.628 374.42C203.122 371.92 206.898 366.4 213.571 365.71C214.81 365.58 215.729 362.29 216.808 360.48C221.443 362.91 224.79 358.65 228.846 358.03C229.435 357.94 229.705 355.73 230.394 353.67C225.06 356.38 220.954 358.48 216.838 360.57C214.311 361.75 211.773 362.9 209.266 364.12C205.41 366 201.534 367.84 197.758 369.86C193.951 371.89 190.405 374.5 186.449 376.11C184.171 377.04 181.125 377.12 178.727 376.47C173.842 375.13 175.44 378.78 174.601 379.33C169.586 380.17 164.581 381.01 159.886 381.79C160.705 380.72 161.844 379.22 162.993 377.73L162.354 376.85C150.786 380.9 139.207 384.95 128.718 388.63C129.258 387.15 130.167 384.46 131.256 381.85C131.545 381.16 132.364 380.27 133.014 380.21C139.527 379.54 141.125 372.04 146.85 370.3C147.179 370.2 147.629 369.4 147.519 369.09C145.601 363.32 150.945 362.75 153.713 360.35C155.611 358.7 157.509 357.04 159.647 355.17C162.194 354.94 165.251 354.66 167.658 354.44C168.547 351.97 169.187 350.19 170.176 347.44C166.909 348.54 164.172 349.45 161.365 350.39C160.566 348.56 160.795 346.75 156.55 348.25C149.187 350.87 144.392 356.97 137.509 359.77C134.203 361.11 130.496 361.48 126.341 362.44C127.959 360.44 129.228 358.85 130.506 357.27L129.787 356.47C126.211 358.31 122.634 360.16 118.888 362.09C115.871 359.97 116.331 358.23 119.358 356.29C125.581 352.31 131.845 348.36 137.769 343.97C141.925 340.89 145.531 337.06 149.437 333.64C150.766 332.47 152.274 331.51 153.723 330.48C154.502 329.92 156.03 329.41 156.02 328.89C155.91 321.41 163.013 322.5 166.819 319.92C173.512 315.37 180.615 311.4 187.738 307.52C194.601 303.78 201.733 300.55 208.666 296.93C214.51 293.88 220.175 290.5 226.019 287.44C230.534 285.07 235.339 283.24 239.735 280.68C245.788 277.16 251.672 273.3 257.466 269.35C262.981 265.59 268.285 261.53 274.379 257.1C273.88 255.87 273.19 254.13 272.511 252.42C274.199 253.64 275.878 254.84 277.056 255.69C279.834 253.57 282.441 251.58 285.048 249.59C284.729 249.13 284.409 248.67 284.099 248.21L272.521 252.47C267.896 255.36 263.281 258.25 258.655 261.14C258.336 260.67 258.016 260.21 257.696 259.74C260.304 257.45 262.641 254.73 265.558 252.95C271.862 249.1 278.585 245.91 284.858 242.02C286.277 241.14 286.607 238.5 287.636 236.23C292.071 241.14 296.377 236.46 300.622 234.44C301.951 233.8 302.061 230.59 303.11 227.41C304.808 226.49 307.355 224.84 310.802 227.82C311.811 228.69 315.407 227.85 316.866 226.64C319.693 224.3 321.841 221.15 323.978 218.68C326.306 219.11 328.634 219.53 331.421 220.04V215.91C338.124 212.38 344.348 208.74 350.891 205.78C356.136 203.4 361.74 201.94 365.696 197.23C366.535 196.23 368.573 196.24 370.301 195.71C370.801 187.74 378.433 189.31 383.008 186.75C386.245 184.94 390.061 184.18 393.637 183C395.725 182.31 398.053 182.06 399.881 180.95C401.599 179.91 402.868 178.05 404.216 176.46C405.435 175.02 406.594 172.08 407.603 172.16C415.565 172.75 419.82 165.24 426.903 163.85C431.998 162.85 436.813 160.42 441.738 158.61C443.826 157.85 445.894 157.04 448.271 156.15C445.694 152.55 443.057 155.64 440.619 155.88C437.113 156.22 433.616 156.75 430.12 157.2L430.22 157.31C431.448 156.01 432.457 154.06 433.956 153.54C438.921 151.8 444.076 150.62 449.13 149.15C450.979 148.61 452.737 147.74 454.585 147.21C455.594 146.92 456.723 147.08 457.772 146.91C458.95 146.71 460.239 146.6 461.228 146.02C463.576 144.65 465.594 142.59 468.061 141.59C474.794 138.88 481.717 136.62 488.51 134.03C489.01 133.84 489.06 132.46 489.199 132C482.856 133.09 476.622 133.93 470.519 135.34C468.191 135.88 466.163 137.75 464.225 139.54C458.391 138.97 452.717 138.38 446.963 142.41C444.096 144.42 439.28 143.63 435.345 144.1L434.715 142.82C436.134 142.03 437.462 140.85 438.981 140.52C445.974 139.02 453.156 138.23 459.999 136.26C465.464 134.69 470.429 131.48 475.833 129.58C480.209 128.04 484.944 127.54 489.429 126.28C494.394 124.88 499.269 123.14 504.174 121.55C504.014 120.75 503.864 119.95 503.705 119.14C494.384 120.25 485.074 121.36 475.753 122.47C475.643 122.03 475.543 121.59 475.434 121.16C484.324 118.13 493.215 115.11 503.265 111.69C493.685 109.84 485.913 112.38 478.131 114.59C472.137 116.29 466.253 118.46 460.179 119.69C458.84 119.96 456.882 117.13 455.214 115.73C456.553 114.9 457.792 113.7 459.25 113.31C465.044 111.78 470.928 110.59 476.732 109.09C478.001 108.76 479.17 107.78 480.159 106.86C480.388 106.64 479.619 104.76 479.429 104.78C478.141 104.92 476.882 105.36 475.304 105.78C475.234 101.91 472.706 101.04 469.45 101.38C466.692 101.67 463.955 102.14 461.218 102.53L461.018 101.26C462.647 100.79 464.275 100.31 466.383 99.69C466.073 98.27 465.733 96.76 465.184 94.24C468.541 94.09 471.757 93.95 473.975 93.86C478.51 91.26 482.486 87.24 486.652 87.03C492.106 86.76 495.803 85.32 499.459 80.02C475.463 82.2 452.617 85.73 430.26 92.8C437.512 85.62 448.651 86.38 456.733 80.03C447.162 77.76 439.67 85.48 430.859 86.19C430.659 85.69 430.469 85.19 430.27 84.69C433.287 83.27 436.204 81.53 439.36 80.5C444.695 78.76 450.139 77.27 455.624 76.05C460.209 75.03 464.954 74.74 469.53 73.71C471.817 73.19 475.983 74.5 475.164 69.63C477.441 69.1 479.659 68.59 482.376 67.96C485.144 72.7 489.319 68.18 493.695 69.08C493.006 67.46 492.556 66.42 491.897 64.87C495.513 64.87 498.75 64.46 501.846 64.96C507.151 65.81 512.606 62.87 513.794 57.61C514.134 56.11 513.724 54.03 512.875 52.74C511.257 50.29 511.776 47.01 514.603 46.73C519.558 46.25 524.593 46.16 529.568 46.35C532.096 46.45 533.184 45.76 535.112 43.94C537.37 41.82 541.786 42.02 545.232 41.13C550.737 39.7 556.201 38.08 561.735 36.78C563.843 36.28 566.101 36.44 567.919 35.62C575.471 33.91 583.763 33.61 590.366 30.11C597.688 26.23 605.371 27.02 613.043 24.42C613.292 23.68 613.752 22.35 614.371 20.54C619.856 25.41 626.02 23.44 631.933 23.59C634.551 23.65 637.148 24.48 639.765 24.91C640.635 25.05 641.693 25.41 642.363 25.07C646.329 23.04 649.825 24.6 653.781 25.5C659.246 26.74 665.08 26.28 670.754 26.59C671.972 26.66 673.191 26.89 675.469 27.18C673.091 28.85 671.783 29.78 670.464 30.7C674.93 30.73 672.862 41.75 680.364 36.6C685.189 42.42 692.142 38.74 699.365 39.77C698.066 41.21 697.337 42.67 696.667 42.64C692.881 42.48 689.105 41.96 685.329 41.57C684.52 41.49 683.481 41.1 682.931 41.45C674.949 46.63 666.548 47.54 657.417 44.94C655.509 44.4 652.972 46.09 650.914 47.84C654.92 48.26 658.926 48.68 663.751 49.18C657.987 53.64 653.052 57.03 645.869 55.08C640.015 53.49 633.871 52.95 627.858 51.93C627.378 51.85 626.889 51.7 626.459 51.48C623.762 50.1 619.556 50.57 617.368 52.53C615.83 53.91 613.752 55 612.883 56.72C611.384 59.7 617.149 65.65 620.495 65.49C624.161 65.31 627.878 65.96 631.574 66.18C632.693 66.25 633.851 66.21 634.95 66.02C640.645 64.99 646.309 63.84 652.003 62.82C658.027 61.75 664.031 60.39 670.104 59.9C674.26 59.56 678.516 60.49 683.011 60.87C682.482 64.5 682.272 66.97 688.086 65.79C697.177 63.94 706.597 63.75 715.878 62.76C723.22 61.98 730.533 60.83 737.895 60.34C740.652 60.15 743.479 61.58 746.316 61.84C750.352 62.21 754.448 62.47 758.474 62.15C759.953 62.03 762.28 60.29 762.5 58.99C763.119 55.43 764.857 55.52 767.465 56.4C769.473 57.07 771.521 57.99 773.579 58.06C775.317 58.13 777.105 57.17 778.863 56.63C780.092 56.26 781.281 55.54 782.509 55.48C785.776 55.32 789.063 55.42 792.569 55.42L791.53 59.39C795.546 59 799.082 58.33 802.589 58.43C805.266 58.51 810.201 59.59 810.191 60.19C810.151 63.93 806.914 64.43 803.808 64.67C802.839 64.74 801.9 65.13 800.941 65.37C801.03 67.05 801.11 68.56 801.26 71.4C799.562 69.3 798.703 68.24 797.854 67.18L797.994 67.32C797.204 66.39 796.275 64.56 795.636 64.65C788.453 65.69 780.671 64.5 774.608 70.08C773.738 70.89 772.22 70.99 770.482 71.6C772.24 71.92 773.589 72.17 775.237 72.46C774.148 73.74 773.159 74.9 772.17 76.06C772.32 76.49 772.47 76.93 772.62 77.36C774.398 76.89 776.186 76.43 777.964 75.96C778.843 75.73 779.752 75.18 780.591 75.29C782.28 75.5 785.277 75.89 785.357 76.51C785.806 80.08 783.019 78.94 780.981 79.07C779.542 79.16 778.134 79.79 776.576 80.21C776.775 81.08 776.975 81.92 777.035 82.14C773.788 83.03 770.781 83.86 767.705 84.7C767.924 88.62 769.423 89.91 772.739 89.9C778.114 89.89 783.488 90.26 788.853 90.58C789.642 90.63 790.391 91.22 791.041 92.5C778.803 93.7 766.566 94.89 753.349 96.18C757.805 98.09 761.161 99.75 764.688 100.88C765.567 101.16 766.995 99.71 768.174 99.07C769.203 98.51 771.021 97.34 771.151 97.51C773.828 100.86 776.745 98.54 779.752 98.4C785.886 98.13 792.09 99.29 798.233 99.06C802.289 98.91 806.165 97.71 810.031 100.19C812.459 101.75 815.056 103.17 818.393 101.92C819.532 101.49 821.35 102.89 823.308 103.63C826.255 98.12 832.678 102.8 837.323 100.62L837.223 100.56C838.512 102.78 836.914 106.67 834.476 107.02C827.643 108 820.76 108.73 813.977 109.96C812.359 110.25 811.01 112.09 809.562 113.25C808.503 114.11 807.614 115.5 806.425 115.82C802.639 116.85 798.633 117.14 794.957 118.44C793.438 118.98 792.549 121.32 791.37 122.85L791.41 122.72C789.402 122.22 787.225 120.95 785.416 121.37C780.531 122.49 775.806 124.32 769.643 126.32C772.58 127.58 774.638 128.24 776.476 129.29C783.788 133.45 791.43 134.63 799.592 132.39C802.938 131.47 806.235 132.12 809.412 128.6C811.38 126.42 817.733 128.19 822.119 128.19L822.708 130.51C820.71 131.45 818.802 132.73 816.704 133.29C805.256 136.3 793.698 138.91 782.32 142.18C779.782 142.91 775.487 143.3 775.726 147.06C778.074 146.47 781.321 144.7 782.35 145.57C785.986 148.62 793.378 149.18 791.35 156.64C790.521 159.71 790.811 163.62 786.495 164.95C785.656 165.21 784.827 167.26 784.907 168.41C785.347 174.38 781.181 177.39 777.345 180.5C772.879 184.12 766.905 186.57 763.859 191.07C759.833 197.01 753.569 198.72 748.474 202.52C745.857 204.47 743.849 206.28 744.538 210.02C745.228 213.74 743.469 214.9 739.943 213.49C739.104 213.16 737.436 212.87 737.276 213.18C733.949 219.3 727.596 218.11 722.351 219.56C719.224 220.43 715.967 221 713.031 222.31C710.513 223.43 708.365 225.39 705.578 227.31C709.025 231.01 712.991 228.11 716.297 227.7C724.289 226.7 732.161 224.75 740.113 223.4C742.74 222.95 745.497 222.99 748.175 223.18C748.994 223.24 749.683 224.61 750.482 225.32C752.58 227.19 754.538 230.35 756.846 230.63C762.5 231.32 761.791 234.83 761.631 238.49C761.541 240.73 761.491 242.98 761.421 245.22C763.829 245.07 766.236 244.92 769.193 244.74C768.584 245.95 768.204 248.24 767.025 248.77C762.77 250.7 760.192 253.41 760.492 258.3L758.005 253.58C756.516 254.51 755.038 255.44 753.549 256.36C750.692 258.11 746.796 258.67 746.197 262.95C745.977 264.51 745.667 266.06 745.188 268.81C748.744 267.55 751.241 266.67 753.809 265.77C757.595 270.88 758.824 270.83 763.918 265.77C764.668 265.02 767.125 264.76 767.725 265.35C768.973 266.58 770.172 268.54 770.162 270.2C770.152 271.8 768.903 273.71 767.655 274.91C762.919 279.46 756.995 281.28 750.582 282.28C747.905 282.7 744.728 284.18 743.13 286.23C740.832 289.18 738.035 290.16 734.828 290.7C729.284 291.64 723.68 292.24 718.165 293.28C716.397 293.61 714.809 294.89 712.711 295.95C715.997 300.75 720.013 299.22 723.55 298.2C728.125 296.88 732.491 294.87 737.016 293.36C737.665 293.14 738.694 294.02 739.533 294.39C741.681 290.72 743.899 288.72 747.535 292.95C748.264 293.79 750.432 293.66 751.911 293.55C759.713 292.96 767.525 292.47 775.287 291.51C784.827 290.33 794.317 288.76 803.808 287.24C804.637 287.11 805.336 286.15 807.134 286.07C806.325 287.58 805.886 289.61 804.637 290.51C797.354 295.79 788.993 297.31 783.998 294.62C780.861 298.06 771.68 300.64 767.625 299.08C762.74 304.98 755.397 304.79 748.724 306.56C739.753 308.94 730.922 311.83 722.011 314.46C720.183 315 718.125 315.02 716.477 315.87C715.428 316.41 714.239 318.17 714.399 319.16C714.569 320.19 716.347 321.75 717.346 321.7C721.252 321.49 725.118 320.72 729.014 320.18C734.009 319.49 739.314 319.63 743.909 317.88C747.705 316.43 751.161 315.34 755.277 314.97C761.281 314.44 767.165 312.44 773.079 310.98C778.743 309.58 784.358 307.98 790.032 306.66C793.039 305.96 796.145 305.66 799.422 305.15C797.184 307.5 795.646 309.57 791.171 309.19C786.585 308.8 781.75 311.29 777.035 312.55C770.931 314.18 764.917 316.57 758.704 317.34C747.505 318.73 736.816 322.77 725.508 323.34C725.198 323.36 724.679 323.42 724.629 323.59C723.42 327.34 721.532 331.07 721.352 334.89C721.212 337.8 723.55 339.17 727.056 337.46C729.584 336.23 733.08 336.95 735.567 335.67C743.819 331.42 753.03 331.57 761.711 329.39C767.734 327.88 774.058 327.55 780.262 326.79C790.681 325.51 801.11 324.26 811.55 323.11C819.422 322.24 827.314 321.59 835.186 320.78C842.528 320.02 850.25 320.35 857.113 318.08C867.542 314.62 878.431 315.94 888.881 313.37C892.127 312.57 896.023 314.99 899.68 315.23C907.671 315.76 914.974 319.99 923.315 319.13C925.273 318.93 927.501 322.49 929.669 318.79C930.878 316.73 932.366 314.84 934.074 312.37C935.033 312.71 936.682 313.3 938.34 313.89C939.739 311.85 940.917 308.31 942.576 308.07C947.061 307.42 951.766 308.02 956.362 308.42C960.787 308.8 965.183 309.56 969.588 310.12C972.235 310.45 974.893 310.71 977.54 311C977.51 311.61 977.49 312.23 977.46 312.84C973.304 313.26 969.138 313.55 965.013 314.16C963.594 314.37 962.286 315.38 960.927 316.02C961.816 317.16 962.745 318.29 963.604 319.46C964.963 321.32 966.271 323.22 967.77 325.34C968.429 324.18 969.128 322.95 970.417 320.69C971.366 324.6 972.105 327.63 973.204 332.16C969.228 333.97 964.423 336.05 959.708 338.32C953.944 341.09 948.24 341.75 941.896 340C940.208 339.53 938.1 340.59 936.452 338.58C936.172 338.24 934.194 339.31 932.066 340.05C934.534 341.77 935.972 342.77 937.591 343.9C936.802 344.78 936.072 345.6 935.343 346.43C935.513 346.81 935.683 347.2 935.853 347.58L940.967 345.69C950.068 346.13 960.078 343.51 970.008 344.53L970.307 347.04C963.684 348.62 957.071 350.22 950.448 351.78C947.421 352.49 944.284 352.9 941.377 353.95C940.318 354.33 939.789 356.18 938.58 358.02C934.854 358.9 929.089 357.04 925.563 361.55C918.78 362.9 911.937 364.26 905.104 365.63L905.184 366.82H925.283L925.643 367.28C924.694 367.6 923.755 368.12 922.786 368.19C916.912 368.61 911.837 370.46 907.751 375.05C906.583 376.36 904.075 376.46 902.337 377.07C900.888 374.94 899.74 373.24 899.01 372.16C897.102 375.11 895.294 377.9 893.516 380.65C884.985 379.023 879.763 379.277 877.852 381.41C877.682 380.98 877.502 380.56 877.332 380.13C875.544 380.86 873.816 381.83 871.968 382.26C868.481 383.06 864.945 383.77 861.399 384.11C856.014 384.62 850.58 384.61 845.205 385.21C843.767 385.37 842.608 387.38 841.109 387.79C838.622 388.46 835.945 388.88 833.397 388.72C831.399 388.59 829.471 387.42 827.184 386.59C825.396 387.89 823.308 389.41 820.59 391.39C816.684 390.15 811.889 389.15 807.484 393C809.372 392.58 811.26 392.17 813.148 391.75C798.573 400.3 780.851 401.85 767.185 412.39C767.295 412.99 767.415 413.58 767.525 414.18L781.55 411.25C768.703 417.31 764.768 418.24 763.359 414.27C762.48 415.38 761.731 416.31 760.522 417.84C759.013 415.88 757.685 414.17 756.366 412.46C750.682 416.9 748.814 416.4 752.56 421.46C748.964 426.2 744.388 424.1 739.773 423.21C739.044 425.85 742.211 430.43 736.027 430.59C736.127 429.09 736.247 427.45 736.427 424.78C733.03 425.85 730.213 426.76 727.396 427.62C726.617 427.86 725.598 428.38 725.048 428.09C719.933 425.39 716.307 429.74 712.042 430.84C710.163 431.32 708.675 433.19 706.917 434.29C704.939 435.53 702.831 436.56 700.833 437.77C699.464 438.6 698.206 439.63 696.867 440.52C693.97 442.45 691.103 444.41 688.106 446.17C687.726 446.4 686.677 445.51 685.948 445.13L685.828 445.31V437.2C684.819 437.91 684.23 438.61 683.501 438.79C679.255 439.88 674.09 438.07 670.993 442.84C670.824 443.11 670.064 443.07 669.585 443.05C662.502 442.7 662.083 443.08 661.753 450.28L661.923 450.13C659.275 444.15 658.496 443.9 652.982 446.74C652.093 447.2 650.794 446.76 649.735 446.98C648.067 447.32 646.429 447.86 644.221 448.48C641.703 446.09 633.612 447.15 627.658 451.87C631.004 452.17 633.871 452.42 636.729 452.68C636.808 452.92 636.888 453.16 636.968 453.4C634.98 453.85 633.002 454.3 630.605 454.84C632.373 460.41 637.528 455.64 639.955 458.19C637.698 461.3 631.714 463.17 628.107 462.74C626.329 462.53 623.342 463.44 622.643 464.76C620.735 468.37 618.917 467.16 616.849 465.45C611.614 461.14 608.058 461.36 602.693 465.93C601.055 467.32 598.747 467.93 596.05 469.24C601.654 474.15 603.433 464.55 608.447 467.68C605.111 469.91 602.004 471.99 597.998 474.67C597.259 473.66 596.49 472.22 595.351 471.2C594.582 470.51 593.133 469.9 592.234 470.14C588.378 471.16 583.473 471.46 581.095 474.02C578.468 476.84 577.319 477.69 573.933 473.91C574.282 475.88 574.422 476.64 574.732 478.36C572.574 477.26 570.866 476.4 568.678 475.29C567.32 480.31 563.593 477.69 560.526 477.65C562.634 475.87 564.722 474.11 566.82 472.35C566.371 471.68 565.921 471.01 565.471 470.34C563.973 471.17 562.025 471.67 561.116 472.93C560.337 474.02 560.746 475.97 560.626 477.54C560.457 479.28 560.287 481.03 560.247 481.49C555.032 482.78 550.387 483.88 545.772 485.1C543.444 485.71 541.026 486.27 538.899 487.35C536.841 488.4 535.272 490.42 533.204 491.42C526.591 494.61 519.938 497.74 513.125 500.45C509.918 501.73 506.302 501.99 502.446 502.79C502.046 505.95 500.158 507.48 496.122 506.88C494.714 506.67 492.996 508.59 490.958 509.8C489.939 504.82 499.059 503.8 494.184 498.17C482.127 500.36 471.268 507.49 458.9 515.21C462.037 514.79 464.095 514.98 465.703 514.21C468.76 512.74 471.448 510.49 474.504 509.01C477.082 507.76 479.969 507.14 483.735 505.91C483.156 507.69 483.136 509.31 482.416 509.72C477.781 512.38 473.016 514.82 468.241 517.24C466.203 518.27 464.095 519.57 461.927 519.78C460.549 519.91 459 518.24 457.542 517.39C456.353 517.22 455.144 517.04 453.945 516.86C446.873 516.07 441.658 520.67 435.844 523.37C434.306 524.08 433.566 526.52 433.047 527.29C427.513 528.86 422.388 530.32 416.803 531.9L418.911 539.96C416.374 537.85 414.815 536.55 412.907 534.96C412.378 535.38 411.269 536.89 410.46 536.74C408.672 536.42 407.023 535.27 405.325 534.45C408.372 532.15 405.505 525.79 411.479 525.46C411.898 525.44 412.298 525.01 411.988 525.19C413.567 526.7 414.686 528.34 416.234 529.04C417.213 529.48 419.98 528.43 419.97 528.16C419.85 526.06 419.251 523.98 418.642 521.21C420.01 520.9 421.808 520.5 423.786 520.06C424.356 521.79 424.785 523.1 425.215 524.42L425.934 524.37V517.14C428.731 518.21 431.069 519.1 433.406 519.99C433.646 519.7 433.896 519.4 434.136 519.11C432.967 517.84 431.788 516.57 430.35 515.01C441.618 509.66 452.917 504.3 464.205 498.94C464.005 498.31 463.805 497.67 463.606 497.04C461.678 497.6 459.68 497.99 457.822 498.75C450.319 501.81 442.847 504.93 435.404 508.13C427.822 511.38 420.27 514.71 412.758 518.1C411.469 518.68 410.51 520.06 409.211 520.52C405.175 521.95 401.04 523.11 396.884 523.38C395.116 525.8 393.347 528.22 391.34 530.95C391.939 531.48 392.788 532.24 393.627 533C393.307 533.43 392.988 533.85 392.668 534.28C391.419 533.29 390.171 532.31 388.822 531.25C386.135 532.51 382.339 532.15 380.78 536.32C380.351 537.46 376.105 538.65 375.236 537.91C371.06 534.34 368.713 537.46 365.985 539.68C365.476 540.09 365.076 540.77 364.517 540.94C359.912 542.36 355.206 543.51 350.661 545.1C347.295 546.27 344.118 547.98 339.992 549.84C338.024 554.6 336.446 555.25 329.743 555.12C327.105 555.07 324.428 556.6 320.942 557.66C320.602 557.34 319.463 556.26 317.745 554.64C319.753 553.93 321.511 553.82 322.27 552.89C323.109 551.87 323.019 550.09 323.339 548.65C322.02 548.72 320.212 548.26 319.443 548.95C312.061 555.62 303.999 561.15 294.598 564.56C293.46 564.97 292.161 564.92 290.932 565.08L290.593 563.75C298.205 558.66 305.727 553.41 313.499 548.58C315.837 547.13 315.947 542.92 319.833 543.64C320.962 538.72 326.056 539.99 328.933 537.81C330.921 536.3 333.179 535.09 334.937 533.36C337.495 530.84 339.712 527.98 342.28 525.03C343.149 525.73 343.998 526.42 344.977 527.21C345.237 526.84 345.536 526.5 345.726 526.1C346.945 523.49 347.285 520.01 351.83 523.09C354.247 524.73 357.444 521.26 357.414 517.14H352.669L352.08 515.79C357.994 512.46 363.878 509.05 369.842 505.81C376.135 502.39 382.499 499.09 388.872 495.82C391.539 494.45 394.336 493.34 397.024 492.01C398.682 491.18 400.25 490.15 401.859 489.21C406.984 486.7 412.108 484.18 417.223 481.67L416.724 480.52C412.028 482.23 407.343 483.94 402.418 485.74C402.298 486.74 402.138 488.03 401.979 489.32L402.138 489.24ZM171.704 412.02C178.228 406.76 187.158 404.78 192.793 396.81C183.382 398.08 178.607 405.26 171.924 409.29C171.444 409.58 171.744 411.16 171.684 412.08C170.256 410.67 168.817 409.27 166.4 406.89C165.62 415.55 155.91 413.23 153.793 420.72C160.506 417.45 166.11 414.73 171.704 412.01V412.02ZM604.871 447.04C611.005 446.77 617.169 446.48 622.633 443.27C623.432 442.8 623.592 441.23 624.121 439.99C616.24 439.28 616.269 439.31 610.685 444.22C610.036 444.79 608.757 444.57 607.918 445.01C606.859 445.57 605.95 446.42 604.981 447.15C603.173 446.97 601.365 446.8 599.557 446.62C599.207 445.99 598.867 445.36 598.518 444.73C600.216 444.19 601.914 443.64 603.612 443.1C603.203 442.67 602.793 442.25 602.374 441.82C600.376 442.49 598.378 443.16 596.809 443.68C596.999 446.31 597.159 448.53 597.449 452.43C600.366 450.31 602.613 448.67 604.861 447.03L604.871 447.04ZM459.17 386.29C459.49 386.67 459.949 387.44 460.099 387.38C465.104 385.49 470.149 383.67 475.034 381.5C477.731 380.3 480.149 378.47 482.686 376.93L481.797 375.11C477.751 380.33 471.008 377.04 466.493 381C464.245 382.98 461.698 384.63 459.28 386.42C453.246 388.41 447.222 390.4 441.199 392.42C441.029 392.48 441.009 393.02 440.809 393.75C441.788 394.01 442.937 394.74 443.716 394.46C448.201 392.84 452.657 391.09 457.002 389.13C457.961 388.7 458.461 387.26 459.17 386.28V386.29ZM387.793 460.24L393.517 456.17C392.149 455.23 390.78 454.29 388.552 452.76C388.303 456.24 388.153 458.34 388.003 460.45C386.754 459.01 385.516 457.58 383.617 455.39C381.06 456.66 377.194 458.59 372.928 460.71C373.907 463.31 375.116 466.5 376.615 470.44C378.563 468.32 379.721 466.8 381.15 465.59C382.339 464.58 383.927 463.22 385.166 463.37C386.125 463.49 386.824 465.71 387.643 467C387.773 468.33 387.893 469.66 388.123 472.11C386.564 470.17 385.945 468.73 385.326 468.72C379.602 468.71 382.608 475.28 379.092 477.3C388.323 477.15 395.285 471.59 403.177 467.98C402.748 466.23 402.368 464.72 401.859 462.62C399.791 463.04 397.243 462.8 396.045 463.96C393.557 466.38 390.83 467.08 387.633 467.01L387.783 460.24H387.793ZM495.043 445.59C491.517 446.26 487.961 446.83 484.474 447.68C483.815 447.84 483.126 449.07 483.026 449.88C482.966 450.34 484.394 451.52 484.614 451.4C488.091 449.5 491.477 447.44 494.884 445.41C495.233 445.75 495.653 446.42 495.913 446.37C500.618 445.31 504.684 442.67 509.788 442.12C514.813 441.57 519.518 438.34 524.463 436.57C525.772 436.1 527.45 436.68 528.949 436.78C529.009 437.1 529.079 437.43 529.139 437.75C526.292 439.34 523.454 440.92 520.607 442.51C520.797 442.93 520.987 443.36 521.167 443.78C522.396 443.69 523.704 443.82 524.853 443.46C530.178 441.8 535.512 440.13 540.747 438.2C542.974 437.38 544.962 435.9 547.06 434.72C545.822 433.16 544.553 431.61 543.354 430.02C543.084 429.67 543.094 429.11 542.775 427.88C544.203 427.88 545.692 427.41 546.441 427.96C550.707 431.08 550.647 431.16 557.28 428.2C555.342 427.9 554.083 427.88 552.954 427.49C551.925 427.14 551.036 426.38 550.087 425.81C551.016 425.04 551.885 423.73 552.884 423.62C554.942 423.38 557.08 423.79 559.258 423.93C560.007 422.92 560.836 421.79 562.065 420.1C564.692 423.35 568.888 424.85 567.889 430.18C569.068 429.77 570.336 429.32 571.605 428.87C571.156 428.54 570.696 428.2 570.247 427.87C571.126 426.04 571.685 423.92 572.984 422.47C573.793 421.57 575.721 421.63 577.159 421.33C579.337 420.88 581.765 420.96 583.653 419.98C586.39 418.56 588.578 416.11 591.305 414.66C593.013 413.74 595.261 413.84 597.269 413.48C588.708 410.4 581.026 413.19 574.173 417.41C570.836 419.47 568.608 420.38 564.932 418.93C563.084 418.2 560.127 418.46 558.429 419.51C553.793 422.38 549.068 423.66 545.322 422.62C541.556 424.8 538.939 426.32 536.321 427.84C535.992 427.4 535.662 426.95 535.332 426.51L536.411 422.59C533.384 422.89 528.889 422.52 528.579 423.49C526.531 429.88 524.254 426.62 522.445 424.46C519.948 427.24 516.721 429.48 515.453 432.53C513.495 437.26 510.887 437.51 508.23 436.05C503.455 438.58 499.669 441.15 495.493 442.61C492.296 443.73 493.065 444.27 495.013 445.61L495.043 445.59ZM719.814 68.24C716.477 68.03 713.94 67.69 711.402 67.75C708.225 67.82 704.379 67.18 702.042 68.71C697.866 71.44 693.99 70.82 689.614 70.52C685.319 70.23 680.364 69.95 676.728 71.75C670.544 74.81 664.52 77.29 657.557 77.9C647.238 78.8 636.968 80.3 626.679 81.63C622.223 82.2 617.798 82.96 612.184 83.82C615.44 86.86 617.298 89.55 621.334 88.57C624.201 87.87 627.148 87.48 630.065 86.96C640.984 85.01 651.483 80.66 662.882 81.38C664.95 81.51 668.066 79.89 668.976 80.8C672.332 84.15 675.379 81.92 678.056 80.7C684.55 77.73 690.534 75.64 698.276 77.08C705.238 78.37 712.841 76.26 720.153 75.49C720.763 75.43 721.812 74 721.682 73.46C721.142 71.31 720.203 69.27 719.824 68.26L719.814 68.24ZM210.145 331.81L209.096 330.17C205.06 331.99 200.695 333.33 197.038 335.74C189.206 340.91 181.204 345.4 171.564 346.16C173.303 350.43 180.625 352.08 183.872 348.94C189.536 343.46 196.069 339.56 203.332 336.61C205.839 335.59 207.887 333.44 210.145 331.8V331.81ZM382.099 515.95C371.66 517.82 358.973 525.7 357.694 530.49C366.085 525.49 374.087 520.72 382.099 515.95ZM530.747 476.18C532.265 473.91 532.935 471.65 534.213 471.22C539.228 469.54 544.433 468.44 549.558 467.12C549.997 467.01 550.417 466.81 551.016 466.59C550.537 465.16 550.097 463.86 549.787 462.91C542.315 465.93 535.262 468.79 527.281 472.02C528.969 474.04 530.068 475.37 530.747 476.18ZM513.465 492.13C516.661 491.21 519.908 490.44 523.035 489.33C527.37 487.79 531.656 486.08 535.882 484.25C536.541 483.96 536.771 482.69 537.64 481.05C534.793 482.55 532.805 484.55 531.137 484.32C523.674 483.28 518.669 487.68 513.465 492.13ZM536.541 75.39C536.431 74.79 536.331 74.19 536.221 73.6H514.863C517.111 77.43 522.535 79.66 524.503 77.17C526.781 74.28 528.889 75.51 531.386 75.87C533.045 76.1 534.813 75.58 536.541 75.39ZM346.475 533.78C342.729 535.64 339.553 536.95 336.665 538.72C333.818 540.45 328.853 540.25 329.413 546.23C335.347 543.03 340.951 540.1 346.405 536.93C346.905 536.64 346.475 534.74 346.475 533.78ZM588.867 259.16C589.057 259.81 589.247 260.45 589.437 261.1C599.357 258.47 609.277 255.85 619.206 253.22C619.027 252.55 618.847 251.87 618.667 251.2C608.737 253.85 598.797 256.51 588.867 259.16ZM580.686 455.59C578.198 452.84 576.27 449.17 572.764 453.89C572.514 454.23 571.535 454.03 570.896 454.05C568.878 454.12 566.331 454.16 567.22 456.99C567.579 458.14 570.356 459.45 571.715 459.16C574.682 458.54 577.449 456.94 580.686 455.58V455.59ZM504.594 110.25C504.684 110.78 504.784 111.31 504.873 111.84C511.626 110.69 518.38 109.54 525.143 108.39C525.133 107.75 525.113 107.1 525.103 106.46C523.874 106.46 522.615 106.28 521.427 106.5C519.718 106.82 517.7 108.3 516.462 107.77C511.617 105.69 508.22 108.16 504.594 110.25ZM505.213 95.66C503.994 91.48 494.044 89.58 489.209 93.69C494.414 94.33 499.629 94.97 505.213 95.66ZM666.178 89.08C666.628 91.97 667.018 94.42 667.397 96.87C669.455 96.42 671.103 96.35 672.432 95.67C673.601 95.07 674.41 93.78 675.379 92.8C674.35 91.92 673.461 90.69 672.272 90.25C670.474 89.59 668.476 89.49 666.168 89.08H666.178ZM676.468 66.19L676.768 63.81C671.533 60.49 666.158 64.93 660.884 64.31L660.824 66.19H676.468ZM568.418 106.31C568.269 105.63 568.119 104.94 567.969 104.26L549.498 108.98L549.977 110.94C556.121 109.4 562.275 107.86 568.418 106.32V106.31ZM479.22 491.62C479.12 491.18 479.01 490.75 478.91 490.31C475.453 491.56 471.947 492.71 468.581 494.18C468.151 494.37 468.461 496.22 468.431 497.31C469.45 497.28 470.568 497.5 471.468 497.15C472.187 496.87 472.656 495.92 473.186 495.34C474.075 496.18 474.684 496.75 475.004 497.05C476.572 495.03 477.901 493.32 479.23 491.62H479.22ZM611.564 411.53L612.174 413.27C618.397 411.06 624.621 408.85 630.845 406.63L630.255 404.93C624.022 407.13 617.798 409.33 611.564 411.53ZM594.941 417.58C590.416 419.66 586.24 421.58 581.835 423.6C587.169 426.38 594.572 422.77 594.941 417.58ZM465.953 456.96C469.639 458.88 477.621 454.96 479.909 450.08C475.573 452.22 471.248 454.35 465.953 456.96ZM435.664 469.99C435.924 470.8 436.184 471.61 436.443 472.42C440.03 471.45 443.626 470.52 447.182 469.45C447.532 469.35 447.942 468.06 447.752 467.86C447.302 467.38 446.403 466.84 445.864 466.98C442.437 467.88 439.061 468.96 435.664 469.99ZM412.058 403.46C412.268 404.07 412.468 404.67 412.678 405.28C418.612 406.04 420.53 405.1 422.368 400.2C418.771 401.34 415.415 402.4 412.058 403.46ZM607.508 65.88C607.349 66.39 607.199 66.9 607.039 67.4C608.577 68.18 610.156 69.66 611.634 69.57C614.262 69.41 616.24 67.91 614.931 64.18C612.383 64.76 609.946 65.32 607.498 65.88H607.508ZM483.255 331.58C494.114 330.59 498 328.87 498.959 325.13C493.635 327.31 488.45 329.44 483.255 331.58ZM638.557 46.46H626.519C633.891 51.11 635.63 51.08 638.557 46.46ZM229.395 421.47C229.785 422.01 230.174 422.54 230.574 423.08C234.46 420.44 238.356 417.8 242.242 415.16C241.812 414.54 241.393 413.93 240.963 413.31C237.107 416.03 233.251 418.75 229.395 421.48V421.47ZM170.445 324.47C175.061 323.86 179.326 323.29 183.592 322.73C177.119 319.59 173.422 320.41 170.445 324.47ZM577.219 407.84C577.479 408.16 577.839 408.86 578.049 408.82C582.314 407.93 586.58 407.04 590.776 405.88C591.145 405.78 590.985 403.81 590.995 403.74C586.26 405.15 581.905 406.45 577.219 407.85V407.84ZM197.038 394.68C197.378 395.12 197.718 395.56 198.057 396C201.444 393.9 204.82 391.8 208.207 389.7C202.313 388 200.505 392.65 197.038 394.68ZM615.031 456.33C614.771 455.67 614.501 455.01 614.242 454.35C611.365 455.72 608.487 457.08 605.61 458.45C605.85 459.01 606.1 459.57 606.34 460.13C609.476 459.48 613.103 460.04 615.031 456.33ZM562.564 459.69C562.125 459.29 561.675 458.9 561.236 458.5C558.978 459.46 556.67 460.33 554.503 461.47C554.083 461.69 554.243 463 554.143 463.8C556.471 463.4 558.868 463.21 561.096 462.49C561.815 462.26 562.085 460.66 562.564 459.68V459.69ZM550.257 478.17C550.537 478.71 550.816 479.26 551.096 479.8C553.024 478.96 554.962 478.13 556.89 477.29C555.841 475.94 554.792 474.59 553.384 472.77C551.985 475.18 551.126 476.67 550.257 478.16V478.17ZM235.889 430.57C231.693 433.27 228.356 435.41 225.02 437.55C231.743 437.03 235.579 434.56 235.889 430.57ZM603.363 87.26L602.993 85.77L592.324 88.09L592.624 89.57C596.63 91.11 600.086 89.69 603.363 87.25V87.26ZM704.03 427.68C704.259 428.08 704.489 428.47 704.719 428.87C706.897 428.33 709.144 427.96 711.232 427.18C711.932 426.92 712.241 425.62 712.731 424.8C711.782 424.46 710.553 423.56 709.924 423.88C707.846 424.92 705.978 426.39 704.03 427.69V427.68ZM619.496 422.76C614.841 423.24 611.334 423.61 607.548 424C609.926 428.06 612.044 427.84 619.496 422.76ZM510.098 493.13C509.778 492.67 509.449 492.22 509.129 491.76C507.99 492.75 506.851 493.74 505.713 494.73C507.201 495.78 504.704 500.59 509.199 498.73C509.519 496.77 509.808 494.94 510.098 493.12V493.13ZM547.37 478.67C546.87 478.04 546.371 477.41 545.871 476.78C544.353 477.73 542.835 478.67 541.326 479.62C542.125 480.46 543.484 482.12 543.644 482.01C545.012 481.07 546.161 479.83 547.37 478.67ZM625.79 459.73C625.64 459.08 625.48 458.43 625.33 457.77C621.964 458.97 618.597 460.17 615.241 461.37C615.43 461.96 615.62 462.54 615.82 463.13C619.147 462 622.473 460.86 625.8 459.73H625.79ZM462.727 463.64C463.995 461.96 464.804 460.89 465.614 459.82C464.595 459.3 463.516 458.27 462.587 458.39C461.628 458.52 460.808 459.77 459.939 460.52C460.719 461.39 461.498 462.26 462.727 463.63V463.64ZM721.891 286.5C721.772 285.66 721.642 284.83 721.522 283.99C719.544 284.27 717.556 284.5 715.618 284.95C715.458 284.99 715.678 286.61 715.718 287.49C717.776 287.16 719.834 286.82 721.891 286.49V286.5Z" fill="#FDC003"/>
<path d="M148.298 451.05C147.859 453.15 147.649 455.33 146.89 457.31C146.52 458.28 145.252 459.14 144.203 459.57C142.025 460.46 139.547 460.71 137.509 461.81C131.046 465.3 124.733 469.06 118.928 472.4C118.259 470.82 117.55 469.12 116.98 467.77C124.393 463.56 134.153 457.97 143.973 452.5C145.292 451.76 146.95 451.62 148.448 451.2L148.308 451.05H148.298Z" fill="#FDC003"/>
<path d="M373.129 553.07C373.129 555.18 372.639 556.19 370.092 557.06C365.976 558.46 362.36 561.29 358.524 563.52C353.359 566.52 348.224 569.56 343.039 572.52C338.794 574.93 334.488 577.24 330.212 579.6L329.513 578.22C333.919 574.87 338.144 571.26 342.78 568.27C345.767 566.35 349.463 565.54 352.61 563.83C353.549 563.32 353.728 561.41 354.258 560.14L354.108 560.25C355.786 560.15 358.324 560.71 359.013 559.83C362.709 555.07 367.834 553.97 373.258 553.27L373.129 553.09V553.07Z" fill="#FDC003"/>
<path d="M156.12 398.78C153.863 401.01 151.955 403.86 149.287 405.35C141.825 409.52 133.993 413.04 126.421 417.02C124.223 418.18 122.385 420.02 119.938 420.92C130.746 411.47 143.354 404.97 156.25 398.94C156.25 398.93 156.12 398.78 156.12 398.78Z" fill="#FDC003"/>
<path d="M380.101 571.82C377.834 573.46 375.446 574.97 373.348 576.8C372.559 577.49 372.419 578.93 372.339 579.11C367.334 581.61 362.689 584.03 357.934 586.24C356.036 587.12 353.908 587.52 351.89 588.14C351.64 587.56 351.381 586.97 351.131 586.39C355.836 583.41 360.441 580.28 365.266 577.51C369.842 574.88 374.637 572.64 379.332 570.22L380.101 571.82Z" fill="#FDC003"/>
<path d="M354.258 560.13C353.089 559.43 351.91 558.73 350.741 558.04C351.86 557.04 352.829 555.78 354.118 555.09C356.865 553.61 360.132 552.86 362.509 550.96C364.387 549.46 365.246 546.68 366.655 544.33L367.744 546.09C370.99 545.78 373.588 545.53 376.185 545.28L376.135 545.13C375.376 546.08 374.817 547.4 373.838 547.9C369.852 549.92 365.556 551.36 361.75 553.64C358.913 555.34 356.645 558.01 354.118 560.25L354.268 560.14L354.258 560.13Z" fill="#FDC003"/>
<path d="M409.441 542.35C402.788 546.28 396.125 550.2 388.413 554.76C388.413 552.15 388.243 550.58 388.443 550.53C391.33 549.82 391.34 544.95 395.885 546.01C397.893 546.48 400.62 543.81 403.038 542.6C404.756 541.73 406.504 540.9 408.232 540.06C408.632 540.83 409.041 541.59 409.441 542.36V542.35Z" fill="#FDC003"/>
<path d="M376.175 545.27C377.933 543.57 379.672 541.84 381.46 540.17C383.428 538.33 384.757 538.07 385.206 541.44C385.406 542.97 386.495 544.38 386.764 544.97C384.876 546.74 383.148 548.45 381.31 550.04C378.972 552.06 377.174 555.66 373.128 553.08L373.258 553.26C375.316 551.04 377.364 548.82 379.812 546.18C378.673 545.86 377.404 545.49 376.125 545.12L376.175 545.27Z" fill="#FDC003"/>
<path d="M342.47 422.45C339.842 426.55 323.549 435.62 319.124 434.39C327.565 430.27 332.929 423.32 342.47 422.45Z" fill="#FDC003"/>
<path d="M222.992 187.62C220.165 191.92 214.001 189.48 212.473 194.73C212.423 194.89 210.215 194.41 209.016 194.23C209.306 193.06 209.216 191.44 209.965 190.82C212.273 188.88 214.92 187.35 217.408 185.62C220.594 183.4 222.392 184.2 222.982 187.63L222.992 187.62Z" fill="#FDC003"/>
<path d="M108.269 428.86C100.517 434.77 93.7842 439.41 85.103 439.62C93.5344 438.5 97.87 428.39 108.269 428.86Z" fill="#FDC003"/>
<path d="M116.011 462.69C115.971 461.94 115.662 460.67 115.942 460.52C120.287 458.15 124.713 455.93 129.957 453.24C129.957 455.46 130.247 457.03 129.917 457.17C125.302 459.21 120.597 461.06 115.912 462.96C115.981 462.87 116.011 462.78 116.011 462.69Z" fill="#FDC003"/>
<path d="M72.1261 445.82C73.2249 451.5 67.5807 450.93 65.0533 452.68C61.8166 454.92 57.3811 455.4 52.8857 455.64C59.3391 452.41 65.7925 449.18 72.2459 445.96L72.1361 445.83L72.1261 445.82Z" fill="#FDC003"/>
<path d="M186.709 199.51C194.931 195.22 201.324 191.88 208.876 187.93C202.493 193.01 197.308 197.31 191.854 201.25C191.154 201.75 189.097 200.36 186.709 199.51Z" fill="#FDC003"/>
<path d="M177.279 204.09C175.55 211.99 168.797 212.14 162.793 213.48L177.279 204.09Z" fill="#FDC003"/>
<path d="M116.011 462.69C116.011 462.78 115.971 462.88 115.912 462.96C114.883 464.42 114.133 466.7 112.765 467.15C110.257 467.99 107.39 467.76 104.273 467.2C106.791 465.46 109.188 463.49 111.886 462.12C112.895 461.6 114.613 462.46 116.011 462.69Z" fill="#FDC003"/>
<path d="M62.6657 504.31C59.7287 504.75 57.1813 505.12 54.6339 505.5C54.2443 505.14 53.8647 504.79 53.4751 504.43L57.1513 497.68C59.1693 500.11 60.5179 501.73 62.6557 504.31H62.6657Z" fill="#FDC003"/>
<path d="M202.653 198.78C201.943 200.39 201.614 202.44 200.425 203.51C198.617 205.12 196.229 206.11 194.012 207.21C193.702 207.36 192.973 206.67 191.604 205.9C194.991 202.83 197.967 200.13 200.944 197.43L202.663 198.78H202.653Z" fill="#FDC003"/>
<path d="M290.293 538.29C288.105 540.18 286.117 542.38 283.7 543.89C279.294 546.65 279.624 542.29 278.645 540.74C282.711 539.48 286.577 538.29 290.443 537.1L290.293 538.29Z" fill="#FDC003"/>
<path d="M430.21 157.17C424.436 159.26 418.652 161.35 412.877 163.44L412.418 161.85C418.212 159.76 423.577 156.28 430.31 157.28L430.21 157.17Z" fill="#FDC003"/>
<path d="M226.578 182.68C229.755 180.22 232.452 178.03 235.279 176.03C235.759 175.69 236.997 175.86 237.477 176.27C237.907 176.64 238.116 178.14 237.857 178.33C234.57 180.64 232.013 184.96 226.588 182.69L226.578 182.68Z" fill="#FDC003"/>
<path d="M355.536 500.79C358.883 499.13 362.229 497.46 366.085 495.55C367.024 496.29 368.363 497.34 369.602 498.32C364.947 499.38 360.441 500.4 355.926 501.43L355.536 500.79Z" fill="#FDC003"/>
<path d="M290.323 469.36C292.791 467.56 295.208 465.68 297.766 464.04C298.365 463.65 299.584 463.84 300.313 464.2C300.623 464.35 300.663 466.12 300.363 466.28C297.346 467.89 294.219 469.33 291.132 470.81L290.323 469.37V469.36Z" fill="#FDC003"/>
<path d="M266.288 431.34C268.046 429.18 269.814 427.01 272.472 423.74C272.801 426.43 273.7 428.75 273.041 429.34C271.383 430.83 269.025 431.54 266.947 432.57C266.727 432.16 266.508 431.75 266.278 431.34H266.288Z" fill="#FDC003"/>
<path d="M190.065 244.71C186.579 247.29 183.103 249.87 179.616 252.46L178.487 250.92L189.066 243.37L190.065 244.71Z" fill="#FDC003"/>
<path d="M296.057 527.39C295.048 528.05 294.109 528.85 293.02 529.34C291.512 530.02 289.903 530.48 288.345 531.03C287.959 529.67 290.127 527.98 294.848 525.96L296.057 527.39Z" fill="#FDC003"/>
<path d="M421.359 382.8C425.315 381.14 429.281 379.48 433.237 377.83C433.486 378.49 433.726 379.15 433.976 379.82C429.94 381.29 425.904 382.76 421.868 384.23C421.699 383.76 421.529 383.28 421.359 382.81V382.8Z" fill="#FDC003"/>
<path d="M297.056 451.26C299.234 449.35 301.651 447.23 304.738 444.51C303.879 448.18 297.835 450.43 304.319 454.13C303.819 454.32 303.32 454.52 302.82 454.71C300.772 453.49 298.724 452.26 297.056 451.26Z" fill="#FDC003"/>
<path d="M165.221 454.23C161.984 456.15 158.748 458.08 155.511 460C155.231 459.58 154.952 459.17 154.672 458.75C157.809 456.72 160.935 454.7 164.072 452.67C164.452 453.19 164.831 453.71 165.221 454.23Z" fill="#FDC003"/>
<path d="M72.2359 445.95C75.9121 445.05 78.7093 441.31 82.6352 441.23L83.3046 443.62C79.5784 444.36 75.8622 445.1 72.126 445.83L72.2259 445.95H72.2359Z" fill="#FDC003"/>
<path d="M337.895 560.93C339.803 557.46 342.22 555.45 345.417 557.15L345.826 558.98C343.179 559.63 340.542 560.28 337.895 560.94V560.93Z" fill="#FDC003"/>
<path d="M279.075 476.78C281.992 474.62 284.529 472.75 287.176 470.79C287.626 475.1 284.949 477.17 279.075 476.78Z" fill="#FDC003"/>
<path d="M225.35 446.59C227.897 444.8 230.434 443.01 232.982 441.23L234.081 442.83C231.553 444.61 229.016 446.39 226.488 448.17C226.109 447.65 225.729 447.12 225.35 446.6V446.59Z" fill="#FDC003"/>
<path d="M347.365 419.59C349.453 418.34 351.53 417.08 354.178 415.49C354.051 418.35 351.78 419.717 347.365 419.59Z" fill="#FDC003"/>
<path d="M292.231 487.94C290.133 489.28 288.035 490.61 285.947 491.95L284.878 490.21C286.946 488.75 289.004 487.29 291.072 485.83C291.462 486.54 291.851 487.24 292.231 487.95V487.94Z" fill="#FDC003"/>
<path d="M187.099 195.76C184.941 197.68 182.773 199.6 180.615 201.52L179.197 199.85C181.415 198.01 183.622 196.17 185.84 194.34C186.26 194.81 186.679 195.29 187.099 195.76Z" fill="#FDC003"/>
</g>
<defs>
<clipPath id="clip0_362_14790">
<rect width="977.66" height="588.14" fill="white"/>
</clipPath>
</defs>
</svg>
