<svg width="589" height="589" viewBox="0 0 589 589" fill="none" xmlns="http://www.w3.org/2000/svg">
<g clip-path="url(#clip0_362_14634)">
<path d="M402.55 489.24C401.86 488.82 401.17 488.39 400.46 487.98C399.53 487.43 398.6 486.9 397.66 486.36C398.34 485.38 398.87 484.25 399.72 483.46C401.19 482.09 402.79 480.84 404.46 479.71C405.74 478.85 407.14 477.85 408.59 477.62C413.52 476.84 416.89 472.58 416.71 466.54C415.76 466.78 414.59 466.71 414.05 467.26C411.54 469.81 408.88 470.85 405.07 470.78C402.42 470.73 399.82 473.4 397.03 474.41C389.83 477.03 383.46 480.61 380.37 488.39C376.15 485.96 373.34 485.06 369.95 489.23C367.9 491.75 363.06 491.94 359.54 493.36C358.14 493.92 356.73 494.77 355.7 495.84C354.45 497.14 353.9 499.71 352.52 500.17C346.66 502.13 342.77 501.67 340.16 499.61C341.21 502.69 343.64 506.2 342.98 508.96C342.37 511.51 338.44 513.27 335.7 515.6C332.52 513.2 329.8 516.97 326.74 518.41C322.25 520.54 317.94 523.09 313.63 525.57C307.47 529.11 301.37 532.76 295.06 536.48C293.33 534.21 293.91 532.68 296.52 531.39C303.63 527.89 310.98 524.75 317.64 520.52C321.8 517.88 324.88 513.55 328.45 509.98C330.97 508.82 333.5 507.65 336.02 506.48L336 504.93C334.07 504.6 331.91 503.55 330.28 504.09C327.47 505.03 327.23 507.55 328.59 510.11C324.19 507.87 321.27 508.98 318.93 513.39C312.91 512.92 307.14 511.92 302.89 517.81C302.47 517.59 302.05 517.37 301.63 517.16C301.89 516.02 301.8 514.18 302.46 513.86C307.64 511.3 312.96 509.03 318.95 506.36C317.44 505.12 315.74 503.72 313.74 502.09C314.65 501.32 315.39 500.42 316.33 499.92C324.74 495.44 333.17 490.99 341.64 486.61C342.93 485.94 344.56 485.89 345.82 485.19C347.85 484.06 349.72 482.64 351.64 481.31C352.79 480.51 353.81 479.13 355.03 478.94C357.21 478.6 359.08 478.84 360.55 476.28C361.16 475.21 364.49 475.68 367.52 475.35C367.52 475.33 367.87 472.99 368.81 472.72C375.64 470.76 373.17 466.68 371.53 462.78C366.28 461.61 364.75 464.63 364.45 468.97C358.5 467.54 357.94 467.82 356.78 472.85C352.64 470.89 346.24 472.69 342.42 475.14C339.11 477.26 334.78 477.78 330.9 479.01C330.65 478.4 330.4 477.79 330.15 477.18C335.88 474.11 341.62 471.05 347.69 467.8C346.21 466.31 344.64 464.73 343.06 463.14V467.81C340.06 464.29 337.83 466.11 334.15 467.94C327.62 471.18 322.27 476.52 314.63 478.06C310.11 478.97 306.1 482.51 301.92 484.97C299.24 486.55 296.83 487.34 294.75 483.73C302.21 479.44 309.75 475.57 316.77 470.94C322.49 467.17 327.72 462.62 332.87 458.09C333.86 457.22 333.58 454.81 333.71 453.1C333.84 451.42 333.74 449.72 333.74 446.75C330.87 449.37 328.68 451.36 326.31 453.52C324.61 453.28 322.32 452.95 320.29 452.66C317.54 449.09 328 451.95 322.79 447.08C325.21 446.84 327.65 446.71 330.05 446.34C332.94 445.89 335.64 445.02 336.05 449.63C336.15 450.79 338.69 452.05 340.34 452.64C341.22 452.96 342.58 451.98 343.72 451.59C343.15 450.13 342.65 448.62 341.97 447.21C341.55 446.32 340.64 445.64 340.33 444.73C339.93 443.53 339.9 442.21 339.69 440.82C343.25 442.29 345.65 443.27 347.24 443.93C346.89 445.37 346.51 446.96 346.13 448.55C347.23 448.7 348.54 449.31 349.4 448.93C352.6 447.49 355.66 445.72 358.77 444.08C362.89 441.91 367.01 439.74 371.73 437.25C369.55 436.59 367.37 435.12 366.07 435.68C361.18 437.82 356.57 440.63 351.86 443.18C351.43 442.99 350.99 442.79 350.56 442.6C351.4 440.92 351.81 438.37 353.16 437.7C358.53 435.04 362.62 429.72 369.3 429.71C370.04 429.71 370.88 429.35 371.51 428.92C375.7 426.01 379.9 423.1 383.96 420.01C384.99 419.22 385.55 417.8 386.32 416.68C387.41 417.41 388.83 418.98 389.51 418.71C393.07 417.28 396.49 415.47 399.86 413.61C403.39 411.67 406.8 409.53 410.61 407.27C410.89 405.76 411.24 403.79 411.88 400.33C409.37 401.93 407.31 402.53 406.52 403.87C403.58 408.87 397.73 409.18 393.46 411.92C391.08 413.45 388.19 414.29 386.38 416.82C383.25 417.02 380.13 417.22 377.51 417.39C375.8 418.7 374.28 419.95 372.66 421.08C369.35 423.38 366.08 425.76 362.63 427.84C359.34 429.82 355.65 433.17 352.5 432.79C348.91 432.36 346.95 433.45 344.55 435.13C343.74 435.69 342.83 436.12 341.92 436.51C335.32 439.32 328.7 442.07 322.14 444.98C321.84 445.11 322.12 446.54 322.14 447.37C317.93 448.23 313.72 449.09 309.18 450.01C307.54 446.92 310.48 446.24 312.48 445.12C319.68 441.09 326.87 437.06 334.11 433.11C336.22 431.96 338.49 431.1 340.67 430.06C346.71 427.19 352.81 424.46 358.74 421.38C365.44 417.9 371.81 413.77 378.61 410.52C386.55 406.73 394.8 403.61 402.88 400.12C403.48 399.86 403.74 398.87 404.24 398.29C405.66 396.63 406.24 393.86 409.74 395.33C411.02 395.87 413.42 394.92 414.76 393.92C418.64 391.03 424.97 392.74 427.38 386.63C427.98 385.12 432.1 384.86 434.66 384.3C438.93 383.36 443.31 383.32 446.61 379.38C448.06 377.66 451.34 377.52 453.76 376.59C462.54 373.23 471.3 369.83 480.66 366.22C480.69 365.77 480.78 364.51 480.85 363.65C485.6 362.29 490.16 360.99 494.72 359.69C494.63 358.89 494.54 358.1 494.45 357.3C493.19 357.4 491.86 357.29 490.67 357.63C484.31 359.46 477.93 361.23 471.67 363.36C467.29 364.85 463.11 366.92 458.81 368.65C457.52 369.17 456.14 369.43 454.5 369.89C455.3 365.51 455.29 365.54 458.49 365.79C459.3 365.85 460.23 365.95 460.91 365.61C465.39 363.42 470 361.42 474.23 358.8C481.01 354.61 487.98 351.11 495.88 349.48C498.25 348.99 500.26 346.94 502.6 346.09C513.27 342.2 524.01 338.53 534.69 334.66C537.68 333.58 540.49 331.99 543.46 330.83C549.72 328.39 555.99 325.99 562.32 323.75C565.48 322.64 568.86 322.14 571.97 320.93C573.39 320.38 574.4 318.76 575.59 317.62L574.84 316.01C569.38 317.31 563.66 317.98 558.54 320.11C553.76 322.09 547.14 319.81 543.75 326.13C543 325.54 542.04 324.78 542.15 324.86C536.38 327.1 531.35 328.88 526.47 331C518.33 334.53 509.87 336.73 501.28 338.93C493.34 340.96 486.07 345.53 478.38 348.69C473.44 350.72 468.26 352.18 463.23 354.01C461.4 354.67 459.69 355.65 457.54 356.66L456.89 353.5C449.96 353.58 444.76 357.14 439.3 361.37C433.27 366.03 427.38 371.41 419.53 373.33C417.45 373.84 415.48 374.84 413.53 375.78C410.55 377.21 408.07 379.66 405.12 374.91C403.67 372.57 396.98 377.05 396.62 381.12C399.51 380.13 402.23 379.19 404.95 378.25C405.12 378.93 405.3 379.62 405.47 380.3C399.83 380 395.76 386.78 389.86 383.46C386.98 384.13 384.5 384.65 382.06 385.3C381.15 385.54 380.33 386.1 379.47 386.51L381.52 389.83C379.9 389.95 377.71 390.7 377.14 390.05C373.9 386.31 372.51 388.91 371.39 391.58C368.87 391.19 366.78 390.86 364.69 390.54C364.55 390.13 364.41 389.72 364.27 389.32C400.95 373.52 434.04 350.34 472.91 339.05C472.58 338.27 472.26 337.5 471.93 336.72C465.83 338.87 459.67 340.84 453.66 343.21C445.29 346.52 437.05 350.16 428.73 353.6C416.03 358.86 403.22 363.85 390.64 369.37C381.1 373.55 371.86 378.39 362.47 382.89C358.11 384.98 353.64 386.86 349.33 389.05C346.49 390.49 344.06 391.13 341.91 385.52C337.26 401.52 321.88 399.63 312.67 408.75C311.9 404.46 311.44 401.88 310.98 399.29C308.4 403.36 313.24 408.94 306.04 412.46C306.99 409.82 307.6 408.1 308.52 405.54C305.47 406.77 302.9 407.8 299.97 408.98C299.51 408.11 298.96 407.09 298.42 406.07C295.61 407.61 293.1 408.98 289.89 410.75C291.62 412.01 292.84 412.9 294.65 414.22C293.16 415.13 291.97 416.14 290.6 416.62C289.37 417.05 287.93 416.9 286.58 417C287.24 418.29 287.9 419.58 288.68 421.1C285.91 422.64 283.05 424.22 280 425.92C280 424.18 280.37 422.33 279.9 420.73C279.37 418.91 278.09 417.32 277.13 415.62C274.97 416.86 272.35 417.69 270.78 419.46C269.32 421.1 268.79 422.38 266.1 423.5C261.14 425.57 255.11 428.42 254.15 435.19C247.3 432.72 244.02 439.37 237.64 440.53C239.6 437.96 241.13 435.96 242.66 433.95L241.95 433.44C234.27 437.64 226.49 441.65 218.97 446.12C216.06 447.84 213.75 450.57 211.18 452.84C208.89 454.86 206.8 457.21 204.24 458.8C202.89 459.64 200.72 459.17 198.72 458.78C194.64 460.1 199.11 465.91 193.62 467.6C189 469.02 184.94 472.3 179.02 475.67C177.05 480.18 158.05 488.24 153.82 485.04C161.8 479.16 169.86 473.21 178.42 466.9V463.71C173.82 465.87 169.15 467.98 164.57 470.26C163.14 470.97 161.73 471.96 160.68 473.15C156.35 478.09 156.41 478.14 149.98 473.6C151.94 472.54 153.64 471.74 155.21 470.73C160.16 467.52 165.12 464.32 169.97 460.95C176.38 456.5 182.54 451.66 189.1 447.44C194.28 444.1 200.03 441.66 205.24 438.39C208.07 436.61 212.5 435.81 211.84 429.78C197.44 437.01 183.41 444.05 168.9 451.33C169.59 450.07 169.92 448.52 170.86 447.9C175.76 444.69 180.76 441.6 185.85 438.69C195.83 432.97 205.96 427.51 215.89 421.7C218.81 419.99 221.28 417.5 223.95 415.36L222.64 413.36C219.28 415.18 215.91 416.99 212.57 418.85C212.01 419.16 211.62 420.1 211.12 420.12C200.83 420.56 195.88 431.9 185.48 432.57C182.89 432.74 180.68 436.28 177.96 437.55C175.2 438.84 172.01 439.22 169.03 440.06C167.95 440.36 166.36 440.55 165.96 441.3C162.21 448.45 154.26 447.85 148.4 451.06L148.54 451.21C149.5 449.95 150.21 448.32 151.45 447.48C155.5 444.75 159.78 442.35 163.9 439.73C164.6 439.29 164.97 438.33 165.17 437.18C153.65 441.37 144.97 450.88 132.87 454.94C133.34 451.94 133.68 449.85 134.02 447.77C135.97 448.04 138.38 449.16 139.74 448.4C146.58 444.57 153.2 440.33 159.76 436.02C161.35 434.98 162.42 433.14 163.73 431.67C163.36 431.21 162.99 430.76 162.62 430.3C160.82 430.91 158.74 431.15 157.27 432.22C155.18 433.75 153.8 436.31 151.64 437.68C145.93 441.29 139.97 444.49 134.11 447.86C128.54 449.92 122.9 451.82 117.42 454.1C114.93 455.13 112.8 456.99 110.41 458.29C105.22 461.12 100.02 463.95 94.7199 466.55C88.1299 469.78 81.4199 472.79 74.7599 475.87C74.0399 476.2 72.7999 476.13 72.5499 476.62C69.6699 482.31 63.3699 482.29 58.7499 485.03C58.2099 485.35 57.2499 485.4 57.0699 485.82C54.3999 492.11 47.3899 491.43 42.8999 494.75C41.0299 496.13 39.4199 497.93 37.4099 499.04C31.3299 502.39 24.8899 505.14 19.0199 508.81C14.5099 511.63 10.6599 515.49 6.48992 518.86C4.75992 520.26 2.97992 521.58 1.21992 522.94C0.789922 522.53 0.359922 522.12 -0.0800781 521.71C1.25992 520.18 2.41992 518.43 3.97992 517.17C9.89992 512.36 15.9099 507.67 21.9499 503.01C26.1599 499.76 30.5099 496.69 34.7199 493.43C37.3099 491.43 39.8199 489.3 42.1699 487.03C42.4799 486.73 41.6199 485.23 41.6199 485.25C44.6099 482.21 47.0399 479.32 49.9099 476.95C52.7599 474.6 55.8099 471.83 59.1999 470.97C63.2899 469.94 64.6899 468.72 62.5699 464.65C67.9899 463.7 73.1499 462.87 78.2699 461.86C80.2699 461.46 82.3399 460.93 84.0899 459.95C88.7599 457.35 93.4999 454.79 97.7699 451.62C101.17 449.1 103.67 445.4 107.02 442.8C110.36 440.21 114.32 438.44 117.9 436.13C119.48 435.11 120.62 433.37 122.24 432.45C128.8 428.73 135.47 425.21 141.86 421.05C135.1 421.75 129 424.08 123.83 428.76L122.98 427.49C125.13 426.11 127.25 424.69 129.42 423.34C133.08 421.07 136.73 418.79 140.45 416.61C146.92 412.83 153.48 409.18 159.94 405.37C165.85 401.89 171.56 398.04 177.6 394.81C181.8 392.57 186.47 391.25 190.81 389.25C193.04 388.22 194.87 386.31 197.11 385.32C203.69 382.43 210.2 379.47 215.54 374.54C216.44 373.71 216.77 372.25 217.39 371.03C213.26 372.6 209.95 373.54 206.96 375.08C202.79 377.22 198.99 380.11 194.77 382.15C187.87 385.48 181.32 389.42 173.61 391.22C169.25 392.24 165.57 395.95 161.41 398.1C159.95 398.86 157.95 398.59 156.2 398.8L156.32 398.95C161.85 395.71 167.42 392.54 172.89 389.2C179.1 385.4 185.19 381.4 191.4 377.59C193.43 376.35 195.65 375.41 197.83 374.42C203.33 371.92 207.11 366.4 213.79 365.71C215.03 365.58 215.95 362.29 217.03 360.48C221.67 362.91 225.02 358.65 229.08 358.03C229.67 357.94 229.94 355.73 230.63 353.67C225.29 356.38 221.18 358.48 217.06 360.57C214.53 361.75 211.99 362.9 209.48 364.12C205.62 366 201.74 367.84 197.96 369.86C194.15 371.89 190.6 374.5 186.64 376.11C184.36 377.04 181.31 377.12 178.91 376.47C174.02 375.13 175.62 378.78 174.78 379.33C169.76 380.17 164.75 381.01 160.05 381.79C160.87 380.72 162.01 379.22 163.16 377.73L162.52 376.85C150.94 380.9 139.35 384.95 128.85 388.63C129.39 387.15 130.3 384.46 131.39 381.85C131.68 381.16 132.5 380.27 133.15 380.21C139.67 379.54 141.27 372.04 147 370.3C147.33 370.2 147.78 369.4 147.67 369.09C145.75 363.32 151.1 362.75 153.87 360.35C155.77 358.7 157.67 357.04 159.81 355.17C162.36 354.94 165.42 354.66 167.83 354.44C168.72 351.97 169.36 350.19 170.35 347.44C167.08 348.54 164.34 349.45 161.53 350.39C160.73 348.56 160.96 346.75 156.71 348.25C149.34 350.87 144.54 356.97 137.65 359.77C134.34 361.11 130.63 361.48 126.47 362.44C128.09 360.44 129.36 358.85 130.64 357.27L129.92 356.47C126.34 358.31 122.76 360.16 119.01 362.09C115.99 359.97 116.45 358.23 119.48 356.29C125.71 352.31 131.98 348.36 137.91 343.97C142.07 340.89 145.68 337.06 149.59 333.64C150.92 332.47 152.43 331.51 153.88 330.48C154.66 329.92 156.19 329.41 156.18 328.89C156.07 321.41 163.18 322.5 166.99 319.92C173.69 315.37 180.8 311.4 187.93 307.52C194.8 303.78 201.94 300.55 208.88 296.93C214.73 293.88 220.4 290.5 226.25 287.44C230.77 285.07 235.58 283.24 239.98 280.68C246.04 277.16 251.93 273.3 257.73 269.35C263.25 265.59 268.56 261.53 274.66 257.1C274.16 255.87 273.47 254.13 272.79 252.42C274.48 253.64 276.16 254.84 277.34 255.69C280.12 253.57 282.73 251.58 285.34 249.59C285.02 249.13 284.7 248.67 284.39 248.21L272.8 252.47C268.17 255.36 263.55 258.25 258.92 261.14C258.6 260.67 258.28 260.21 257.96 259.74C260.57 257.45 262.91 254.73 265.83 252.95C272.14 249.1 278.87 245.91 285.15 242.02C286.57 241.14 286.9 238.5 287.93 236.23C292.37 241.14 296.68 236.46 300.93 234.44C302.26 233.8 302.37 230.59 303.42 227.41C305.12 226.49 307.67 224.84 311.12 227.82C312.13 228.69 315.73 227.85 317.19 226.64C320.02 224.3 322.17 221.15 324.31 218.68C326.64 219.11 328.97 219.53 331.76 220.04V215.91C338.47 212.38 344.7 208.74 351.25 205.78C356.5 203.4 362.11 201.94 366.07 197.23C366.91 196.23 368.95 196.24 370.68 195.71C371.18 187.74 378.82 189.31 383.4 186.75C386.64 184.94 390.46 184.18 394.04 183C396.13 182.31 398.46 182.06 400.29 180.95C402.01 179.91 403.28 178.05 404.63 176.46C405.85 175.02 407.01 172.08 408.02 172.16C415.99 172.75 420.25 165.24 427.34 163.85C432.44 162.85 437.26 160.42 442.19 158.61C444.28 157.85 446.35 157.04 448.73 156.15C446.15 152.55 443.51 155.64 441.07 155.88C437.56 156.22 434.06 156.75 430.56 157.2L430.66 157.31C431.89 156.01 432.9 154.06 434.4 153.54C439.37 151.8 444.53 150.62 449.59 149.15C451.44 148.61 453.2 147.74 455.05 147.21C456.06 146.92 457.19 147.08 458.24 146.91C459.42 146.71 460.71 146.6 461.7 146.02C464.05 144.65 466.07 142.59 468.54 141.59C475.28 138.88 482.21 136.62 489.01 134.03C489.51 133.84 489.56 132.46 489.7 132C483.35 133.09 477.11 133.93 471 135.34C468.67 135.88 466.64 137.75 464.7 139.54C458.86 138.97 453.18 138.38 447.42 142.41C444.55 144.42 439.73 143.63 435.79 144.1L435.16 142.82C436.58 142.03 437.91 140.85 439.43 140.52C446.43 139.02 453.62 138.23 460.47 136.26C465.94 134.69 470.91 131.48 476.32 129.58C480.7 128.04 485.44 127.54 489.93 126.28C494.9 124.88 499.78 123.14 504.69 121.55C504.53 120.75 504.38 119.95 504.22 119.14C494.89 120.25 485.57 121.36 476.24 122.47C476.13 122.03 476.03 121.59 475.92 121.16C484.82 118.13 493.72 115.11 503.78 111.69C494.19 109.84 486.41 112.38 478.62 114.59C472.62 116.29 466.73 118.46 460.65 119.69C459.31 119.96 457.35 117.13 455.68 115.73C457.02 114.9 458.26 113.7 459.72 113.31C465.52 111.78 471.41 110.59 477.22 109.09C478.49 108.76 479.66 107.78 480.65 106.86C480.88 106.64 480.11 104.76 479.92 104.78C478.63 104.92 477.37 105.36 475.79 105.78C475.72 101.91 473.19 101.04 469.93 101.38C467.17 101.67 464.43 102.14 461.69 102.53L461.49 101.26C463.12 100.79 464.75 100.31 466.86 99.69C466.55 98.27 466.21 96.76 465.66 94.24C469.02 94.09 472.24 93.95 474.46 93.86C479 91.26 482.98 87.24 487.15 87.03C492.61 86.76 496.31 85.32 499.97 80.02C475.95 82.2 453.08 85.73 430.7 92.8C437.96 85.62 449.11 86.38 457.2 80.03C447.62 77.76 440.12 85.48 431.3 86.19C431.1 85.69 430.91 85.19 430.71 84.69C433.73 83.27 436.65 81.53 439.81 80.5C445.15 78.76 450.6 77.27 456.09 76.05C460.68 75.03 465.43 74.74 470.01 73.71C472.3 73.19 476.47 74.5 475.65 69.63C477.93 69.1 480.15 68.59 482.87 67.96C485.64 72.7 489.82 68.18 494.2 69.08C493.51 67.46 493.06 66.42 492.4 64.87C496.02 64.87 499.26 64.46 502.36 64.96C507.67 65.81 513.13 62.87 514.32 57.61C514.66 56.11 514.25 54.03 513.4 52.74C511.78 50.29 512.3 47.01 515.13 46.73C520.09 46.25 525.13 46.16 530.11 46.35C532.64 46.45 533.73 45.76 535.66 43.94C537.92 41.82 542.34 42.02 545.79 41.13C551.3 39.7 556.77 38.08 562.31 36.78C564.42 36.28 566.68 36.44 568.5 35.62C576.06 33.91 584.36 33.61 590.97 30.11C598.3 26.23 605.99 27.02 613.67 24.42C613.92 23.68 614.38 22.35 615 20.54C620.49 25.41 626.66 23.44 632.58 23.59C635.2 23.65 637.8 24.48 640.42 24.91C641.29 25.05 642.35 25.41 643.02 25.07C646.99 23.04 650.49 24.6 654.45 25.5C659.92 26.74 665.76 26.28 671.44 26.59C672.66 26.66 673.88 26.89 676.16 27.18C673.78 28.85 672.47 29.78 671.15 30.7C675.62 30.73 673.55 41.75 681.06 36.6C685.89 42.42 692.85 38.74 700.08 39.77C698.78 41.21 698.05 42.67 697.38 42.64C693.59 42.48 689.81 41.96 686.03 41.57C685.22 41.49 684.18 41.1 683.63 41.45C675.64 46.63 667.23 47.54 658.09 44.94C656.18 44.4 653.64 46.09 651.58 47.84C655.59 48.26 659.6 48.68 664.43 49.18C658.66 53.64 653.72 57.03 646.53 55.08C640.67 53.49 634.52 52.95 628.5 51.93C628.02 51.85 627.53 51.7 627.1 51.48C624.4 50.1 620.19 50.57 618 52.53C616.46 53.91 614.38 55 613.51 56.72C612.01 59.7 617.78 65.65 621.13 65.49C624.8 65.31 628.52 65.96 632.22 66.18C633.34 66.25 634.5 66.21 635.6 66.02C641.3 64.99 646.97 63.84 652.67 62.82C658.7 61.75 664.71 60.39 670.79 59.9C674.95 59.56 679.21 60.49 683.71 60.87C683.18 64.5 682.97 66.97 688.79 65.79C697.89 63.94 707.32 63.75 716.61 62.76C723.96 61.98 731.28 60.83 738.65 60.34C741.41 60.15 744.24 61.58 747.08 61.84C751.12 62.21 755.22 62.47 759.25 62.15C760.73 62.03 763.06 60.29 763.28 58.99C763.9 55.43 765.64 55.52 768.25 56.4C770.26 57.07 772.31 57.99 774.37 58.06C776.11 58.13 777.9 57.17 779.66 56.63C780.89 56.26 782.08 55.54 783.31 55.48C786.58 55.32 789.87 55.42 793.38 55.42L792.34 59.39C796.36 59 799.9 58.33 803.41 58.43C806.09 58.51 811.03 59.59 811.02 60.19C810.98 63.93 807.74 64.43 804.63 64.67C803.66 64.74 802.72 65.13 801.76 65.37C801.85 67.05 801.93 68.56 802.08 71.4C800.38 69.3 799.52 68.24 798.67 67.18L798.81 67.32C798.02 66.39 797.09 64.56 796.45 64.65C789.26 65.69 781.47 64.5 775.4 70.08C774.53 70.89 773.01 70.99 771.27 71.6C773.03 71.92 774.38 72.17 776.03 72.46C774.94 73.74 773.95 74.9 772.96 76.06C773.11 76.49 773.26 76.93 773.41 77.36C775.19 76.89 776.98 76.43 778.76 75.96C779.64 75.73 780.55 75.18 781.39 75.29C783.08 75.5 786.08 75.89 786.16 76.51C786.61 80.08 783.82 78.94 781.78 79.07C780.34 79.16 778.93 79.79 777.37 80.21C777.57 81.08 777.77 81.92 777.83 82.14C774.58 83.03 771.57 83.86 768.49 84.7C768.71 88.62 770.21 89.91 773.53 89.9C778.91 89.89 784.29 90.26 789.66 90.58C790.45 90.63 791.2 91.22 791.85 92.5C779.6 93.7 767.35 94.89 754.12 96.18C758.58 98.09 761.94 99.75 765.47 100.88C766.35 101.16 767.78 99.71 768.96 99.07C769.99 98.51 771.81 97.34 771.94 97.51C774.62 100.86 777.54 98.54 780.55 98.4C786.69 98.13 792.9 99.29 799.05 99.06C803.11 98.91 806.99 97.71 810.86 100.19C813.29 101.75 815.89 103.17 819.23 101.92C820.37 101.49 822.19 102.89 824.15 103.63C827.1 98.12 833.53 102.8 838.18 100.62L838.08 100.56C839.37 102.78 837.77 106.67 835.33 107.02C828.49 108 821.6 108.73 814.81 109.96C813.19 110.25 811.84 112.09 810.39 113.25C809.33 114.11 808.44 115.5 807.25 115.82C803.46 116.85 799.45 117.14 795.77 118.44C794.25 118.98 793.36 121.32 792.18 122.85L792.22 122.72C790.21 122.22 788.03 120.95 786.22 121.37C781.33 122.49 776.6 124.32 770.43 126.32C773.37 127.58 775.43 128.24 777.27 129.29C784.59 133.45 792.24 134.63 800.41 132.39C803.76 131.47 807.06 132.12 810.24 128.6C812.21 126.42 818.57 128.19 822.96 128.19L823.55 130.51C821.55 131.45 819.64 132.73 817.54 133.29C806.08 136.3 794.51 138.91 783.12 142.18C780.58 142.91 776.28 143.3 776.52 147.06C778.87 146.47 782.12 144.7 783.15 145.57C786.79 148.62 794.19 149.18 792.16 156.64C791.33 159.71 791.62 163.62 787.3 164.95C786.46 165.21 785.63 167.26 785.71 168.41C786.15 174.38 781.98 177.39 778.14 180.5C773.67 184.12 767.69 186.57 764.64 191.07C760.61 197.01 754.34 198.72 749.24 202.52C746.62 204.47 744.61 206.28 745.3 210.02C745.99 213.74 744.23 214.9 740.7 213.49C739.86 213.16 738.19 212.87 738.03 213.18C734.7 219.3 728.34 218.11 723.09 219.56C719.96 220.43 716.7 221 713.76 222.31C711.24 223.43 709.09 225.39 706.3 227.31C709.75 231.01 713.72 228.11 717.03 227.7C725.03 226.7 732.91 224.75 740.87 223.4C743.5 222.95 746.26 222.99 748.94 223.18C749.76 223.24 750.45 224.61 751.25 225.32C753.35 227.19 755.31 230.35 757.62 230.63C763.28 231.32 762.57 234.83 762.41 238.49C762.32 240.73 762.27 242.98 762.2 245.22C764.61 245.07 767.02 244.92 769.98 244.74C769.37 245.95 768.99 248.24 767.81 248.77C763.55 250.7 760.97 253.41 761.27 258.3L758.78 253.58C757.29 254.51 755.81 255.44 754.32 256.36C751.46 258.11 747.56 258.67 746.96 262.95C746.74 264.51 746.43 266.06 745.95 268.81C749.51 267.55 752.01 266.67 754.58 265.77C758.37 270.88 759.6 270.83 764.7 265.77C765.45 265.02 767.91 264.76 768.51 265.35C769.76 266.58 770.96 268.54 770.95 270.2C770.94 271.8 769.69 273.71 768.44 274.91C763.7 279.46 757.77 281.28 751.35 282.28C748.67 282.7 745.49 284.18 743.89 286.23C741.59 289.18 738.79 290.16 735.58 290.7C730.03 291.64 724.42 292.24 718.9 293.28C717.13 293.61 715.54 294.89 713.44 295.95C716.73 300.75 720.75 299.22 724.29 298.2C728.87 296.88 733.24 294.87 737.77 293.36C738.42 293.14 739.45 294.02 740.29 294.39C742.44 290.72 744.66 288.72 748.3 292.95C749.03 293.79 751.2 293.66 752.68 293.55C760.49 292.96 768.31 292.47 776.08 291.51C785.63 290.33 795.13 288.76 804.63 287.24C805.46 287.11 806.16 286.15 807.96 286.07C807.15 287.58 806.71 289.61 805.46 290.51C798.17 295.79 789.8 297.31 784.8 294.62C781.66 298.06 772.47 300.64 768.41 299.08C763.52 304.98 756.17 304.79 749.49 306.56C740.51 308.94 731.67 311.83 722.75 314.46C720.92 315 718.86 315.02 717.21 315.87C716.16 316.41 714.97 318.17 715.13 319.16C715.3 320.19 717.08 321.75 718.08 321.7C721.99 321.49 725.86 320.72 729.76 320.18C734.76 319.49 740.07 319.63 744.67 317.88C748.47 316.43 751.93 315.34 756.05 314.97C762.06 314.44 767.95 312.44 773.87 310.98C779.54 309.58 785.16 307.98 790.84 306.66C793.85 305.96 796.96 305.66 800.24 305.15C798 307.5 796.46 309.57 791.98 309.19C787.39 308.8 782.55 311.29 777.83 312.55C771.72 314.18 765.7 316.57 759.48 317.34C748.27 318.73 737.57 322.77 726.25 323.34C725.94 323.36 725.42 323.42 725.37 323.59C724.16 327.34 722.27 331.07 722.09 334.89C721.95 337.8 724.29 339.17 727.8 337.46C730.33 336.23 733.83 336.95 736.32 335.67C744.58 331.42 753.8 331.57 762.49 329.39C768.52 327.88 774.85 327.55 781.06 326.79C791.49 325.51 801.93 324.26 812.38 323.11C820.26 322.24 828.16 321.59 836.04 320.78C843.39 320.02 851.12 320.35 857.99 318.08C868.43 314.62 879.33 315.94 889.79 313.37C893.04 312.57 896.94 314.99 900.6 315.23C908.6 315.76 915.91 319.99 924.26 319.13C926.22 318.93 928.45 322.49 930.62 318.79C931.83 316.73 933.32 314.84 935.03 312.37C935.99 312.71 937.64 313.3 939.3 313.89C940.7 311.85 941.88 308.31 943.54 308.07C948.03 307.42 952.74 308.02 957.34 308.42C961.77 308.8 966.17 309.56 970.58 310.12C973.23 310.45 975.89 310.71 978.54 311C978.51 311.61 978.49 312.23 978.46 312.84C974.3 313.26 970.13 313.55 966 314.16C964.58 314.37 963.27 315.38 961.91 316.02C962.8 317.16 963.73 318.29 964.59 319.46C965.95 321.32 967.26 323.22 968.76 325.34C969.42 324.18 970.12 322.95 971.41 320.69C972.36 324.6 973.1 327.63 974.2 332.16C970.22 333.97 965.41 336.05 960.69 338.32C954.92 341.09 949.21 341.75 942.86 340C941.17 339.53 939.06 340.59 937.41 338.58C937.13 338.24 935.15 339.31 933.02 340.05C935.49 341.77 936.93 342.77 938.55 343.9C937.76 344.78 937.03 345.6 936.3 346.43C936.47 346.81 936.64 347.2 936.81 347.58L941.93 345.69C951.04 346.13 961.06 343.51 971 344.53L971.3 347.04C964.67 348.62 958.05 350.22 951.42 351.78C948.39 352.49 945.25 352.9 942.34 353.95C941.28 354.33 940.75 356.18 939.54 358.02C935.81 358.9 930.04 357.04 926.51 361.55C919.72 362.9 912.87 364.26 906.03 365.63L906.11 366.82H926.23L926.59 367.28C925.64 367.6 924.7 368.12 923.73 368.19C917.85 368.61 912.77 370.46 908.68 375.05C907.51 376.36 905 376.46 903.26 377.07C901.81 374.94 900.66 373.24 899.93 372.16C898.02 375.11 896.21 377.9 894.43 380.65C885.89 379.023 880.663 379.277 878.75 381.41C878.58 380.98 878.4 380.56 878.23 380.13C876.44 380.86 874.71 381.83 872.86 382.26C869.37 383.06 865.83 383.77 862.28 384.11C856.89 384.62 851.45 384.61 846.07 385.21C844.63 385.37 843.47 387.38 841.97 387.79C839.48 388.46 836.8 388.88 834.25 388.72C832.25 388.59 830.32 387.42 828.03 386.59C826.24 387.89 824.15 389.41 821.43 391.39C817.52 390.15 812.72 389.15 808.31 393C810.2 392.58 812.09 392.17 813.98 391.75C799.39 400.3 781.65 401.85 767.97 412.39C768.08 412.99 768.2 413.58 768.31 414.18L782.35 411.25C769.49 417.31 765.55 418.24 764.14 414.27C763.26 415.38 762.51 416.31 761.3 417.84C759.79 415.88 758.46 414.17 757.14 412.46C751.45 416.9 749.58 416.4 753.33 421.46C749.73 426.2 745.15 424.1 740.53 423.21C739.8 425.85 742.97 430.43 736.78 430.59C736.88 429.09 737 427.45 737.18 424.78C733.78 425.85 730.96 426.76 728.14 427.62C727.36 427.86 726.34 428.38 725.79 428.09C720.67 425.39 717.04 429.74 712.77 430.84C710.89 431.32 709.4 433.19 707.64 434.29C705.66 435.53 703.55 436.56 701.55 437.77C700.18 438.6 698.92 439.63 697.58 440.52C694.68 442.45 691.81 444.41 688.81 446.17C688.43 446.4 687.38 445.51 686.65 445.13L686.53 445.31V437.2C685.52 437.91 684.93 438.61 684.2 438.79C679.95 439.88 674.78 438.07 671.68 442.84C671.51 443.11 670.75 443.07 670.27 443.05C663.18 442.7 662.76 443.08 662.43 450.28L662.6 450.13C659.95 444.15 659.17 443.9 653.65 446.74C652.76 447.2 651.46 446.76 650.4 446.98C648.73 447.32 647.09 447.86 644.88 448.48C642.36 446.09 634.26 447.15 628.3 451.87C631.65 452.17 634.52 452.42 637.38 452.68C637.46 452.92 637.54 453.16 637.62 453.4C635.63 453.85 633.65 454.3 631.25 454.84C633.02 460.41 638.18 455.64 640.61 458.19C638.35 461.3 632.36 463.17 628.75 462.74C626.97 462.53 623.98 463.44 623.28 464.76C621.37 468.37 619.55 467.16 617.48 465.45C612.24 461.14 608.68 461.36 603.31 465.93C601.67 467.32 599.36 467.93 596.66 469.24C602.27 474.15 604.05 464.55 609.07 467.68C605.73 469.91 602.62 471.99 598.61 474.67C597.87 473.66 597.1 472.22 595.96 471.2C595.19 470.51 593.74 469.9 592.84 470.14C588.98 471.16 584.07 471.46 581.69 474.02C579.06 476.84 577.91 477.69 574.52 473.91C574.87 475.88 575.01 476.64 575.32 478.36C573.16 477.26 571.45 476.4 569.26 475.29C567.9 480.31 564.17 477.69 561.1 477.65C563.21 475.87 565.3 474.11 567.4 472.35C566.95 471.68 566.5 471.01 566.05 470.34C564.55 471.17 562.6 471.67 561.69 472.93C560.91 474.02 561.32 475.97 561.2 477.54C561.03 479.28 560.86 481.03 560.82 481.49C555.6 482.78 550.95 483.88 546.33 485.1C544 485.71 541.58 486.27 539.45 487.35C537.39 488.4 535.82 490.42 533.75 491.42C527.13 494.61 520.47 497.74 513.65 500.45C510.44 501.73 506.82 501.99 502.96 502.79C502.56 505.95 500.67 507.48 496.63 506.88C495.22 506.67 493.5 508.59 491.46 509.8C490.44 504.82 499.57 503.8 494.69 498.17C482.62 500.36 471.75 507.49 459.37 515.21C462.51 514.79 464.57 514.98 466.18 514.21C469.24 512.74 471.93 510.49 474.99 509.01C477.57 507.76 480.46 507.14 484.23 505.91C483.65 507.69 483.63 509.31 482.91 509.72C478.27 512.38 473.5 514.82 468.72 517.24C466.68 518.27 464.57 519.57 462.4 519.78C461.02 519.91 459.47 518.24 458.01 517.39C456.82 517.22 455.61 517.04 454.41 516.86C447.33 516.07 442.11 520.67 436.29 523.37C434.75 524.08 434.01 526.52 433.49 527.29C427.95 528.86 422.82 530.32 417.23 531.9L419.34 539.96C416.8 537.85 415.24 536.55 413.33 534.96C412.8 535.38 411.69 536.89 410.88 536.74C409.09 536.42 407.44 535.27 405.74 534.45C408.79 532.15 405.92 525.79 411.9 525.46C412.32 525.44 412.72 525.01 412.41 525.19C413.99 526.7 415.11 528.34 416.66 529.04C417.64 529.48 420.41 528.43 420.4 528.16C420.28 526.06 419.68 523.98 419.07 521.21C420.44 520.9 422.24 520.5 424.22 520.06C424.79 521.79 425.22 523.1 425.65 524.42L426.37 524.37V517.14C429.17 518.21 431.51 519.1 433.85 519.99C434.09 519.7 434.34 519.4 434.58 519.11C433.41 517.84 432.23 516.57 430.79 515.01C442.07 509.66 453.38 504.3 464.68 498.94C464.48 498.31 464.28 497.67 464.08 497.04C462.15 497.6 460.15 497.99 458.29 498.75C450.78 501.81 443.3 504.93 435.85 508.13C428.26 511.38 420.7 514.71 413.18 518.1C411.89 518.68 410.93 520.06 409.63 520.52C405.59 521.95 401.45 523.11 397.29 523.38C395.52 525.8 393.75 528.22 391.74 530.95C392.34 531.48 393.19 532.24 394.03 533C393.71 533.43 393.39 533.85 393.07 534.28C391.82 533.29 390.57 532.31 389.22 531.25C386.53 532.51 382.73 532.15 381.17 536.32C380.74 537.46 376.49 538.65 375.62 537.91C371.44 534.34 369.09 537.46 366.36 539.68C365.85 540.09 365.45 540.77 364.89 540.94C360.28 542.36 355.57 543.51 351.02 545.1C347.65 546.27 344.47 547.98 340.34 549.84C338.37 554.6 336.79 555.25 330.08 555.12C327.44 555.07 324.76 556.6 321.27 557.66C320.93 557.34 319.79 556.26 318.07 554.64C320.08 553.93 321.84 553.82 322.6 552.89C323.44 551.87 323.35 550.09 323.67 548.65C322.35 548.72 320.54 548.26 319.77 548.95C312.38 555.62 304.31 561.15 294.9 564.56C293.76 564.97 292.46 564.92 291.23 565.08L290.89 563.75C298.51 558.66 306.04 553.41 313.82 548.58C316.16 547.13 316.27 542.92 320.16 543.64C321.29 538.72 326.39 539.99 329.27 537.81C331.26 536.3 333.52 535.09 335.28 533.36C337.84 530.84 340.06 527.98 342.63 525.03C343.5 525.73 344.35 526.42 345.33 527.21C345.59 526.84 345.89 526.5 346.08 526.1C347.3 523.49 347.64 520.01 352.19 523.09C354.61 524.73 357.81 521.26 357.78 517.14H353.03L352.44 515.79C358.36 512.46 364.25 509.05 370.22 505.81C376.52 502.39 382.89 499.09 389.27 495.82C391.94 494.45 394.74 493.34 397.43 492.01C399.09 491.18 400.66 490.15 402.27 489.21C407.4 486.7 412.53 484.18 417.65 481.67L417.15 480.52C412.45 482.23 407.76 483.94 402.83 485.74C402.71 486.74 402.55 488.03 402.39 489.32L402.55 489.24ZM171.88 412.02C178.41 406.76 187.35 404.78 192.99 396.81C183.57 398.08 178.79 405.26 172.1 409.29C171.62 409.58 171.92 411.16 171.86 412.08C170.43 410.67 168.99 409.27 166.57 406.89C165.79 415.55 156.07 413.23 153.95 420.72C160.67 417.45 166.28 414.73 171.88 412.01V412.02ZM605.49 447.04C611.63 446.77 617.8 446.48 623.27 443.27C624.07 442.8 624.23 441.23 624.76 439.99C616.87 439.28 616.9 439.31 611.31 444.22C610.66 444.79 609.38 444.57 608.54 445.01C607.48 445.57 606.57 446.42 605.6 447.15C603.79 446.97 601.98 446.8 600.17 446.62C599.82 445.99 599.48 445.36 599.13 444.73C600.83 444.19 602.53 443.64 604.23 443.1C603.82 442.67 603.41 442.25 602.99 441.82C600.99 442.49 598.99 443.16 597.42 443.68C597.61 446.31 597.77 448.53 598.06 452.43C600.98 450.31 603.23 448.67 605.48 447.03L605.49 447.04ZM459.64 386.29C459.96 386.67 460.42 387.44 460.57 387.38C465.58 385.49 470.63 383.67 475.52 381.5C478.22 380.3 480.64 378.47 483.18 376.93L482.29 375.11C478.24 380.33 471.49 377.04 466.97 381C464.72 382.98 462.17 384.63 459.75 386.42C453.71 388.41 447.68 390.4 441.65 392.42C441.48 392.48 441.46 393.02 441.26 393.75C442.24 394.01 443.39 394.74 444.17 394.46C448.66 392.84 453.12 391.09 457.47 389.13C458.43 388.7 458.93 387.26 459.64 386.28V386.29ZM388.19 460.24L393.92 456.17C392.55 455.23 391.18 454.29 388.95 452.76C388.7 456.24 388.55 458.34 388.4 460.45C387.15 459.01 385.91 457.58 384.01 455.39C381.45 456.66 377.58 458.59 373.31 460.71C374.29 463.31 375.5 466.5 377 470.44C378.95 468.32 380.11 466.8 381.54 465.59C382.73 464.58 384.32 463.22 385.56 463.37C386.52 463.49 387.22 465.71 388.04 467C388.17 468.33 388.29 469.66 388.52 472.11C386.96 470.17 386.34 468.73 385.72 468.72C379.99 468.71 383 475.28 379.48 477.3C388.72 477.15 395.69 471.59 403.59 467.98C403.16 466.23 402.78 464.72 402.27 462.62C400.2 463.04 397.65 462.8 396.45 463.96C393.96 466.38 391.23 467.08 388.03 467.01L388.18 460.24H388.19ZM495.55 445.59C492.02 446.26 488.46 446.83 484.97 447.68C484.31 447.84 483.62 449.07 483.52 449.88C483.46 450.34 484.89 451.52 485.11 451.4C488.59 449.5 491.98 447.44 495.39 445.41C495.74 445.75 496.16 446.42 496.42 446.37C501.13 445.31 505.2 442.67 510.31 442.12C515.34 441.57 520.05 438.34 525 436.57C526.31 436.1 527.99 436.68 529.49 436.78C529.55 437.1 529.62 437.43 529.68 437.75C526.83 439.34 523.99 440.92 521.14 442.51C521.33 442.93 521.52 443.36 521.7 443.78C522.93 443.69 524.24 443.82 525.39 443.46C530.72 441.8 536.06 440.13 541.3 438.2C543.53 437.38 545.52 435.9 547.62 434.72C546.38 433.16 545.11 431.61 543.91 430.02C543.64 429.67 543.65 429.11 543.33 427.88C544.76 427.88 546.25 427.41 547 427.96C551.27 431.08 551.21 431.16 557.85 428.2C555.91 427.9 554.65 427.88 553.52 427.49C552.49 427.14 551.6 426.38 550.65 425.81C551.58 425.04 552.45 423.73 553.45 423.62C555.51 423.38 557.65 423.79 559.83 423.93C560.58 422.92 561.41 421.79 562.64 420.1C565.27 423.35 569.47 424.85 568.47 430.18C569.65 429.77 570.92 429.32 572.19 428.87C571.74 428.54 571.28 428.2 570.83 427.87C571.71 426.04 572.27 423.92 573.57 422.47C574.38 421.57 576.31 421.63 577.75 421.33C579.93 420.88 582.36 420.96 584.25 419.98C586.99 418.56 589.18 416.11 591.91 414.66C593.62 413.74 595.87 413.84 597.88 413.48C589.31 410.4 581.62 413.19 574.76 417.41C571.42 419.47 569.19 420.38 565.51 418.93C563.66 418.2 560.7 418.46 559 419.51C554.36 422.38 549.63 423.66 545.88 422.62C542.11 424.8 539.49 426.32 536.87 427.84C536.54 427.4 536.21 426.95 535.88 426.51L536.96 422.59C533.93 422.89 529.43 422.52 529.12 423.49C527.07 429.88 524.79 426.62 522.98 424.46C520.48 427.24 517.25 429.48 515.98 432.53C514.02 437.26 511.41 437.51 508.75 436.05C503.97 438.58 500.18 441.15 496 442.61C492.8 443.73 493.57 444.27 495.52 445.61L495.55 445.59ZM720.55 68.24C717.21 68.03 714.67 67.69 712.13 67.75C708.95 67.82 705.1 67.18 702.76 68.71C698.58 71.44 694.7 70.82 690.32 70.52C686.02 70.23 681.06 69.95 677.42 71.75C671.23 74.81 665.2 77.29 658.23 77.9C647.9 78.8 637.62 80.3 627.32 81.63C622.86 82.2 618.43 82.96 612.81 83.82C616.07 86.86 617.93 89.55 621.97 88.57C624.84 87.87 627.79 87.48 630.71 86.96C641.64 85.01 652.15 80.66 663.56 81.38C665.63 81.51 668.75 79.89 669.66 80.8C673.02 84.15 676.07 81.92 678.75 80.7C685.25 77.73 691.24 75.64 698.99 77.08C705.96 78.37 713.57 76.26 720.89 75.49C721.5 75.43 722.55 74 722.42 73.46C721.88 71.31 720.94 69.27 720.56 68.26L720.55 68.24ZM210.36 331.81L209.31 330.17C205.27 331.99 200.9 333.33 197.24 335.74C189.4 340.91 181.39 345.4 171.74 346.16C173.48 350.43 180.81 352.08 184.06 348.94C189.73 343.46 196.27 339.56 203.54 336.61C206.05 335.59 208.1 333.44 210.36 331.8V331.81ZM382.49 515.95C372.04 517.82 359.34 525.7 358.06 530.49C366.46 525.49 374.47 520.72 382.49 515.95ZM531.29 476.18C532.81 473.91 533.48 471.65 534.76 471.22C539.78 469.54 544.99 468.44 550.12 467.12C550.56 467.01 550.98 466.81 551.58 466.59C551.1 465.16 550.66 463.86 550.35 462.91C542.87 465.93 535.81 468.79 527.82 472.02C529.51 474.04 530.61 475.37 531.29 476.18ZM513.99 492.13C517.19 491.21 520.44 490.44 523.57 489.33C527.91 487.79 532.2 486.08 536.43 484.25C537.09 483.96 537.32 482.69 538.19 481.05C535.34 482.55 533.35 484.55 531.68 484.32C524.21 483.28 519.2 487.68 513.99 492.13ZM537.09 75.39C536.98 74.79 536.88 74.19 536.77 73.6H515.39C517.64 77.43 523.07 79.66 525.04 77.17C527.32 74.28 529.43 75.51 531.93 75.87C533.59 76.1 535.36 75.58 537.09 75.39ZM346.83 533.78C343.08 535.64 339.9 536.95 337.01 538.72C334.16 540.45 329.19 540.25 329.75 546.23C335.69 543.03 341.3 540.1 346.76 536.93C347.26 536.64 346.83 534.74 346.83 533.78ZM589.47 259.16C589.66 259.81 589.85 260.45 590.04 261.1C599.97 258.47 609.9 255.85 619.84 253.22C619.66 252.55 619.48 251.87 619.3 251.2C609.36 253.85 599.41 256.51 589.47 259.16ZM581.28 455.59C578.79 452.84 576.86 449.17 573.35 453.89C573.1 454.23 572.12 454.03 571.48 454.05C569.46 454.12 566.91 454.16 567.8 456.99C568.16 458.14 570.94 459.45 572.3 459.16C575.27 458.54 578.04 456.94 581.28 455.58V455.59ZM505.11 110.25C505.2 110.78 505.3 111.31 505.39 111.84C512.15 110.69 518.91 109.54 525.68 108.39C525.67 107.75 525.65 107.1 525.64 106.46C524.41 106.46 523.15 106.28 521.96 106.5C520.25 106.82 518.23 108.3 516.99 107.77C512.14 105.69 508.74 108.16 505.11 110.25ZM505.73 95.66C504.51 91.48 494.55 89.58 489.71 93.69C494.92 94.33 500.14 94.97 505.73 95.66ZM666.86 89.08C667.31 91.97 667.7 94.42 668.08 96.87C670.14 96.42 671.79 96.35 673.12 95.67C674.29 95.07 675.1 93.78 676.07 92.8C675.04 91.92 674.15 90.69 672.96 90.25C671.16 89.59 669.16 89.49 666.85 89.08H666.86ZM677.16 66.19L677.46 63.81C672.22 60.49 666.84 64.93 661.56 64.31L661.5 66.19H677.16ZM569 106.31C568.85 105.63 568.7 104.94 568.55 104.26L550.06 108.98L550.54 110.94C556.69 109.4 562.85 107.86 569 106.32V106.31ZM479.71 491.62C479.61 491.18 479.5 490.75 479.4 490.31C475.94 491.56 472.43 492.71 469.06 494.18C468.63 494.37 468.94 496.22 468.91 497.31C469.93 497.28 471.05 497.5 471.95 497.15C472.67 496.87 473.14 495.92 473.67 495.34C474.56 496.18 475.17 496.75 475.49 497.05C477.06 495.03 478.39 493.32 479.72 491.62H479.71ZM612.19 411.53L612.8 413.27C619.03 411.06 625.26 408.85 631.49 406.63L630.9 404.93C624.66 407.13 618.43 409.33 612.19 411.53ZM595.55 417.58C591.02 419.66 586.84 421.58 582.43 423.6C587.77 426.38 595.18 422.77 595.55 417.58ZM466.43 456.96C470.12 458.88 478.11 454.96 480.4 450.08C476.06 452.22 471.73 454.35 466.43 456.96ZM436.11 469.99C436.37 470.8 436.63 471.61 436.89 472.42C440.48 471.45 444.08 470.52 447.64 469.45C447.99 469.35 448.4 468.06 448.21 467.86C447.76 467.38 446.86 466.84 446.32 466.98C442.89 467.88 439.51 468.96 436.11 469.99ZM412.48 403.46C412.69 404.07 412.89 404.67 413.1 405.28C419.04 406.04 420.96 405.1 422.8 400.2C419.2 401.34 415.84 402.4 412.48 403.46ZM608.13 65.88C607.97 66.39 607.82 66.9 607.66 67.4C609.2 68.18 610.78 69.66 612.26 69.57C614.89 69.41 616.87 67.91 615.56 64.18C613.01 64.76 610.57 65.32 608.12 65.88H608.13ZM483.75 331.58C494.62 330.59 498.51 328.87 499.47 325.13C494.14 327.31 488.95 329.44 483.75 331.58ZM639.21 46.46H627.16C634.54 51.11 636.28 51.08 639.21 46.46ZM229.63 421.47C230.02 422.01 230.41 422.54 230.81 423.08C234.7 420.44 238.6 417.8 242.49 415.16C242.06 414.54 241.64 413.93 241.21 413.31C237.35 416.03 233.49 418.75 229.63 421.48V421.47ZM170.62 324.47C175.24 323.86 179.51 323.29 183.78 322.73C177.3 319.59 173.6 320.41 170.62 324.47ZM577.81 407.84C578.07 408.16 578.43 408.86 578.64 408.82C582.91 407.93 587.18 407.04 591.38 405.88C591.75 405.78 591.59 403.81 591.6 403.74C586.86 405.15 582.5 406.45 577.81 407.85V407.84ZM197.24 394.68C197.58 395.12 197.92 395.56 198.26 396C201.65 393.9 205.03 391.8 208.42 389.7C202.52 388 200.71 392.65 197.24 394.68ZM615.66 456.33C615.4 455.67 615.13 455.01 614.87 454.35C611.99 455.72 609.11 457.08 606.23 458.45C606.47 459.01 606.72 459.57 606.96 460.13C610.1 459.48 613.73 460.04 615.66 456.33ZM563.14 459.69C562.7 459.29 562.25 458.9 561.81 458.5C559.55 459.46 557.24 460.33 555.07 461.47C554.65 461.69 554.81 463 554.71 463.8C557.04 463.4 559.44 463.21 561.67 462.49C562.39 462.26 562.66 460.66 563.14 459.68V459.69ZM550.82 478.17C551.1 478.71 551.38 479.26 551.66 479.8C553.59 478.96 555.53 478.13 557.46 477.29C556.41 475.94 555.36 474.59 553.95 472.77C552.55 475.18 551.69 476.67 550.82 478.16V478.17ZM236.13 430.57C231.93 433.27 228.59 435.41 225.25 437.55C231.98 437.03 235.82 434.56 236.13 430.57ZM603.98 87.26L603.61 85.77L592.93 88.09L593.23 89.57C597.24 91.11 600.7 89.69 603.98 87.25V87.26ZM704.75 427.68C704.98 428.08 705.21 428.47 705.44 428.87C707.62 428.33 709.87 427.96 711.96 427.18C712.66 426.92 712.97 425.62 713.46 424.8C712.51 424.46 711.28 423.56 710.65 423.88C708.57 424.92 706.7 426.39 704.75 427.69V427.68ZM620.13 422.76C615.47 423.24 611.96 423.61 608.17 424C610.55 428.06 612.67 427.84 620.13 422.76ZM510.62 493.13C510.3 492.67 509.97 492.22 509.65 491.76C508.51 492.75 507.37 493.74 506.23 494.73C507.72 495.78 505.22 500.59 509.72 498.73C510.04 496.77 510.33 494.94 510.62 493.12V493.13ZM547.93 478.67C547.43 478.04 546.93 477.41 546.43 476.78C544.91 477.73 543.39 478.67 541.88 479.62C542.68 480.46 544.04 482.12 544.2 482.01C545.57 481.07 546.72 479.83 547.93 478.67ZM626.43 459.73C626.28 459.08 626.12 458.43 625.97 457.77C622.6 458.97 619.23 460.17 615.87 461.37C616.06 461.96 616.25 462.54 616.45 463.13C619.78 462 623.11 460.86 626.44 459.73H626.43ZM463.2 463.64C464.47 461.96 465.28 460.89 466.09 459.82C465.07 459.3 463.99 458.27 463.06 458.39C462.1 458.52 461.28 459.77 460.41 460.52C461.19 461.39 461.97 462.26 463.2 463.63V463.64ZM722.63 286.5C722.51 285.66 722.38 284.83 722.26 283.99C720.28 284.27 718.29 284.5 716.35 284.95C716.19 284.99 716.41 286.61 716.45 287.49C718.51 287.16 720.57 286.82 722.63 286.49V286.5Z" fill="#FDC003"/>
<path d="M148.45 451.05C148.01 453.15 147.8 455.33 147.04 457.31C146.67 458.28 145.4 459.14 144.35 459.57C142.17 460.46 139.69 460.71 137.65 461.81C131.18 465.3 124.86 469.06 119.05 472.4C118.38 470.82 117.67 469.12 117.1 467.77C124.52 463.56 134.29 457.97 144.12 452.5C145.44 451.76 147.1 451.62 148.6 451.2L148.46 451.05H148.45Z" fill="#FDC003"/>
<path d="M373.51 553.07C373.51 555.18 373.02 556.19 370.47 557.06C366.35 558.46 362.73 561.29 358.89 563.52C353.72 566.52 348.58 569.56 343.39 572.52C339.14 574.93 334.83 577.24 330.55 579.6L329.85 578.22C334.26 574.87 338.49 571.26 343.13 568.27C346.12 566.35 349.82 565.54 352.97 563.83C353.91 563.32 354.09 561.41 354.62 560.14L354.47 560.25C356.15 560.15 358.69 560.71 359.38 559.83C363.08 555.07 368.21 553.97 373.64 553.27L373.51 553.09V553.07Z" fill="#FDC003"/>
<path d="M156.28 398.78C154.02 401.01 152.11 403.86 149.44 405.35C141.97 409.52 134.13 413.04 126.55 417.02C124.35 418.18 122.51 420.02 120.06 420.92C130.88 411.47 143.5 404.97 156.41 398.94C156.41 398.93 156.28 398.78 156.28 398.78Z" fill="#FDC003"/>
<path d="M380.49 571.82C378.22 573.46 375.83 574.97 373.73 576.8C372.94 577.49 372.8 578.93 372.72 579.11C367.71 581.61 363.06 584.03 358.3 586.24C356.4 587.12 354.27 587.52 352.25 588.14C352 587.56 351.74 586.97 351.49 586.39C356.2 583.41 360.81 580.28 365.64 577.51C370.22 574.88 375.02 572.64 379.72 570.22L380.49 571.82Z" fill="#FDC003"/>
<path d="M497.63 516.13C490.49 519.21 483.33 522.26 476.22 525.41C474.69 526.09 473.43 527.4 471.89 528.02C470.69 528.5 469.24 528.36 467.91 528.49C468.35 527.08 468.39 524.86 469.3 524.41C472.25 522.97 475.58 522.32 478.67 521.1C484.1 518.96 489.45 516.6 494.86 514.4C495.49 514.14 496.29 514.3 497.01 514.26C497.22 514.88 497.42 515.49 497.63 516.11V516.13Z" fill="#FDC003"/>
<path d="M354.62 560.13C353.45 559.43 352.27 558.73 351.1 558.04C352.22 557.04 353.19 555.78 354.48 555.09C357.23 553.61 360.5 552.86 362.88 550.96C364.76 549.46 365.62 546.68 367.03 544.33L368.12 546.09C371.37 545.78 373.97 545.53 376.57 545.28L376.52 545.13C375.76 546.08 375.2 547.4 374.22 547.9C370.23 549.92 365.93 551.36 362.12 553.64C359.28 555.34 357.01 558.01 354.48 560.25L354.63 560.14L354.62 560.13Z" fill="#FDC003"/>
<path d="M409.86 542.35C403.2 546.28 396.53 550.2 388.81 554.76C388.81 552.15 388.64 550.58 388.84 550.53C391.73 549.82 391.74 544.95 396.29 546.01C398.3 546.48 401.03 543.81 403.45 542.6C405.17 541.73 406.92 540.9 408.65 540.06C409.05 540.83 409.46 541.59 409.86 542.36V542.35Z" fill="#FDC003"/>
<path d="M376.56 545.27C378.32 543.57 380.06 541.84 381.85 540.17C383.82 538.33 385.15 538.07 385.6 541.44C385.8 542.97 386.89 544.38 387.16 544.97C385.27 546.74 383.54 548.45 381.7 550.04C379.36 552.06 377.56 555.66 373.51 553.08L373.64 553.26C375.7 551.04 377.75 548.82 380.2 546.18C379.06 545.86 377.79 545.49 376.51 545.12L376.56 545.27Z" fill="#FDC003"/>
<path d="M342.82 422.45C340.19 426.55 323.88 435.62 319.45 434.39C327.9 430.27 333.27 423.32 342.82 422.45Z" fill="#FDC003"/>
<path d="M223.22 187.62C220.39 191.92 214.22 189.48 212.69 194.73C212.64 194.89 210.43 194.41 209.23 194.23C209.52 193.06 209.43 191.44 210.18 190.82C212.49 188.88 215.14 187.35 217.63 185.62C220.82 183.4 222.62 184.2 223.21 187.63L223.22 187.62Z" fill="#FDC003"/>
<path d="M108.38 428.86C100.62 434.77 93.8799 439.41 85.1899 439.62C93.6299 438.5 97.9699 428.39 108.38 428.86Z" fill="#FDC003"/>
<path d="M116.13 462.69C116.09 461.94 115.78 460.67 116.06 460.52C120.41 458.15 124.84 455.93 130.09 453.24C130.09 455.46 130.38 457.03 130.05 457.17C125.43 459.21 120.72 461.06 116.03 462.96C116.1 462.87 116.13 462.78 116.13 462.69Z" fill="#FDC003"/>
<path d="M72.1999 445.82C73.2999 451.5 67.6499 450.93 65.1199 452.68C61.8799 454.92 57.4399 455.4 52.9399 455.64C59.3999 452.41 65.8599 449.18 72.3199 445.96L72.2099 445.83L72.1999 445.82Z" fill="#FDC003"/>
<path d="M186.9 199.51C195.13 195.22 201.53 191.88 209.09 187.93C202.7 193.01 197.51 197.31 192.05 201.25C191.35 201.75 189.29 200.36 186.9 199.51Z" fill="#FDC003"/>
<path d="M177.46 204.09C175.73 211.99 168.97 212.14 162.96 213.48L177.46 204.09Z" fill="#FDC003"/>
<path d="M454.57 516.8C455.77 516.98 456.98 517.16 458.17 517.33C460.04 520.84 458.31 522.47 455.02 523.24C453.31 523.64 451.58 524 448.78 523.61C450.71 521.34 452.64 519.07 454.57 516.8Z" fill="#FDC003"/>
<path d="M116.13 462.69C116.13 462.78 116.09 462.88 116.03 462.96C115 464.42 114.25 466.7 112.88 467.15C110.37 467.99 107.5 467.76 104.38 467.2C106.9 465.46 109.3 463.49 112 462.12C113.01 461.6 114.73 462.46 116.13 462.69Z" fill="#FDC003"/>
<path d="M62.7298 504.31C59.7898 504.75 57.2398 505.12 54.6898 505.5C54.2998 505.14 53.9198 504.79 53.5298 504.43L57.2098 497.68C59.2298 500.11 60.5798 501.73 62.7198 504.31H62.7298Z" fill="#FDC003"/>
<path d="M202.86 198.78C202.15 200.39 201.82 202.44 200.63 203.51C198.82 205.12 196.43 206.11 194.21 207.21C193.9 207.36 193.17 206.67 191.8 205.9C195.19 202.83 198.17 200.13 201.15 197.43L202.87 198.78H202.86Z" fill="#FDC003"/>
<path d="M290.59 538.29C288.4 540.18 286.41 542.38 283.99 543.89C279.58 546.65 279.91 542.29 278.93 540.74C283 539.48 286.87 538.29 290.74 537.1L290.59 538.29Z" fill="#FDC003"/>
<path d="M430.65 157.17C424.87 159.26 419.08 161.35 413.3 163.44L412.84 161.85C418.64 159.76 424.01 156.28 430.75 157.28L430.65 157.17Z" fill="#FDC003"/>
<path d="M438.46 542.23C438.03 541.95 437.06 541.31 436.09 540.68C437.12 539.97 438.09 539.14 439.2 538.61C439.86 538.3 440.83 538.69 441.52 538.41C442.57 537.98 443.49 537.24 444.47 536.63C444.7 537.34 445.35 538.38 445.1 538.69C444.14 539.86 442.97 540.92 441.71 541.77C441.11 542.17 440.14 542.02 438.47 542.23H438.46Z" fill="#FDC003"/>
<path d="M226.81 182.68C229.99 180.22 232.69 178.03 235.52 176.03C236 175.69 237.24 175.86 237.72 176.27C238.15 176.64 238.36 178.14 238.1 178.33C234.81 180.64 232.25 184.96 226.82 182.69L226.81 182.68Z" fill="#FDC003"/>
<path d="M355.9 500.79C359.25 499.13 362.6 497.46 366.46 495.55C367.4 496.29 368.74 497.34 369.98 498.32C365.32 499.38 360.81 500.4 356.29 501.43L355.9 500.79Z" fill="#FDC003"/>
<path d="M290.62 469.36C293.09 467.56 295.51 465.68 298.07 464.04C298.67 463.65 299.89 463.84 300.62 464.2C300.93 464.35 300.97 466.12 300.67 466.28C297.65 467.89 294.52 469.33 291.43 470.81L290.62 469.37V469.36Z" fill="#FDC003"/>
<path d="M266.56 431.34C268.32 429.18 270.09 427.01 272.75 423.74C273.08 426.43 273.98 428.75 273.32 429.34C271.66 430.83 269.3 431.54 267.22 432.57C267 432.16 266.78 431.75 266.55 431.34H266.56Z" fill="#FDC003"/>
<path d="M190.26 244.71C186.77 247.29 183.29 249.87 179.8 252.46L178.67 250.92L189.26 243.37L190.26 244.71Z" fill="#FDC003"/>
<path d="M296.36 527.39C295.35 528.05 294.41 528.85 293.32 529.34C291.81 530.02 290.2 530.48 288.64 531.03C288.253 529.67 290.423 527.98 295.15 525.96L296.36 527.39Z" fill="#FDC003"/>
<path d="M421.79 382.8C425.75 381.14 429.72 379.48 433.68 377.83C433.93 378.49 434.17 379.15 434.42 379.82C430.38 381.29 426.34 382.76 422.3 384.23C422.13 383.76 421.96 383.28 421.79 382.81V382.8Z" fill="#FDC003"/>
<path d="M297.36 451.26C299.54 449.35 301.96 447.23 305.05 444.51C304.19 448.18 298.14 450.43 304.63 454.13C304.13 454.32 303.63 454.52 303.13 454.71C301.08 453.49 299.03 452.26 297.36 451.26Z" fill="#FDC003"/>
<path d="M165.39 454.23C162.15 456.15 158.91 458.08 155.67 460C155.39 459.58 155.11 459.17 154.83 458.75C157.97 456.72 161.1 454.7 164.24 452.67C164.62 453.19 165 453.71 165.39 454.23Z" fill="#FDC003"/>
<path d="M72.3102 445.95C75.9902 445.05 78.7902 441.31 82.7202 441.23L83.3902 443.62C79.6602 444.36 75.9402 445.1 72.2002 445.83L72.3002 445.95H72.3102Z" fill="#FDC003"/>
<path d="M338.24 560.93C340.15 557.46 342.57 555.45 345.77 557.15L346.18 558.98C343.53 559.63 340.89 560.28 338.24 560.94V560.93Z" fill="#FDC003"/>
<path d="M279.36 476.78C282.28 474.62 284.82 472.75 287.47 470.79C287.92 475.1 285.24 477.17 279.36 476.78Z" fill="#FDC003"/>
<path d="M440.51 125.48C436.72 127.4 434.05 128.75 431.38 130.1C430.03 127.16 432.48 125.61 440.51 125.48Z" fill="#FDC003"/>
<path d="M225.58 446.59C228.13 444.8 230.67 443.01 233.22 441.23L234.32 442.83C231.79 444.61 229.25 446.39 226.72 448.17C226.34 447.65 225.96 447.12 225.58 446.6V446.59Z" fill="#FDC003"/>
<path d="M365.13 152.71C364.983 154.757 361.743 156.663 355.41 158.43C357.08 157.61 358.8 156.88 360.4 155.95C361.97 155.03 363.42 153.9 365.14 152.71H365.13Z" fill="#FDC003"/>
<path d="M347.72 419.59C349.81 418.34 351.89 417.08 354.54 415.49C354.414 418.35 352.14 419.717 347.72 419.59Z" fill="#FDC003"/>
<path d="M292.53 487.94C290.43 489.28 288.33 490.61 286.24 491.95L285.17 490.21C287.24 488.75 289.3 487.29 291.37 485.83C291.76 486.54 292.15 487.24 292.53 487.95V487.94Z" fill="#FDC003"/>
<path d="M187.29 195.76C185.13 197.68 182.96 199.6 180.8 201.52L179.38 199.85C181.6 198.01 183.81 196.17 186.03 194.34C186.45 194.81 186.87 195.29 187.29 195.76Z" fill="#FDC003"/>
<path d="M433.78 545.65C432.51 546.09 431.24 546.84 429.96 546.86C429.29 546.86 427.98 545.52 428.06 544.91C428.19 543.86 429.16 542.92 429.79 541.93C430.65 542.5 431.51 543.06 432.38 543.62C432.85 544.29 433.32 544.97 433.8 545.64L433.78 545.65Z" fill="#FDC003"/>
</g>
<defs>
<clipPath id="clip0_362_14634">
<rect width="978.66" height="588.14" fill="white"/>
</clipPath>
</defs>
</svg>
