<svg width="416" height="501" viewBox="0 0 416 501" fill="none" xmlns="http://www.w3.org/2000/svg">
<g clip-path="url(#clip0_362_14752)">
<path d="M-74.3638 416.753C-74.9511 416.395 -75.5384 416.029 -76.1427 415.68C-76.9343 415.211 -77.7259 414.76 -78.526 414.3C-77.9472 413.465 -77.4961 412.503 -76.7726 411.83C-75.5214 410.663 -74.1595 409.598 -72.7381 408.635C-71.6486 407.903 -70.4569 407.051 -69.2227 406.855C-65.0265 406.19 -62.1581 402.562 -62.3113 397.417C-63.1199 397.621 -64.1158 397.561 -64.5754 398.03C-66.7118 400.202 -68.9759 401.088 -72.2188 401.028C-74.4744 400.986 -76.6875 403.26 -79.0622 404.121C-85.1906 406.352 -90.6125 409.402 -93.2426 416.029C-96.8345 413.959 -99.2263 413.193 -102.112 416.745C-103.857 418.891 -107.976 419.053 -110.972 420.263C-112.164 420.74 -113.364 421.464 -114.241 422.375C-115.305 423.483 -115.773 425.672 -116.948 426.064C-121.935 427.733 -125.246 427.342 -127.468 425.587C-126.574 428.21 -124.506 431.2 -125.068 433.551C-125.587 435.724 -128.932 437.223 -131.264 439.208C-133.971 437.163 -136.286 440.375 -138.891 441.601C-142.712 443.416 -146.381 445.588 -150.049 447.701C-155.292 450.716 -160.485 453.825 -165.855 456.994C-167.328 455.06 -166.834 453.757 -164.613 452.658C-158.561 449.677 -152.305 447.002 -146.636 443.399C-143.095 441.15 -140.474 437.461 -137.435 434.42C-135.29 433.432 -133.137 432.436 -130.992 431.439L-131.009 430.119C-132.651 429.837 -134.49 428.943 -135.877 429.403C-138.269 430.204 -138.473 432.35 -137.316 434.531C-141.061 432.623 -143.546 433.569 -145.538 437.325C-150.662 436.925 -155.573 436.073 -159.191 441.09C-159.548 440.903 -159.906 440.715 -160.263 440.537C-160.042 439.565 -160.119 437.998 -159.557 437.725C-155.148 435.545 -150.62 433.611 -145.521 431.337C-146.806 430.28 -148.253 429.088 -149.956 427.699C-149.181 427.043 -148.551 426.277 -147.751 425.851C-140.593 422.035 -133.418 418.244 -126.208 414.513C-125.11 413.942 -123.723 413.9 -122.65 413.303C-120.922 412.341 -119.331 411.131 -117.697 409.998C-116.718 409.317 -115.85 408.141 -114.811 407.979C-112.956 407.69 -111.364 407.894 -110.113 405.713C-109.593 404.802 -106.759 405.202 -104.18 404.921C-104.18 404.904 -103.882 402.911 -103.082 402.681C-97.2686 401.011 -99.371 397.536 -100.767 394.214C-105.236 393.217 -106.538 395.79 -106.793 399.487C-111.858 398.268 -112.334 398.507 -113.322 402.792C-116.845 401.122 -122.293 402.655 -125.544 404.742C-128.362 406.548 -132.047 406.991 -135.35 408.039C-135.562 407.519 -135.775 407 -135.988 406.48C-131.111 403.865 -126.225 401.258 -121.059 398.49C-122.318 397.221 -123.655 395.875 -125 394.52V398.498C-127.553 395.5 -129.451 397.05 -132.583 398.609C-138.141 401.369 -142.695 405.918 -149.198 407.23C-153.045 408.005 -156.459 411.02 -160.016 413.116C-162.298 414.462 -164.349 415.135 -166.119 412.06C-159.77 408.405 -153.352 405.109 -147.377 401.165C-142.508 397.953 -138.056 394.077 -133.673 390.219C-132.83 389.477 -133.069 387.424 -132.958 385.968C-132.847 384.537 -132.932 383.089 -132.932 380.559C-135.375 382.79 -137.239 384.486 -139.257 386.326C-140.703 386.121 -142.653 385.84 -144.38 385.593C-146.721 382.552 -137.818 384.988 -142.253 380.84C-140.193 380.635 -138.116 380.525 -136.073 380.209C-133.613 379.826 -131.315 379.085 -130.966 383.012C-130.881 384 -128.719 385.073 -127.315 385.576C-126.566 385.849 -125.408 385.014 -124.438 384.682C-124.923 383.438 -125.348 382.152 -125.927 380.951C-126.285 380.192 -127.059 379.613 -127.323 378.838C-127.664 377.816 -127.689 376.691 -127.868 375.507C-124.838 376.759 -122.795 377.594 -121.442 378.156C-121.74 379.383 -122.063 380.738 -122.386 382.092C-121.45 382.22 -120.335 382.739 -119.603 382.416C-116.879 381.189 -114.275 379.681 -111.628 378.284C-108.121 376.436 -104.614 374.587 -100.597 372.466C-102.452 371.904 -104.308 370.652 -105.414 371.129C-109.576 372.952 -113.5 375.345 -117.509 377.518C-117.875 377.356 -118.25 377.185 -118.616 377.024C-117.901 375.592 -117.552 373.42 -116.403 372.85C-111.832 370.584 -108.351 366.052 -102.665 366.043C-102.035 366.043 -101.32 365.737 -100.784 365.37C-97.2175 362.892 -93.6426 360.413 -90.1869 357.781C-89.3102 357.108 -88.8336 355.898 -88.1782 354.944C-87.2504 355.566 -86.0417 356.903 -85.463 356.673C-82.4328 355.455 -79.5219 353.913 -76.6534 352.329C-73.6488 350.676 -70.7463 348.853 -67.5034 346.928C-67.2651 345.642 -66.9672 343.964 -66.4224 341.016C-68.5588 342.379 -70.3123 342.89 -70.9846 344.032C-73.4871 348.291 -78.4664 348.555 -82.1009 350.889C-84.1266 352.192 -86.5865 352.908 -88.1271 355.063C-90.7912 355.234 -93.4469 355.404 -95.6769 355.549C-97.1324 356.665 -98.4262 357.729 -99.8051 358.692C-102.622 360.651 -105.406 362.679 -108.342 364.45C-111.143 366.137 -114.283 368.991 -116.965 368.667C-120.02 368.301 -121.689 369.229 -123.731 370.66C-124.421 371.137 -125.195 371.504 -125.97 371.836C-131.588 374.23 -137.222 376.572 -142.806 379.051C-143.061 379.162 -142.823 380.38 -142.806 381.087C-146.389 381.819 -149.973 382.552 -153.837 383.336C-155.233 380.703 -152.73 380.124 -151.028 379.17C-144.9 375.737 -138.78 372.304 -132.617 368.94C-130.822 367.96 -128.889 367.227 -127.034 366.341C-121.893 363.897 -116.701 361.571 -111.653 358.948C-105.95 355.983 -100.529 352.465 -94.7407 349.697C-87.9824 346.468 -80.9603 343.81 -74.0829 340.837C-73.5722 340.616 -73.3509 339.773 -72.9253 339.279C-71.7167 337.865 -71.223 335.505 -68.2439 336.757C-67.1544 337.217 -65.1116 336.408 -63.9711 335.556C-60.6685 333.094 -55.2807 334.551 -53.2294 329.346C-52.7187 328.06 -49.2119 327.838 -47.0329 327.361C-43.3984 326.561 -39.6703 326.527 -36.8615 323.17C-35.6273 321.705 -32.8355 321.586 -30.7757 320.794C-23.3025 317.932 -15.8463 315.035 -7.87936 311.96C-7.85382 311.577 -7.77722 310.504 -7.71765 309.771C-3.67462 308.612 0.206696 307.505 4.08801 306.398C4.01138 305.716 3.93478 305.043 3.85818 304.362C2.78574 304.447 1.65369 304.353 0.640808 304.643C-4.77261 306.202 -10.203 307.709 -15.5313 309.524C-19.2594 310.793 -22.8173 312.556 -26.4773 314.03C-27.5753 314.473 -28.7499 314.695 -30.1458 315.086C-29.4649 311.355 -29.4734 311.381 -26.7497 311.594C-26.0602 311.645 -25.2686 311.73 -24.6898 311.441C-20.8766 309.575 -16.9528 307.871 -13.3524 305.639C-7.58145 302.07 -1.64883 299.089 5.07535 297.7C7.09262 297.283 8.80344 295.537 10.7952 294.813C19.8771 291.499 29.0186 288.373 38.109 285.076C40.654 284.156 43.0458 282.802 45.5738 281.814C50.9021 279.735 56.2388 277.691 61.6267 275.783C64.3164 274.837 67.1933 274.411 69.8404 273.38C71.0491 272.912 71.9088 271.532 72.9217 270.561L72.2833 269.189C67.6359 270.297 62.7672 270.867 58.4093 272.682C54.3407 274.369 48.706 272.426 45.8206 277.81C45.1822 277.307 44.3651 276.66 44.4587 276.728C39.5475 278.636 35.2661 280.153 31.1125 281.958C24.184 284.965 16.9831 286.839 9.67163 288.714C2.91339 290.443 -3.27457 294.336 -9.82001 297.027C-14.0248 298.757 -18.4338 300 -22.7151 301.559C-24.2728 302.121 -25.7283 302.956 -27.5583 303.817L-28.1115 301.125C-34.0101 301.193 -38.4362 304.225 -43.0835 307.829C-48.216 311.798 -53.2294 316.381 -59.911 318.017C-61.6814 318.451 -63.3582 319.303 -65.018 320.104C-67.5545 321.322 -69.6653 323.409 -72.1763 319.363C-73.4105 317.369 -79.1048 321.186 -79.4112 324.653C-76.9513 323.809 -74.6361 323.008 -72.321 322.208C-72.1763 322.787 -72.0231 323.375 -71.8784 323.954C-76.679 323.698 -80.1432 329.474 -85.1651 326.646C-87.6164 327.217 -89.7273 327.66 -91.8041 328.213C-92.5787 328.418 -93.2766 328.895 -94.0086 329.244L-92.2638 332.072C-93.6426 332.174 -95.5067 332.813 -95.9919 332.259C-98.7496 329.074 -99.9327 331.288 -100.886 333.563C-103.031 333.231 -104.81 332.949 -106.589 332.677C-106.708 332.328 -106.827 331.978 -106.946 331.638C-75.7256 318.179 -47.5606 298.433 -14.4759 288.816C-14.7568 288.151 -15.0291 287.495 -15.31 286.831C-20.5021 288.662 -25.7453 290.341 -30.8608 292.359C-37.985 295.179 -44.9986 298.28 -52.0803 301.21C-62.8901 305.691 -73.7935 309.941 -84.5011 314.643C-92.6212 318.204 -100.486 322.327 -108.478 326.16C-112.189 327.941 -115.994 329.542 -119.663 331.408C-122.08 332.634 -124.148 333.179 -125.978 328.401C-129.936 342.03 -143.027 340.42 -150.866 348.189C-151.522 344.534 -151.913 342.337 -152.305 340.13C-154.501 343.597 -150.381 348.351 -156.51 351.349C-155.701 349.1 -155.182 347.635 -154.399 345.454C-156.995 346.502 -159.182 347.38 -161.676 348.385C-162.068 347.644 -162.536 346.775 -162.995 345.906C-165.387 347.218 -167.524 348.385 -170.256 349.892C-168.783 350.966 -167.745 351.724 -166.204 352.848C-167.473 353.624 -168.485 354.484 -169.652 354.893C-170.699 355.259 -171.924 355.131 -173.073 355.216C-172.511 356.315 -171.95 357.414 -171.286 358.709C-173.644 360.021 -176.078 361.367 -178.674 362.815C-178.674 361.333 -178.359 359.757 -178.759 358.394C-179.21 356.844 -180.3 355.489 -181.117 354.041C-182.955 355.097 -185.185 355.804 -186.522 357.312C-187.764 358.709 -188.215 359.799 -190.505 360.753C-194.727 362.517 -199.859 364.944 -200.676 370.711C-206.507 368.607 -209.299 374.272 -214.729 375.26C-213.061 373.071 -211.759 371.367 -210.456 369.655L-211.061 369.221C-217.598 372.798 -224.22 376.214 -230.62 380.022C-233.097 381.487 -235.064 383.813 -237.251 385.746C-239.2 387.467 -240.979 389.469 -243.158 390.823C-244.307 391.539 -246.154 391.138 -247.856 390.806C-251.329 391.931 -247.525 396.88 -252.197 398.319C-256.13 399.529 -259.586 402.323 -264.624 405.194C-266.301 409.036 -282.473 415.901 -286.074 413.176C-279.281 408.167 -272.421 403.098 -265.135 397.723V395.006C-269.05 396.846 -273.025 398.643 -276.924 400.585C-278.141 401.19 -279.341 402.034 -280.235 403.047C-283.92 407.255 -283.869 407.298 -289.342 403.431C-287.674 402.528 -286.227 401.846 -284.891 400.986C-280.677 398.251 -276.456 395.525 -272.327 392.655C-266.871 388.864 -261.628 384.741 -256.045 381.146C-251.636 378.301 -246.741 376.223 -242.307 373.437C-239.898 371.921 -236.127 371.24 -236.689 366.103C-248.946 372.262 -260.888 378.259 -273.238 384.46C-272.651 383.387 -272.37 382.066 -271.57 381.538C-267.399 378.804 -263.143 376.172 -258.811 373.693C-250.316 368.82 -241.694 364.169 -233.242 359.22C-230.757 357.763 -228.654 355.642 -226.382 353.819L-227.497 352.116C-230.357 353.666 -233.225 355.208 -236.068 356.792C-236.545 357.056 -236.876 357.857 -237.302 357.874C-246.061 358.249 -250.274 367.909 -259.126 368.48C-261.33 368.624 -263.211 371.64 -265.527 372.722C-267.876 373.821 -270.591 374.144 -273.128 374.86C-274.047 375.115 -275.4 375.277 -275.741 375.916C-278.932 382.007 -285.699 381.496 -290.687 384.23L-290.568 384.358C-289.751 383.285 -289.146 381.896 -288.091 381.181C-284.644 378.855 -281.001 376.811 -277.494 374.579C-276.898 374.204 -276.583 373.386 -276.413 372.407C-286.218 375.976 -293.607 384.077 -303.906 387.535C-303.506 384.98 -303.216 383.199 -302.927 381.428C-301.267 381.658 -299.216 382.612 -298.058 381.964C-292.236 378.702 -286.601 375.09 -281.018 371.418C-279.664 370.533 -278.754 368.965 -277.639 367.713C-277.954 367.321 -278.269 366.938 -278.584 366.546C-280.116 367.066 -281.886 367.27 -283.137 368.181C-284.916 369.485 -286.091 371.665 -287.929 372.832C-292.789 375.908 -297.862 378.633 -302.85 381.504C-307.591 383.259 -312.392 384.878 -317.056 386.82C-319.176 387.697 -320.988 389.281 -323.023 390.389C-327.44 392.8 -331.866 395.21 -336.378 397.425C-341.987 400.176 -347.698 402.741 -353.367 405.364C-353.98 405.645 -355.035 405.586 -355.248 406.003C-357.699 410.85 -363.062 410.833 -366.994 413.167C-367.454 413.44 -368.271 413.482 -368.424 413.84C-370.696 419.198 -376.663 418.619 -380.485 421.447C-382.077 422.622 -383.447 424.156 -385.158 425.101C-390.333 427.955 -395.814 430.297 -400.811 433.424C-404.649 435.826 -407.926 439.114 -411.476 441.985C-412.948 443.177 -414.463 444.302 -415.961 445.46C-416.327 445.111 -416.693 444.762 -417.068 444.412C-415.927 443.109 -414.94 441.618 -413.612 440.545C-408.573 436.448 -403.458 432.453 -398.317 428.483C-394.733 425.715 -391.031 423.099 -387.447 420.322C-385.243 418.619 -383.106 416.804 -381.106 414.871C-380.842 414.615 -381.574 413.337 -381.574 413.354C-379.029 410.765 -376.961 408.303 -374.518 406.284C-372.092 404.282 -369.496 401.923 -366.611 401.19C-363.13 400.313 -361.938 399.274 -363.742 395.807C-359.129 394.997 -354.737 394.29 -350.379 393.43C-348.677 393.089 -346.915 392.638 -345.425 391.803C-341.45 389.588 -337.416 387.407 -333.781 384.707C-330.888 382.56 -328.76 379.409 -325.908 377.194C-323.065 374.988 -319.695 373.48 -316.648 371.512C-315.303 370.643 -314.332 369.161 -312.954 368.377C-307.37 365.209 -301.693 362.21 -296.254 358.666C-302.008 359.263 -307.2 361.247 -311.6 365.234L-312.324 364.152C-310.494 362.977 -308.689 361.767 -306.842 360.617C-303.727 358.683 -300.62 356.741 -297.454 354.884C-291.947 351.664 -286.363 348.555 -280.865 345.31C-275.834 342.345 -270.974 339.066 -265.833 336.314C-262.258 334.406 -258.283 333.282 -254.589 331.578C-252.691 330.701 -251.133 329.074 -249.227 328.23C-243.626 325.768 -238.085 323.247 -233.54 319.047C-232.774 318.34 -232.493 317.097 -231.965 316.057C-235.481 317.395 -238.298 318.196 -240.843 319.507C-244.392 321.33 -247.627 323.792 -251.219 325.53C-257.092 328.367 -262.667 331.723 -269.229 333.256C-272.94 334.125 -276.073 337.285 -279.613 339.117C-280.856 339.764 -282.558 339.534 -284.048 339.713L-283.946 339.841C-279.239 337.081 -274.498 334.381 -269.842 331.535C-264.556 328.298 -259.373 324.891 -254.087 321.646C-252.359 320.589 -250.47 319.789 -248.614 318.945C-243.933 316.816 -240.715 312.113 -235.029 311.526C-233.974 311.415 -233.191 308.612 -232.272 307.071C-228.322 309.141 -225.471 305.512 -222.015 304.984C-221.513 304.907 -221.283 303.024 -220.696 301.27C-225.241 303.578 -228.739 305.367 -232.246 307.147C-234.4 308.152 -236.562 309.132 -238.698 310.171C-241.983 311.773 -245.286 313.34 -248.503 315.061C-251.746 316.79 -254.768 319.013 -258.139 320.385C-260.079 321.177 -262.675 321.245 -264.718 320.691C-268.88 319.55 -267.518 322.659 -268.233 323.128C-272.506 323.843 -276.771 324.559 -280.771 325.223C-280.073 324.312 -279.103 323.034 -278.124 321.765L-278.669 321.015C-288.525 324.465 -298.39 327.915 -307.327 331.05C-306.868 329.789 -306.093 327.498 -305.165 325.274C-304.919 324.687 -304.221 323.928 -303.667 323.877C-298.118 323.307 -296.756 316.918 -291.879 315.436C-291.598 315.35 -291.215 314.669 -291.308 314.405C-292.943 309.49 -288.389 309.004 -286.031 306.96C-284.414 305.554 -282.797 304.14 -280.975 302.547C-278.805 302.351 -276.2 302.113 -274.149 301.926C-273.391 299.821 -272.847 298.305 -272.004 295.963C-274.787 296.9 -277.12 297.675 -279.511 298.476C-280.192 296.917 -279.996 295.375 -283.614 296.653C-289.887 298.884 -293.973 304.081 -299.837 306.466C-302.654 307.607 -305.812 307.922 -309.353 308.74C-307.974 307.037 -306.893 305.682 -305.804 304.336L-306.417 303.655C-309.464 305.222 -312.511 306.798 -315.703 308.442C-318.273 306.636 -317.882 305.154 -315.303 303.501C-310 300.111 -304.663 296.746 -299.616 293.007C-296.075 290.383 -293.002 287.121 -289.674 284.207C-288.542 283.211 -287.257 282.393 -286.023 281.515C-285.359 281.038 -284.057 280.604 -284.065 280.161C-284.159 273.789 -278.107 274.718 -274.864 272.52C-269.161 268.644 -263.109 265.262 -257.041 261.957C-251.193 258.771 -245.116 256.02 -239.209 252.936C-234.229 250.338 -229.403 247.459 -224.424 244.852C-220.577 242.834 -216.483 241.275 -212.737 239.094C-207.579 236.095 -202.566 232.807 -197.629 229.443C-192.931 226.24 -188.411 222.781 -183.219 219.008C-183.645 217.96 -184.232 216.478 -184.811 215.021C-183.372 216.06 -181.942 217.082 -180.938 217.807C-178.572 216.001 -176.35 214.305 -174.129 212.61C-174.401 212.218 -174.673 211.827 -174.937 211.435L-184.802 215.064C-188.743 217.525 -192.676 219.987 -196.616 222.449C-196.889 222.049 -197.161 221.657 -197.434 221.256C-195.212 219.306 -193.22 216.989 -190.735 215.472C-185.364 212.193 -179.636 209.476 -174.29 206.162C-173.082 205.412 -172.801 203.163 -171.924 201.23C-168.145 205.412 -164.477 201.426 -160.859 199.705C-159.727 199.16 -159.633 196.425 -158.74 193.717C-157.293 192.933 -155.122 191.527 -152.186 194.066C-151.326 194.807 -148.262 194.091 -147.019 193.061C-144.61 191.067 -142.78 188.384 -140.959 186.28C-138.976 186.646 -136.992 187.004 -134.618 187.438V183.92C-128.906 180.913 -123.604 177.813 -118.028 175.291C-113.56 173.264 -108.785 172.02 -105.414 168.008C-104.699 167.156 -102.963 167.165 -101.49 166.713C-101.065 159.924 -94.5619 161.262 -90.6636 159.081C-87.9058 157.539 -84.6543 156.892 -81.6072 155.886C-79.8282 155.299 -77.845 155.086 -76.2874 154.14C-74.8234 153.254 -73.7424 151.67 -72.5934 150.315C-71.5549 149.089 -70.5676 146.584 -69.7079 146.652C-62.9241 147.155 -59.2982 140.758 -53.2634 139.574C-48.9225 138.722 -44.8199 136.652 -40.6236 135.11C-38.8447 134.463 -37.0828 133.773 -35.057 133.015C-37.253 129.948 -39.5001 132.58 -41.5769 132.785C-44.5645 133.074 -47.5436 133.526 -50.5227 133.909L-50.4376 134.003C-49.3906 132.895 -48.5309 131.234 -47.2542 130.791C-43.0239 129.309 -38.6319 128.304 -34.325 127.052C-32.7504 126.592 -31.2523 125.851 -29.6777 125.399C-28.818 125.152 -27.8562 125.288 -26.9625 125.144C-25.9581 124.973 -24.8601 124.88 -24.0174 124.385C-22.0172 123.218 -20.2979 121.464 -18.1955 120.612C-12.4586 118.303 -6.56006 116.378 -0.772125 114.172C-0.346558 114.01 -0.303986 112.835 -0.184845 112.443C-5.58972 113.371 -10.901 114.087 -16.1016 115.288C-18.0848 115.748 -19.8127 117.341 -21.4639 118.866C-26.4347 118.38 -31.2693 117.877 -36.172 121.31C-38.6149 123.023 -42.7175 122.35 -46.0711 122.75L-46.6073 121.66C-45.3987 120.987 -44.2666 119.981 -42.9729 119.7C-37.0147 118.423 -30.8948 117.75 -25.0644 116.072C-20.4085 114.734 -16.1782 112 -11.5734 110.381C-7.84531 109.069 -3.81082 108.643 0.0109253 107.57C4.24121 106.378 8.3949 104.895 12.5741 103.541C12.4379 102.86 12.3102 102.178 12.174 101.488C4.2327 102.434 -3.70016 103.379 -11.6415 104.325C-11.7351 103.95 -11.8203 103.575 -11.9139 103.209C-4.3385 100.628 3.23685 98.0551 11.7995 95.1419C3.63687 93.566 -2.98517 95.7296 -9.61575 97.6122C-14.7227 99.0603 -19.7361 100.909 -24.9112 101.957C-26.0517 102.187 -27.72 99.7759 -29.1414 98.5833C-28.0009 97.8763 -26.9454 96.854 -25.7027 96.5218C-20.766 95.2185 -15.7526 94.2048 -10.8074 92.9271C-9.72638 92.646 -8.73053 91.8112 -7.88788 91.0275C-7.69211 90.8401 -8.3475 89.2386 -8.50922 89.2557C-9.60721 89.3749 -10.6797 89.7497 -12.0245 90.1075C-12.0841 86.8109 -14.2376 86.0698 -17.0124 86.3594C-19.3616 86.6064 -21.6938 87.0068 -24.0259 87.339L-24.1962 86.2572C-22.8088 85.8568 -21.4214 85.4479 -19.6254 84.9198C-19.8893 83.7102 -20.1787 82.4239 -20.6468 80.2773C-17.7869 80.1495 -15.0462 80.0302 -13.1566 79.9536C-9.2923 77.7388 -5.90466 74.3144 -2.35532 74.1355C2.29202 73.9055 5.44135 72.6789 8.55661 68.1641C-11.8883 70.0211 -31.3545 73.0281 -50.4035 79.0506C-44.2241 72.9344 -34.7336 73.5818 -27.8477 68.1727C-36.0018 66.239 -42.3856 72.8152 -49.8928 73.42C-50.063 72.9941 -50.2248 72.5681 -50.395 72.1422C-47.8245 70.9326 -45.3391 69.4504 -42.6494 68.573C-38.1042 67.0908 -33.4654 65.8216 -28.7925 64.7824C-24.8856 63.9135 -20.8426 63.6664 -16.9442 62.789C-14.9951 62.3461 -11.4457 63.462 -12.1437 59.3135C-10.2031 58.8621 -8.31348 58.4276 -5.99829 57.891C-3.64056 61.9287 -0.0827026 58.0784 3.64542 58.845C3.05811 57.4651 2.67505 56.5792 2.11328 55.2588C5.19452 55.2588 7.95227 54.9095 10.5909 55.3355C15.1106 56.0595 19.758 53.5551 20.7708 49.0745C21.0602 47.7967 20.7113 46.0249 19.9878 44.926C18.6089 42.839 19.0515 40.045 21.4603 39.8065C25.6821 39.3976 29.9719 39.3209 34.2107 39.4828C36.3641 39.5679 37.2919 38.9802 38.9347 37.4298C40.8583 35.6239 44.6204 35.7943 47.5569 35.0362C52.2469 33.818 56.9027 32.4381 61.6182 31.3307C63.4142 30.9048 65.3378 31.041 66.8869 30.3425C73.3217 28.8859 80.3863 28.6303 86.0125 25.6489C92.2516 22.3438 98.797 23.0167 105.334 20.802C105.547 20.1716 105.938 19.0387 106.466 17.4968C111.139 21.6453 116.391 19.9672 121.43 20.0949C123.66 20.146 125.873 20.8531 128.103 21.2194C128.843 21.3386 129.745 21.6453 130.316 21.3557C133.695 19.6264 136.674 20.9553 140.044 21.7219C144.7 22.7782 149.671 22.3864 154.506 22.6504C155.544 22.7101 156.583 22.906 158.523 23.153C156.497 24.5756 155.382 25.3678 154.259 26.1515C158.064 26.1771 156.302 35.5643 162.694 31.1773C166.805 36.135 172.729 33.0003 178.883 33.8777C177.777 35.1043 177.155 36.348 176.585 36.3224C173.359 36.1861 170.142 35.7432 166.924 35.411C166.235 35.3428 165.35 35.0106 164.881 35.3088C158.081 39.7213 150.922 40.4964 143.143 38.2817C141.517 37.8217 139.355 39.2613 137.602 40.752C141.015 41.1098 144.428 41.4675 148.539 41.8935C143.628 45.6927 139.423 48.5804 133.303 46.9193C128.315 45.5649 123.081 45.1049 117.957 44.236C117.548 44.1679 117.131 44.0401 116.765 43.8527C114.467 42.6772 110.884 43.0775 109.02 44.7471C107.709 45.9227 105.938 46.8512 105.198 48.3163C103.921 50.8548 108.832 55.9232 111.684 55.7869C114.807 55.6336 117.974 56.1873 121.123 56.3747C122.076 56.4343 123.064 56.4003 124 56.2384C128.852 55.361 133.678 54.3814 138.529 53.5125C143.662 52.6011 148.777 51.4426 153.952 51.0252C157.493 50.7355 161.119 51.5277 164.95 51.8514C164.498 54.9436 164.32 57.0477 169.273 56.0425C177.019 54.4666 185.045 54.3047 192.953 53.4614C199.209 52.797 205.439 51.8174 211.712 51.4C214.062 51.2381 216.47 52.4563 218.888 52.6777C222.326 52.9929 225.816 53.2144 229.246 52.9418C230.506 52.8396 232.489 51.3574 232.677 50.25C233.204 47.2175 234.685 47.2941 236.907 48.0437C238.618 48.6145 240.363 49.3982 242.116 49.4578C243.597 49.5174 245.121 48.6996 246.619 48.2397C247.666 47.9245 248.678 47.3112 249.725 47.26C252.509 47.1237 255.309 47.2089 258.297 47.2089L257.411 50.5907C260.833 50.2585 263.846 49.6878 266.834 49.773C269.115 49.8411 273.32 50.7611 273.311 51.2722C273.277 54.4581 270.519 54.884 267.872 55.0884C267.047 55.1481 266.247 55.4803 265.429 55.6847C265.506 57.1158 265.574 58.4021 265.702 60.8213C264.255 59.0324 263.523 58.1295 262.799 57.2265L262.918 57.3458C262.246 56.5536 261.454 54.9947 260.91 55.0714C254.79 55.9573 248.159 54.9436 242.993 59.6969C242.252 60.3869 240.958 60.472 239.477 60.9917C240.975 61.2643 242.125 61.4772 243.529 61.7243C242.601 62.8146 241.759 63.8027 240.916 64.7909C241.044 65.1572 241.171 65.532 241.299 65.8983C242.814 65.4979 244.338 65.106 245.853 64.7057C246.602 64.5098 247.376 64.0413 248.091 64.135C249.53 64.3138 252.083 64.6461 252.151 65.1742C252.534 68.2153 250.16 67.2442 248.423 67.3549C247.197 67.4316 245.997 67.9682 244.669 68.326C244.84 69.0671 245.01 69.7826 245.061 69.97C242.295 70.7282 239.733 71.4352 237.111 72.1507C237.298 75.4899 238.575 76.5888 241.401 76.5803C245.98 76.5718 250.56 76.887 255.13 77.1596C255.803 77.2021 256.441 77.7047 256.994 78.7951C246.568 79.8173 236.141 80.831 224.88 81.9298C228.676 83.5569 231.536 84.9709 234.541 85.9335C235.29 86.172 236.507 84.9368 237.511 84.3917C238.388 83.9146 239.937 82.918 240.048 83.0628C242.329 85.9165 244.814 83.9402 247.376 83.8209C252.602 83.5909 257.888 84.5791 263.123 84.3831C266.578 84.2554 269.881 83.2332 273.175 85.3457C275.243 86.6746 277.456 87.8842 280.299 86.8194C281.27 86.4531 282.819 87.6457 284.487 88.276C286.998 83.5824 292.471 87.569 296.429 85.712L296.344 85.6609C297.442 87.552 296.08 90.8656 294.003 91.1638C288.181 91.9986 282.316 92.6204 276.537 93.6682C275.158 93.9152 274.009 95.4826 272.775 96.4707C271.873 97.2033 271.115 98.3874 270.102 98.6599C266.876 99.5373 263.463 99.7844 260.331 100.892C259.037 101.352 258.28 103.345 257.275 104.648L257.309 104.538C255.598 104.112 253.743 103.03 252.202 103.388C248.04 104.342 244.014 105.901 238.762 107.604C241.265 108.678 243.018 109.24 244.584 110.134C250.815 113.678 257.326 114.683 264.28 112.775C267.132 111.991 269.941 112.545 272.647 109.546C274.324 107.689 279.737 109.197 283.474 109.197L283.976 111.173C282.274 111.974 280.648 113.065 278.861 113.542C269.106 116.106 259.258 118.329 249.564 121.114C247.402 121.736 243.742 122.068 243.946 125.271C245.946 124.769 248.713 123.261 249.589 124.002C252.688 126.6 258.986 127.077 257.258 133.432C256.552 136.047 256.799 139.378 253.122 140.511C252.407 140.732 251.7 142.478 251.768 143.458C252.143 148.544 248.593 151.108 245.325 153.757C241.52 156.84 236.43 158.927 233.834 162.761C230.404 167.821 225.067 169.277 220.726 172.514C218.496 174.175 216.785 175.717 217.373 178.903C217.96 182.072 216.462 183.06 213.457 181.859C212.742 181.578 211.321 181.331 211.185 181.595C208.35 186.808 202.937 185.794 198.468 187.03C195.804 187.771 193.029 188.256 190.527 189.372C188.382 190.326 186.552 191.996 184.177 193.631C187.114 196.783 190.493 194.313 193.31 193.964C200.12 193.112 206.827 191.451 213.602 190.301C215.841 189.917 218.19 189.951 220.471 190.113C221.169 190.164 221.756 191.331 222.437 191.936C224.225 193.529 225.893 196.221 227.859 196.459C232.677 197.047 232.072 200.037 231.936 203.155C231.859 205.063 231.817 206.98 231.757 208.888C233.809 208.76 235.86 208.632 238.379 208.479C237.86 209.51 237.537 211.46 236.532 211.912C232.906 213.556 230.71 215.864 230.966 220.03L228.846 216.009C227.578 216.801 226.318 217.594 225.05 218.377C222.616 219.868 219.296 220.345 218.786 223.991C218.598 225.32 218.334 226.64 217.926 228.983C220.956 227.909 223.084 227.16 225.271 226.393C228.497 230.746 229.544 230.703 233.885 226.393C234.524 225.754 236.617 225.533 237.128 226.035C238.192 227.083 239.214 228.753 239.205 230.167C239.197 231.53 238.133 233.157 237.069 234.179C233.034 238.055 227.987 239.605 222.522 240.457C220.241 240.815 217.534 242.075 216.173 243.822C214.215 246.335 211.832 247.169 209.099 247.629C204.375 248.43 199.6 248.941 194.902 249.827C193.395 250.108 192.042 251.199 190.255 252.102C193.055 256.19 196.477 254.887 199.49 254.018C203.388 252.894 207.108 251.182 210.963 249.895C211.517 249.708 212.393 250.457 213.108 250.773C214.938 247.646 216.828 245.943 219.926 249.546C220.547 250.262 222.395 250.151 223.654 250.057C230.302 249.555 236.958 249.137 243.572 248.319C251.7 247.314 259.786 245.977 267.872 244.682C268.579 244.571 269.174 243.753 270.707 243.685C270.017 244.972 269.643 246.701 268.579 247.468C262.374 251.965 255.249 253.26 250.994 250.969C248.321 253.899 240.499 256.097 237.043 254.768C232.881 259.794 226.625 259.632 220.939 261.139C213.296 263.167 205.771 265.629 198.179 267.869C196.621 268.329 194.868 268.346 193.464 269.07C192.57 269.53 191.557 271.029 191.693 271.873C191.838 272.75 193.353 274.079 194.204 274.036C197.532 273.857 200.826 273.202 204.146 272.742C208.401 272.154 212.921 272.273 216.836 270.782C220.071 269.547 223.016 268.619 226.523 268.303C231.638 267.852 236.652 266.148 241.69 264.905C246.517 263.712 251.3 262.349 256.135 261.225C258.697 260.628 261.344 260.373 264.136 259.938C262.229 261.94 260.918 263.704 257.105 263.38C253.198 263.048 249.079 265.169 245.061 266.242C239.86 267.63 234.736 269.666 229.442 270.322C219.901 271.506 210.793 274.948 201.158 275.433C200.894 275.45 200.452 275.501 200.409 275.646C199.379 278.841 197.77 282.018 197.617 285.272C197.498 287.751 199.49 288.918 202.477 287.461C204.631 286.414 207.61 287.027 209.729 285.937C216.76 282.316 224.608 282.444 232.004 280.587C237.137 279.301 242.525 279.02 247.81 278.372C256.688 277.282 265.574 276.217 274.469 275.237C281.176 274.496 287.9 273.943 294.607 273.253C300.863 272.605 307.443 272.886 313.29 270.953C322.176 268.005 331.454 269.13 340.357 266.941C343.124 266.259 346.443 268.321 349.558 268.525C356.368 268.976 362.59 272.58 369.697 271.847C371.365 271.677 373.263 274.709 375.11 271.557C376.14 269.803 377.409 268.193 378.864 266.089C379.681 266.378 381.086 266.881 382.498 267.383C383.69 265.646 384.694 262.63 386.107 262.426C389.929 261.872 393.938 262.383 397.853 262.724C401.624 263.048 405.369 263.695 409.123 264.172C411.378 264.453 413.643 264.675 415.898 264.922C415.873 265.441 415.856 265.969 415.83 266.489C412.289 266.847 408.74 267.094 405.225 267.613C404.016 267.792 402.901 268.653 401.743 269.198C402.501 270.169 403.292 271.132 404.024 272.128C405.182 273.713 406.297 275.331 407.574 277.137C408.135 276.149 408.731 275.101 409.829 273.176C410.638 276.507 411.268 279.088 412.204 282.947C408.816 284.488 404.722 286.26 400.705 288.194C395.794 290.553 390.933 291.116 385.529 289.625C384.09 289.225 382.294 290.128 380.89 288.415C380.651 288.126 378.966 289.037 377.153 289.668C379.256 291.133 380.481 291.985 381.86 292.947C381.188 293.697 380.566 294.395 379.945 295.102C380.09 295.426 380.234 295.758 380.379 296.082L384.737 294.472C392.491 294.847 401.02 292.615 409.48 293.484L409.736 295.622C404.092 296.968 398.458 298.331 392.815 299.66C390.236 300.264 387.563 300.614 385.086 301.508C384.184 301.832 383.733 303.408 382.703 304.975C379.528 305.725 374.617 304.14 371.612 307.982C365.833 309.132 360.002 310.291 354.18 311.458L354.248 312.471H371.374L371.68 312.863C370.872 313.136 370.071 313.579 369.246 313.638C364.241 313.996 359.917 315.572 356.436 319.482C355.44 320.598 353.304 320.683 351.823 321.203C350.588 319.388 349.609 317.94 348.988 317.02C347.362 319.533 345.822 321.91 344.307 324.252C337.038 322.867 332.589 323.082 330.961 324.9C330.816 324.533 330.663 324.176 330.518 323.809C328.994 324.431 327.522 325.257 325.947 325.624C322.977 326.305 319.963 326.91 316.942 327.2C312.354 327.634 307.724 327.625 303.144 328.137C301.919 328.273 300.931 329.985 299.655 330.334C297.535 330.905 295.254 331.263 293.084 331.126C291.381 331.016 289.739 330.019 287.789 329.312C286.266 330.419 284.487 331.714 282.172 333.401C278.844 332.345 274.758 331.493 271.005 334.772C272.613 334.415 274.222 334.065 275.831 333.708C263.412 340.991 248.312 342.311 236.669 351.29C236.762 351.801 236.864 352.303 236.958 352.814L248.908 350.318C237.962 355.481 234.609 356.273 233.409 352.891C232.66 353.836 232.021 354.629 230.991 355.932C229.706 354.262 228.574 352.806 227.45 351.349C222.607 355.131 221.016 354.705 224.208 359.016C221.143 363.053 217.245 361.265 213.313 360.506C212.691 362.755 215.389 366.657 210.121 366.793C210.206 365.515 210.308 364.118 210.461 361.844C207.567 362.755 205.167 363.53 202.767 364.263C202.103 364.467 201.235 364.91 200.766 364.663C196.409 362.363 193.319 366.069 189.684 367.006C188.084 367.415 186.816 369.008 185.318 369.945C183.633 371.001 181.837 371.878 180.134 372.909C178.968 373.616 177.896 374.494 176.755 375.252C174.287 376.896 171.844 378.565 169.29 380.065C168.967 380.261 168.073 379.502 167.452 379.179L167.35 379.332V372.424C166.49 373.028 165.988 373.625 165.367 373.778C161.749 374.707 157.349 373.165 154.71 377.228C154.565 377.458 153.918 377.424 153.51 377.407C147.475 377.109 147.118 377.432 146.837 383.566L146.981 383.438C144.726 378.344 144.062 378.131 139.364 380.55C138.606 380.942 137.499 380.567 136.597 380.755C135.176 381.044 133.78 381.504 131.899 382.032C129.754 379.996 122.859 380.899 117.786 384.92C120.638 385.176 123.081 385.389 125.515 385.61C125.583 385.814 125.651 386.019 125.719 386.223C124.026 386.607 122.34 386.99 120.297 387.45C121.804 392.195 126.196 388.132 128.264 390.304C126.341 392.953 121.242 394.546 118.169 394.18C116.654 394.001 114.109 394.776 113.514 395.9C111.888 398.975 110.339 397.945 108.577 396.488C104.117 392.817 101.087 393.004 96.5159 396.897C95.12 398.081 93.1538 398.601 90.8557 399.716C95.6307 403.899 97.1458 395.721 101.419 398.388C98.5757 400.287 95.9286 402.059 92.5154 404.342C91.8856 403.482 91.2302 402.255 90.2599 401.386C89.6045 400.798 88.3703 400.279 87.6042 400.483C84.3188 401.352 80.1395 401.608 78.1137 403.788C75.8752 406.19 74.8964 406.915 72.0109 403.695C72.3088 405.373 72.428 406.02 72.6918 407.485C70.8533 406.548 69.3978 405.816 67.5338 404.87C66.3762 409.146 63.2013 406.915 60.5883 406.88C62.3842 405.364 64.1632 403.865 65.9506 402.366C65.5676 401.795 65.1846 401.224 64.8015 400.654C63.5248 401.361 61.865 401.786 61.0905 402.86C60.4266 403.788 60.7755 405.449 60.6734 406.787C60.5287 408.269 60.384 409.76 60.35 410.152C55.9069 411.25 51.949 412.187 48.0166 413.227C46.0334 413.746 43.9736 414.223 42.1606 415.143C40.4072 416.038 39.0709 417.758 37.309 418.61C31.6743 421.328 26.0055 423.994 20.2006 426.302C17.4684 427.393 14.3871 427.614 11.1016 428.296C10.7611 430.987 9.15244 432.291 5.71371 431.78C4.51358 431.601 3.04956 433.236 1.3132 434.267C0.445007 430.025 8.21616 429.156 4.06247 424.36C-6.21109 426.226 -15.4632 432.299 -26.0006 438.876C-23.328 438.518 -21.5746 438.68 -20.2042 438.024C-17.5997 436.771 -15.31 434.855 -12.7055 433.594C-10.5095 432.529 -8.04959 432.001 -4.8407 430.953C-5.33438 432.47 -5.35141 433.85 -5.96423 434.199C-9.91364 436.465 -13.9737 438.543 -18.0423 440.605C-19.7786 441.482 -21.5746 442.59 -23.4216 442.768C-24.5962 442.879 -25.9155 441.457 -27.1582 440.733C-28.1711 440.588 -29.201 440.434 -30.2224 440.281C-36.2487 439.608 -40.6917 443.527 -45.6455 445.826C-46.9563 446.431 -47.5862 448.51 -48.0288 449.166C-52.7442 450.503 -57.1107 451.747 -61.8687 453.093L-60.0727 459.959C-62.2347 458.161 -63.5625 457.054 -65.1882 455.699C-65.6393 456.057 -66.5841 457.343 -67.2736 457.216C-68.7971 456.943 -70.2016 455.963 -71.6486 455.265C-69.0525 453.306 -71.4954 447.888 -66.4054 447.607C-66.0479 447.59 -65.7074 447.224 -65.9713 447.377C-64.6265 448.663 -63.6732 450.06 -62.3539 450.656C-61.5197 451.031 -59.162 450.137 -59.1705 449.907C-59.2726 448.118 -59.7833 446.346 -60.3026 443.987C-59.1364 443.722 -57.6044 443.382 -55.9191 443.007C-55.4339 444.481 -55.0679 445.596 -54.7019 446.721L-54.0891 446.678V440.52C-51.7058 441.431 -49.7141 442.189 -47.7224 442.947C-47.5181 442.7 -47.3053 442.445 -47.101 442.198C-48.0969 441.116 -49.1012 440.034 -50.3269 438.705C-40.7258 434.148 -31.0991 429.582 -21.481 425.016C-21.6512 424.479 -21.8214 423.934 -21.9917 423.398C-23.6344 423.875 -25.3367 424.207 -26.9199 424.854C-33.3121 427.461 -39.6788 430.119 -46.02 432.844C-52.4803 435.613 -58.9152 438.45 -65.3159 441.337C-66.4139 441.831 -67.231 443.007 -68.3375 443.399C-71.7762 444.617 -75.3 445.605 -78.8409 445.835C-80.3474 447.896 -81.854 449.958 -83.5649 452.283C-83.0542 452.735 -82.3307 453.382 -81.6157 454.03C-81.8881 454.396 -82.1604 454.754 -82.4328 455.12C-83.4968 454.277 -84.5607 453.442 -85.7098 452.539C-87.9994 453.612 -91.2338 453.306 -92.5616 456.858C-92.9276 457.829 -96.5451 458.843 -97.2856 458.212C-100.843 455.171 -102.844 457.829 -105.167 459.72C-105.602 460.069 -105.942 460.648 -106.419 460.793C-110.342 462.003 -114.351 462.983 -118.224 464.337C-121.093 465.334 -123.799 466.79 -127.315 468.375C-128.991 472.429 -130.336 472.983 -136.048 472.872C-138.295 472.83 -140.576 474.133 -143.546 475.036C-143.836 474.763 -144.806 473.843 -146.27 472.464C-144.559 471.859 -143.061 471.765 -142.414 470.973C-141.699 470.104 -141.776 468.588 -141.504 467.361C-142.627 467.421 -144.168 467.029 -144.823 467.617C-151.113 473.298 -157.982 478.009 -165.992 480.914C-166.962 481.263 -168.068 481.22 -169.115 481.357L-169.405 480.224C-162.919 475.888 -156.51 471.416 -149.888 467.301C-147.896 466.066 -147.802 462.48 -144.491 463.093C-143.529 458.902 -139.188 459.984 -136.737 458.127C-135.043 456.841 -133.12 455.81 -131.622 454.336C-129.443 452.19 -127.553 449.753 -125.366 447.241C-124.625 447.837 -123.902 448.425 -123.067 449.098C-122.846 448.782 -122.591 448.493 -122.429 448.152C-121.391 445.929 -121.101 442.964 -117.228 445.588C-115.169 446.985 -112.445 444.029 -112.47 440.52H-116.513L-117.016 439.37C-111.977 436.533 -106.963 433.628 -101.882 430.868C-96.5196 427.955 -91.0977 425.144 -85.6672 422.358C-83.3946 421.191 -81.0114 420.246 -78.7217 419.113C-77.3088 418.406 -75.9725 417.528 -74.6021 416.728C-70.2356 414.59 -65.8692 412.443 -61.5112 410.305L-61.9368 409.325C-65.9373 410.782 -69.9292 412.238 -74.1255 413.772C-74.2276 414.624 -74.3638 415.723 -74.4999 416.821L-74.3638 416.753ZM-270.702 350.974C-265.144 346.494 -257.534 344.807 -252.734 338.018C-260.752 339.1 -264.82 345.216 -270.514 348.649C-270.923 348.896 -270.668 350.242 -270.719 351.025C-271.936 349.824 -273.162 348.632 -275.221 346.604C-275.885 353.981 -284.159 352.005 -285.963 358.385C-280.243 355.6 -275.468 353.283 -270.702 350.966V350.974ZM98.3715 380.806C103.598 380.576 108.849 380.329 113.505 377.594C114.186 377.194 114.322 375.857 114.773 374.8C108.058 374.195 108.083 374.221 103.325 378.404C102.772 378.889 101.682 378.702 100.967 379.076C100.065 379.553 99.2907 380.278 98.465 380.899C96.9244 380.746 95.3839 380.601 93.8432 380.448C93.5453 379.911 93.256 379.375 92.958 378.838C94.405 378.378 95.852 377.909 97.299 377.449C96.95 377.083 96.601 376.725 96.2435 376.359C94.5412 376.93 92.8389 377.501 91.5025 377.944C91.6642 380.184 91.8004 382.075 92.0473 385.397C94.5327 383.591 96.4478 382.194 98.3629 380.797L98.3715 380.806ZM-25.7708 329.057C-25.4984 329.38 -25.1069 330.036 -24.9792 329.985C-20.7149 328.375 -16.4165 326.825 -12.2544 324.976C-9.95621 323.954 -7.89639 322.395 -5.73444 321.083L-6.49197 319.533C-9.93918 323.98 -15.6845 321.177 -19.5318 324.55C-21.4469 326.237 -23.6174 327.643 -25.6772 329.167C-30.8182 330.862 -35.9507 332.558 -41.0833 334.278C-41.228 334.329 -41.245 334.789 -41.4152 335.411C-40.5811 335.633 -39.6022 336.255 -38.9383 336.016C-35.1166 334.636 -31.3204 333.145 -27.6179 331.476C-26.8008 331.109 -26.3752 329.883 -25.7708 329.048V329.057ZM-86.5865 392.05L-81.7093 388.583C-82.8754 387.782 -84.0415 386.982 -85.9396 385.678C-86.1524 388.643 -86.2801 390.431 -86.4077 392.229C-87.4717 391.002 -88.5271 389.784 -90.1443 387.919C-92.3233 389 -95.6173 390.644 -99.2518 392.45C-98.4177 394.665 -97.3878 397.382 -96.111 400.739C-94.4512 398.933 -93.4639 397.638 -92.2467 396.607C-91.2338 395.747 -89.8805 394.588 -88.825 394.716C-88.0079 394.818 -87.4121 396.71 -86.7141 397.808C-86.6035 398.941 -86.5014 400.074 -86.3056 402.161C-87.6334 400.509 -88.1611 399.282 -88.6889 399.274C-93.566 399.265 -91.004 404.862 -94.0001 406.582C-86.1354 406.455 -80.2028 401.718 -73.4786 398.643C-73.8446 397.152 -74.168 395.866 -74.6021 394.077C-76.364 394.435 -78.5345 394.231 -79.5559 395.219C-81.6753 397.28 -83.999 397.877 -86.7227 397.817L-86.595 392.05H-86.5865ZM4.79446 379.571C1.78986 380.141 -1.2403 380.627 -4.21085 381.351C-4.77261 381.487 -5.35992 382.535 -5.44504 383.225C-5.49612 383.617 -4.27896 384.622 -4.09171 384.52C-1.12964 382.901 1.75583 381.146 4.65829 379.417C4.95621 379.707 5.31369 380.278 5.53497 380.235C9.54398 379.332 13.0082 377.083 17.3576 376.615C21.639 376.146 25.648 373.395 29.8613 371.887C30.9763 371.487 32.4062 371.981 33.683 372.066C33.734 372.338 33.7936 372.62 33.8447 372.892C31.4189 374.247 29.0016 375.592 26.5758 376.947C26.7375 377.305 26.8992 377.671 27.0524 378.029C28.0994 377.952 29.2144 378.063 30.1932 377.756C34.7299 376.342 39.2751 374.919 43.7352 373.275C45.6333 372.577 47.3271 371.316 49.1146 370.311C48.0591 368.982 46.9781 367.662 45.9568 366.307C45.7269 366.009 45.7355 365.532 45.4631 364.484C46.6803 364.484 47.9485 364.084 48.5869 364.553C52.2213 367.21 52.1703 367.279 57.822 364.757C56.1707 364.502 55.0983 364.484 54.1365 364.152C53.2598 363.854 52.5023 363.207 51.6936 362.721C52.4852 362.065 53.2257 360.949 54.0769 360.856C55.8303 360.651 57.6518 361 59.5073 361.12C60.1457 360.259 60.8521 359.297 61.8991 357.857C64.1376 360.626 67.7125 361.903 66.8613 366.444C67.8657 366.094 68.9467 365.711 70.0277 365.328C69.6447 365.047 69.2531 364.757 68.8701 364.476C69.6191 362.917 70.0958 361.111 71.2023 359.876C71.8918 359.109 73.5345 359.16 74.7602 358.905C76.6157 358.522 78.684 358.59 80.2927 357.755C82.6249 356.545 84.489 354.458 86.8126 353.223C88.2681 352.439 90.1833 352.525 91.8941 352.218C84.5996 349.594 78.0542 351.971 72.2152 355.566C69.3723 357.321 67.4742 358.096 64.3419 356.861C62.7673 356.239 60.2478 356.46 58.8008 357.355C54.8514 359.799 50.8254 360.89 47.6336 360.004C44.4247 361.861 42.1946 363.156 39.9646 364.45C39.6837 364.076 39.4028 363.692 39.1219 363.317L40.0412 359.978C37.4622 360.234 33.6319 359.919 33.368 360.745C31.6232 366.188 29.6825 363.411 28.1419 361.571C26.014 363.939 23.2647 365.847 22.1837 368.446C20.5155 372.475 18.2939 372.688 16.0298 371.444C11.9613 373.599 8.73535 375.788 5.17749 377.032C2.45377 377.986 3.10916 378.446 4.76892 379.588L4.79446 379.571ZM196.306 58.1295C193.463 57.9506 191.302 57.661 189.14 57.7121C186.433 57.7717 183.156 57.2265 181.164 58.5299C177.606 60.8554 174.304 60.3272 170.576 60.0717C166.916 59.8246 162.694 59.5861 159.596 61.1194C154.327 63.7261 149.194 65.8386 143.262 66.3582C134.469 67.1249 125.719 68.4027 116.952 69.5356C113.156 70.0211 109.385 70.6685 104.602 71.4011C107.377 73.9907 108.96 76.2822 112.399 75.4474C114.841 74.8511 117.352 74.5189 119.838 74.0759C129.141 72.4148 138.087 68.7093 147.799 69.3226C149.56 69.4334 152.216 68.0534 152.991 68.8286C155.851 71.6822 158.447 69.7826 160.728 68.7434C166.26 66.2134 171.359 64.4331 177.955 65.6597C183.888 66.7586 190.365 64.9612 196.596 64.3053C197.115 64.2542 198.009 63.0361 197.898 62.5761C197.438 60.7446 196.638 59.0069 196.315 58.1465L196.306 58.1295ZM-237.949 282.648L-238.843 281.251C-242.281 282.802 -246.001 283.943 -249.116 285.996C-255.789 290.4 -262.607 294.225 -270.821 294.872C-269.34 298.51 -263.101 299.915 -260.335 297.24C-255.508 292.572 -249.942 289.25 -243.754 286.737C-241.617 285.868 -239.873 284.037 -237.949 282.64V282.648ZM-91.4381 439.506C-100.333 441.099 -111.143 447.811 -112.232 451.892C-105.082 447.632 -98.2645 443.569 -91.4381 439.506ZM35.2151 405.628C36.5089 403.695 37.0791 401.769 38.1686 401.403C42.4415 399.972 46.876 399.035 51.2425 397.911C51.617 397.817 51.9745 397.647 52.4852 397.459C52.0767 396.241 51.7021 395.134 51.4383 394.324C45.0715 396.897 39.0623 399.333 32.2616 402.085C33.7 403.805 34.6363 404.938 35.2151 405.628ZM20.4899 419.215C23.2137 418.431 25.9799 417.775 28.6441 416.83C32.3382 415.518 35.9896 414.061 39.5901 412.503C40.1518 412.256 40.3476 411.174 41.0881 409.777C38.6623 411.054 36.9685 412.758 35.547 412.562C29.1888 411.676 24.9245 415.424 20.4899 419.215ZM40.1519 64.2201C40.0582 63.709 39.9731 63.1979 39.8795 62.6953H21.6816C23.5967 65.9579 28.2185 67.8575 29.8953 65.7364C31.8359 63.2746 33.6319 64.3224 35.7598 64.629C37.1728 64.8249 38.6794 64.382 40.1519 64.2201ZM-121.791 454.694C-124.983 456.279 -127.689 457.394 -130.149 458.902C-132.575 460.376 -136.805 460.206 -136.328 465.299C-131.273 462.574 -126.498 460.078 -121.85 457.377C-121.425 457.13 -121.791 455.512 -121.791 454.694ZM84.7358 220.762C84.8975 221.316 85.0592 221.861 85.2209 222.415C93.673 220.175 102.125 217.943 110.586 215.702C110.432 215.132 110.279 214.553 110.126 213.982C101.665 216.239 93.1964 218.505 84.7358 220.762ZM77.7648 388.089C75.6454 385.746 74.0026 382.62 71.015 386.641C70.8022 386.93 69.9681 386.76 69.4233 386.777C67.704 386.837 65.5335 386.871 66.2911 389.281C66.5975 390.261 68.9637 391.377 70.1213 391.13C72.6493 390.602 75.007 389.239 77.7648 388.08V388.089ZM12.9316 93.9152C13.0082 94.3667 13.0933 94.8182 13.1699 95.2696C18.9238 94.29 24.6777 93.3104 30.4401 92.3308C30.4315 91.7856 30.4145 91.2319 30.406 90.6867C29.3591 90.6867 28.2866 90.5334 27.2737 90.7208C25.8183 90.9934 24.0989 92.2541 23.0434 91.8026C18.9153 90.0308 16.0213 92.1349 12.9316 93.9152ZM13.4593 81.4869C12.4209 77.9262 3.9433 76.3077 -0.176331 79.8088C4.25821 80.3539 8.70132 80.8991 13.4593 81.4869ZM150.607 75.8818C150.99 78.3436 151.322 80.4306 151.646 82.5176C153.399 82.1343 154.804 82.0747 155.936 81.4954C156.932 80.9843 157.621 79.8854 158.447 79.0506C157.57 78.301 156.812 77.2533 155.799 76.8784C154.267 76.3162 152.565 76.2311 150.599 75.8818H150.607ZM159.374 56.3832L159.63 54.3559C155.17 51.5278 150.59 55.3099 146.096 54.7818L146.045 56.3832H159.374ZM67.3125 90.559C67.1848 89.9797 67.0571 89.392 66.9294 88.8127L51.1914 92.8334L51.6 94.503C56.8346 93.1911 62.0778 91.8793 67.3125 90.5675V90.559ZM-8.68799 418.781C-8.7731 418.406 -8.86673 418.04 -8.95184 417.665C-11.8969 418.73 -14.8845 419.709 -17.7529 420.961C-18.1189 421.123 -17.855 422.699 -17.8805 423.628C-17.0124 423.602 -16.0591 423.789 -15.293 423.491C-14.6801 423.253 -14.2801 422.444 -13.829 421.949C-13.0714 422.665 -12.5523 423.151 -12.2799 423.406C-10.9436 421.685 -9.81149 420.229 -8.67947 418.781H-8.68799ZM104.074 350.557L104.593 352.039C109.896 350.157 115.199 348.274 120.502 346.383L120 344.935C114.688 346.809 109.385 348.683 104.074 350.557ZM89.9109 355.711C86.0551 357.482 82.4972 359.118 78.7436 360.839C83.2888 363.207 89.5959 360.132 89.9109 355.711ZM-19.9914 389.256C-16.8506 390.891 -10.0498 387.552 -8.10068 383.395C-11.7947 385.218 -15.4803 387.033 -19.9914 389.256ZM-45.7987 400.355C-45.5774 401.045 -45.3561 401.735 -45.1348 402.425C-42.0791 401.599 -39.0149 400.807 -35.9848 399.895C-35.6869 399.81 -35.3379 398.711 -35.4996 398.541C-35.8827 398.132 -36.6487 397.672 -37.1083 397.791C-40.0278 398.558 -42.9048 399.478 -45.7987 400.355ZM-65.9117 343.683C-65.733 344.202 -65.5627 344.713 -65.384 345.233C-60.3281 345.88 -58.6938 345.08 -57.1277 340.906C-60.1919 341.877 -63.0518 342.78 -65.9117 343.683ZM100.619 56.1192C100.482 56.5536 100.355 56.988 100.218 57.414C101.529 58.0784 102.874 59.3391 104.134 59.2624C106.372 59.1261 108.058 57.8484 106.943 54.671C104.772 55.1651 102.695 55.6421 100.61 56.1192H100.619ZM-5.24927 282.452C4.00287 281.609 7.3139 280.144 8.13101 276.958C3.59433 278.815 -0.823212 280.63 -5.24927 282.452ZM127.073 39.5765H116.816C123.098 43.5375 124.579 43.512 127.073 39.5765ZM-221.547 359.024C-221.215 359.484 -220.883 359.936 -220.543 360.396C-217.232 358.147 -213.912 355.898 -210.601 353.649C-210.967 353.121 -211.325 352.601 -211.691 352.073C-214.976 354.39 -218.262 356.707 -221.547 359.033V359.024ZM-271.774 276.396C-267.842 275.876 -264.207 275.391 -260.573 274.914C-266.088 272.239 -269.238 272.937 -271.774 276.396ZM74.8112 347.414C75.0325 347.686 75.339 348.283 75.5177 348.248C79.1522 347.49 82.7867 346.732 86.3615 345.744C86.6765 345.659 86.5403 343.981 86.5488 343.921C82.5143 345.122 78.8032 346.23 74.8112 347.422V347.414ZM-249.116 336.203C-248.827 336.578 -248.537 336.953 -248.248 337.328C-245.363 335.539 -242.486 333.75 -239.6 331.961C-244.622 330.513 -246.163 334.474 -249.116 336.203ZM107.028 388.719C106.806 388.157 106.577 387.595 106.355 387.033C103.904 388.2 101.453 389.358 99.0013 390.525C99.2056 391.002 99.4184 391.479 99.6227 391.956C102.295 391.403 105.385 391.88 107.028 388.719ZM62.3247 391.581C61.9502 391.241 61.5671 390.909 61.1926 390.568C59.269 391.386 57.3028 392.127 55.4558 393.098C55.0983 393.285 55.2345 394.401 55.1494 395.082C57.1326 394.742 59.1753 394.58 61.0734 393.967C61.6863 393.771 61.9161 392.408 62.3247 391.573V391.581ZM51.8383 407.323C52.0767 407.783 52.3149 408.252 52.5533 408.712C54.196 407.996 55.8473 407.289 57.4901 406.574C56.5963 405.424 55.7026 404.274 54.5025 402.723C53.3109 404.776 52.5788 406.046 51.8383 407.315V407.323ZM-216.014 366.776C-219.589 369.076 -222.432 370.899 -225.275 372.722C-219.547 372.279 -216.278 370.175 -216.014 366.776ZM97.0862 74.3315L96.7712 73.0622L87.6808 75.0385L87.9362 76.2992C91.3493 77.611 94.2943 76.4014 97.0862 74.3229V74.3315ZM182.858 364.314C183.054 364.655 183.25 364.987 183.445 365.328C185.301 364.868 187.216 364.553 188.995 363.888C189.591 363.667 189.855 362.559 190.272 361.861C189.463 361.571 188.416 360.805 187.88 361.077C186.109 361.963 184.518 363.215 182.858 364.323V364.314ZM110.832 360.123C106.866 360.532 103.878 360.847 100.653 361.179C102.678 364.638 104.483 364.45 110.832 360.123ZM17.6215 420.067C17.3491 419.675 17.0682 419.292 16.7959 418.9C15.8255 419.743 14.8552 420.587 13.8849 421.43C15.1531 422.324 13.0252 426.422 16.8555 424.837C17.1278 423.168 17.3747 421.609 17.6215 420.058V420.067ZM49.3784 407.749C48.9529 407.213 48.5273 406.676 48.1017 406.139C46.8079 406.949 45.5142 407.749 44.2289 408.559C44.9099 409.274 46.0674 410.688 46.2036 410.594C47.3697 409.794 48.3485 408.737 49.3784 407.749ZM116.195 391.616C116.067 391.062 115.931 390.508 115.803 389.946C112.935 390.968 110.066 391.99 107.207 393.013C107.368 393.515 107.53 394.009 107.7 394.512C110.535 393.549 113.369 392.578 116.203 391.616H116.195ZM-22.7407 394.946C-21.6597 393.515 -20.9703 392.604 -20.2808 391.692C-21.149 391.249 -22.0683 390.372 -22.8599 390.474C-23.677 390.585 -24.3749 391.65 -25.1154 392.288C-24.4515 393.03 -23.7876 393.771 -22.7407 394.938V394.946ZM198.077 244.052C197.975 243.336 197.864 242.629 197.762 241.914C196.077 242.152 194.383 242.348 192.731 242.731C192.595 242.765 192.783 244.145 192.817 244.895C194.57 244.614 196.323 244.324 198.077 244.043V244.052Z" fill="#00960F"/>
<path d="M296.505 85.7119C293.935 84.1189 291.364 82.5345 288.641 80.8479C292.769 79.5957 296.905 77.9942 301.195 77.1254C305.485 76.2565 309.911 76.1117 314.218 74.7061H302.549C304.191 70.1147 307.434 68.5473 310.209 71.3755C310.567 70.464 310.882 69.6547 310.796 69.8677C315.657 69.8677 319.972 69.6377 324.236 69.9955C325.709 70.1147 327.062 71.6736 328.475 72.568C329.267 73.0706 330.067 73.965 330.875 73.9821C336.425 74.0673 341.966 73.931 347.516 73.965C349.031 73.9736 350.546 74.391 352.061 74.5102C354.095 74.6635 356.138 74.7147 358.598 74.8254C359.381 75.9839 360.632 77.8494 362.471 80.5668C358.24 80.2686 354.972 79.7661 351.72 79.8598C345.345 80.0386 338.987 80.6179 332.612 80.882C329.071 81.0268 325.487 80.6094 321.972 80.9246C318.559 81.2227 315.137 81.9127 311.86 82.8923C310.541 83.2841 309.588 84.9197 308.26 86.1889C307.077 86.3422 305.366 86.8533 303.723 86.6915C302.37 86.5552 300.855 85.8908 299.85 84.9793C298.174 83.446 297.212 83.6504 296.403 85.6523C296.42 85.6693 296.505 85.7204 296.505 85.7204V85.7119Z" fill="#00960F"/>
<path d="M327.317 334.091C326.134 338.248 322.772 338.265 320.278 338.912C316.55 339.875 312.558 339.815 308.838 340.803C306.464 341.434 304.421 343.257 302.157 344.398C300.923 345.02 299.578 345.505 298.224 345.761C295.679 346.238 293.1 346.579 290.53 346.817C289.943 346.868 289.296 346.298 288.164 345.77C293.62 340.931 300.633 340.693 306.608 338.307C312.864 335.803 319.989 335.479 327.326 334.091H327.317Z" fill="#00960F"/>
<path d="M257.794 362.184C257.019 362.713 256.322 363.471 255.47 363.743C246.227 366.64 237.017 369.63 227.688 372.245C222.19 373.787 216.513 374.69 210.742 375.107C225.45 367.636 241.971 366.648 257.105 360.83C257.334 361.282 257.556 361.742 257.786 362.193L257.794 362.184Z" fill="#00960F"/>
<path d="M106.636 2.87932C111.275 2.20636 115.692 -1.08173 120.706 3.10931C122.153 4.31892 125.123 3.7056 127.872 3.97819C127.225 2.76006 126.808 1.96785 126.442 1.28638C128.766 1.47378 131.149 1.66119 134.699 1.94229C133.652 3.36486 132.792 5.63075 131.813 5.68186C124.672 6.04815 117.497 6.08223 110.347 5.94593C108.994 5.92038 107.674 4.66818 106.338 3.97819L106.653 2.89635L106.636 2.87932Z" fill="#00960F"/>
<path d="M181.734 384.682C187.148 382.637 192.578 380.618 197.975 378.531C199.183 378.063 200.537 377.586 201.422 376.7C204.248 373.897 206.308 373.889 209.244 377.305C208.367 377.739 207.525 378.557 206.81 378.455C203.746 378.02 201.72 379.162 199.481 381.308C197.881 382.833 194.927 382.935 192.587 383.694C190.816 384.273 189.097 385.125 187.284 385.431C185.522 385.729 183.675 385.499 181.862 385.499C181.82 385.227 181.777 384.954 181.734 384.673V384.682Z" fill="#00960F"/>
<path d="M6.56464 439.659C0.487331 442.283 -5.607 444.881 -11.6588 447.564C-12.961 448.143 -14.0335 449.259 -15.3443 449.787C-16.3657 450.196 -17.5999 450.077 -18.7319 450.188C-18.3574 448.987 -18.3234 447.096 -17.5488 446.712C-15.0379 445.486 -12.2035 444.932 -9.57341 443.893C-4.95159 442.07 -0.397894 440.06 4.2069 438.185C4.74313 437.964 5.42408 438.1 6.03692 438.066C6.21566 438.594 6.38589 439.114 6.56464 439.642V439.659Z" fill="#00960F"/>
<path d="M167.554 379.145C166.116 380.184 164.686 381.24 163.239 382.262C162.787 382.578 162.03 383.174 161.843 383.038C158.174 380.405 156.327 383.915 154.038 385.44C150.939 387.493 147.943 387.612 144.402 385.815C145.407 384.912 146.249 384.153 147.092 383.395L146.939 383.523C149.024 383.583 152.02 384.554 153.025 383.54C156.378 380.158 160.719 379.911 164.754 378.702C165.52 378.472 166.541 379.077 167.443 379.298L167.545 379.145H167.554Z" fill="#00960F"/>
<path d="M150.837 1.29488C149.696 1.57599 148.556 1.8571 147.211 2.18931C151.228 5.45185 151.177 5.94592 147.883 7.39404C145.177 5.90333 143.015 4.72779 140.861 3.5267C139.857 2.96449 138.887 2.35116 137.908 1.76339C138.214 1.32044 138.682 0.460082 138.81 0.511193C139.823 0.903038 140.776 1.45673 141.746 1.95932C141.993 2.08709 142.257 2.18079 142.844 2.42783C144.453 -2.29987 147.986 1.36303 150.837 1.29488Z" fill="#00960F"/>
<path d="M265.965 261.591C266.978 257.281 274.928 254.827 284.359 255.355C278.06 257.494 272.221 259.47 265.965 261.591Z" fill="#00960F"/>
<path d="M272.239 57.1072C277.78 55.9402 283.321 54.7732 288.862 53.5977L289.151 54.9095C283.661 56.3321 278.18 57.7546 272.69 59.1772L272.23 57.0987L272.239 57.1072Z" fill="#00960F"/>
<path d="M247.852 238.651C243.477 240.355 240.141 245.449 233.842 242.689C238.685 240.832 243.018 239.171 247.359 237.51C247.521 237.893 247.682 238.268 247.852 238.651Z" fill="#00960F"/>
<path d="M163.826 26.0746C162.524 25.3932 160.889 24.5328 159.264 23.6725C159.383 23.2465 159.493 22.8206 159.613 22.3947C162.847 22.1903 166.09 21.9858 169.784 21.7473C167.775 23.2125 166.184 24.3625 163.834 26.0746H163.826Z" fill="#00960F"/>
<path d="M274.324 74.9872C268.332 78.2924 264.11 78.0113 262.552 74.4165C266.289 74.5954 269.796 74.7658 274.324 74.9872Z" fill="#00960F"/>
<path d="M257.36 104.64C260.152 99.8013 263.25 104.946 266.17 104.188C263.284 106.437 260.382 107.102 257.411 104.512C257.403 104.529 257.36 104.64 257.36 104.64Z" fill="#00960F"/>
<path d="M166.89 42.5322C163.417 44.3637 159.996 46.9107 155.425 44.04C159.706 43.4778 163.298 43.0007 166.89 42.5322Z" fill="#00960F"/>
<path d="M271.013 248.379C272.009 245.832 272.23 243.464 273.362 242.885C274.46 242.322 276.494 243.6 279.201 244.375C276.035 245.917 274.188 246.82 271.013 248.37V248.379Z" fill="#00960F"/>
<path d="M336.527 329.781C336.484 327.097 340.961 325.905 347.073 328.12C343.166 328.733 339.812 329.27 336.527 329.781Z" fill="#00960F"/>
<path d="M180.168 41.459L171.163 42.5579L170.984 40.7179C173.997 40.4709 177.01 40.2238 180.023 39.9768L180.168 41.4505V41.459Z" fill="#00960F"/>
<path d="M262.876 57.218C259.965 58.3765 257.062 59.5435 254.151 60.702C256.296 56.8517 259.165 55.3184 262.986 57.3288L262.876 57.2095V57.218Z" fill="#00960F"/>
<path d="M247.997 221.188C246.72 223.028 245.622 224.596 244.226 226.589C242.575 221.742 243.086 221.069 247.997 221.188Z" fill="#00960F"/>
</g>
<defs>
<clipPath id="clip0_362_14752">
<rect width="833" height="501" fill="white" transform="translate(-417)"/>
</clipPath>
</defs>
</svg>
