<svg width="316" height="147" viewBox="0 0 316 147" fill="none" xmlns="http://www.w3.org/2000/svg">
<g clip-path="url(#clip0_169_1172)">
<path d="M185.509 101.597C185.191 101.405 184.873 101.207 184.546 101.019C184.117 100.766 183.689 100.523 183.255 100.275C183.569 99.8253 183.813 99.3066 184.205 98.9439C184.882 98.315 185.619 97.7411 186.389 97.2224C186.979 96.8276 187.624 96.3685 188.292 96.2629C190.564 95.9048 192.117 93.9492 192.034 91.1764C191.596 91.2865 191.057 91.2544 190.808 91.5069C189.652 92.6776 188.426 93.155 186.67 93.1228C185.449 93.0999 184.251 94.3256 182.965 94.7893C179.647 95.9921 176.711 97.6355 175.288 101.207C173.343 100.092 172.048 99.6784 170.486 101.593C169.541 102.75 167.31 102.837 165.688 103.489C165.043 103.746 164.393 104.136 163.919 104.627C163.343 105.224 163.089 106.404 162.453 106.615C159.753 107.515 157.96 107.304 156.757 106.358C157.241 107.772 158.361 109.383 158.057 110.65C157.776 111.821 155.965 112.629 154.702 113.699C153.237 112.597 151.983 114.327 150.573 114.989C148.504 115.966 146.518 117.137 144.531 118.276C141.693 119.901 138.882 121.576 135.974 123.284C135.176 122.242 135.444 121.54 136.647 120.947C139.923 119.341 143.31 117.899 146.379 115.957C148.296 114.745 149.716 112.757 151.361 111.119C152.522 110.586 153.688 110.049 154.85 109.512L154.84 108.8C153.951 108.649 152.955 108.167 152.204 108.415C150.909 108.846 150.799 110.003 151.426 111.178C149.398 110.15 148.052 110.659 146.974 112.684C144.2 112.468 141.541 112.009 139.582 114.713C139.389 114.612 139.195 114.511 139.001 114.415C139.121 113.891 139.08 113.047 139.384 112.9C141.771 111.725 144.223 110.682 146.983 109.457C146.287 108.887 145.504 108.245 144.582 107.496C145.001 107.143 145.342 106.73 145.776 106.5C149.651 104.444 153.536 102.401 157.439 100.39C158.034 100.082 158.785 100.059 159.366 99.7381C160.301 99.2193 161.163 98.5675 162.048 97.9569C162.578 97.5896 163.048 96.9561 163.61 96.8689C164.615 96.7128 165.476 96.823 166.154 95.6478C166.435 95.1565 167.969 95.3723 169.366 95.2208C169.366 95.2116 169.527 94.1374 169.96 94.0134C173.108 93.1137 171.969 91.2406 171.214 89.4502C168.794 88.9131 168.089 90.2995 167.951 92.2919C165.209 91.6354 164.951 91.764 164.416 94.0731C162.509 93.1733 159.559 93.9997 157.799 95.1244C156.273 96.0977 154.278 96.3364 152.49 96.901C152.375 96.621 152.26 96.341 152.144 96.0609C154.785 94.6516 157.43 93.2468 160.227 91.7548C159.545 91.0708 158.822 90.3454 158.094 89.6155V91.7594C156.711 90.1434 155.684 90.979 153.988 91.8191C150.979 93.3065 148.513 95.7579 144.992 96.4649C142.909 96.8827 141.061 98.5078 139.135 99.6371C137.9 100.362 136.789 100.725 135.831 99.0679C139.269 97.0984 142.743 95.3218 145.978 93.1963C148.614 91.4656 151.025 89.3768 153.398 87.2972C153.854 86.8978 153.725 85.7914 153.785 85.0064C153.845 84.2352 153.799 83.4547 153.799 82.0913C152.476 83.2941 151.467 84.2076 150.375 85.1992C149.591 85.089 148.536 84.9375 147.601 84.8044C146.333 83.1655 151.154 84.4785 148.753 82.2428C149.868 82.1326 150.992 82.0729 152.098 81.9031C153.43 81.6965 154.674 81.2971 154.863 83.4134C154.909 83.946 156.08 84.5244 156.84 84.7952C157.246 84.9421 157.873 84.4922 158.398 84.3132C158.135 83.643 157.905 82.9498 157.591 82.3025C157.398 81.8939 156.979 81.5817 156.836 81.164C156.651 80.6131 156.638 80.0071 156.541 79.369C158.181 80.0438 159.287 80.4937 160.02 80.7967C159.859 81.4578 159.684 82.1877 159.509 82.9176C160.015 82.9865 160.619 83.2665 161.015 83.0921C162.49 82.431 163.9 81.6184 165.333 80.8656C167.232 79.8694 169.131 78.8732 171.306 77.7301C170.301 77.4271 169.297 76.7522 168.698 77.0093C166.444 77.9917 164.32 79.2818 162.149 80.4524C161.951 80.3652 161.748 80.2734 161.55 80.1861C161.937 79.4149 162.126 78.2442 162.748 77.9367C165.223 76.7155 167.108 74.2732 170.186 74.2687C170.527 74.2687 170.914 74.1034 171.205 73.906C173.135 72.5701 175.071 71.2342 176.942 69.8156C177.417 69.453 177.675 68.8011 178.029 68.2869C178.532 68.622 179.186 69.3428 179.5 69.2188C181.14 68.5624 182.716 67.7314 184.269 66.8775C185.896 65.987 187.467 65.0045 189.223 63.967C189.352 63.2738 189.513 62.3694 189.808 60.7811C188.652 61.5156 187.702 61.791 187.338 62.4062C185.983 64.7016 183.288 64.8439 181.32 66.1017C180.223 66.8041 178.891 67.1897 178.057 68.3512C176.615 68.443 175.177 68.5348 173.97 68.6129C173.181 69.2143 172.481 69.7881 171.734 70.3068C170.209 71.3627 168.702 72.4553 167.112 73.4102C165.596 74.3192 163.896 75.8571 162.444 75.6826C160.79 75.4852 159.886 75.9856 158.78 76.7569C158.407 77.0139 157.988 77.2113 157.568 77.3904C154.527 78.6804 151.476 79.9428 148.453 81.2787C148.315 81.3384 148.444 81.9949 148.453 82.3759C146.513 82.7707 144.573 83.1655 142.481 83.5879C141.725 82.1693 143.08 81.8572 144.001 81.343C147.319 79.4929 150.633 77.6429 153.969 75.8295C154.942 75.3016 155.988 74.9068 156.992 74.4293C159.776 73.1118 162.587 71.8585 165.32 70.4446C168.407 68.847 171.343 66.951 174.476 65.459C178.135 63.7191 181.937 62.2868 185.661 60.6846C185.937 60.5653 186.057 60.1108 186.288 59.8445C186.942 59.0825 187.209 57.8108 188.822 58.4857C189.412 58.7336 190.518 58.2975 191.136 57.8384C192.924 56.5117 195.841 57.2967 196.951 54.4917C197.228 53.7985 199.126 53.6792 200.306 53.4221C202.274 52.9906 204.292 52.9722 205.813 51.1635C206.481 50.3738 207.993 50.3096 209.108 49.8826C213.154 48.3401 217.191 46.7793 221.505 45.122C221.518 44.9154 221.56 44.337 221.592 43.9422C223.781 43.3179 225.882 42.7211 227.984 42.1243C227.942 41.757 227.901 41.3943 227.859 41.0271C227.279 41.073 226.666 41.0225 226.118 41.1786C223.187 42.0187 220.246 42.8312 217.362 43.8091C215.343 44.4931 213.417 45.4434 211.435 46.2376C210.841 46.4763 210.205 46.5957 209.449 46.8068C209.818 44.7961 209.813 44.8099 211.288 44.9246C211.661 44.9522 212.09 44.9981 212.403 44.842C214.468 43.8366 216.592 42.9185 218.541 41.7157C221.666 39.7922 224.878 38.1854 228.518 37.4371C229.611 37.2122 230.537 36.2711 231.615 35.8809C236.532 34.0951 241.482 32.4103 246.403 30.6336C247.781 30.1378 249.076 29.4079 250.445 28.8754C253.33 27.7552 256.219 26.6535 259.136 25.6251C260.593 25.1156 262.15 24.886 263.583 24.3306C264.238 24.078 264.703 23.3344 265.252 22.811L264.906 22.0719C262.39 22.6687 259.754 22.9763 257.394 23.9541C255.192 24.8631 252.141 23.8164 250.579 26.7177C250.233 26.4469 249.791 26.098 249.841 26.1347C247.182 27.163 244.864 27.9802 242.615 28.9534C238.864 30.574 234.966 31.5839 231.007 32.5939C227.348 33.5258 223.998 35.6238 220.454 37.0744C218.177 38.0064 215.79 38.6766 213.472 39.5167C212.629 39.8197 211.841 40.2696 210.85 40.7333L210.551 39.2826C207.357 39.3193 204.961 40.9536 202.444 42.8955C199.666 45.0348 196.951 47.5046 193.334 48.386C192.375 48.6202 191.467 49.0793 190.569 49.5108C189.195 50.1673 188.053 51.292 186.693 49.1114C186.025 48.0372 182.942 50.0938 182.776 51.9622C184.108 51.5078 185.361 51.0762 186.615 50.6447C186.693 50.9569 186.776 51.2736 186.854 51.5858C184.255 51.4481 182.38 54.5606 179.661 53.0365C178.334 53.344 177.191 53.5828 176.066 53.8812C175.647 53.9913 175.269 54.2484 174.873 54.4366L175.817 55.9608C175.071 56.0159 174.062 56.3602 173.799 56.0618C172.306 54.3448 171.665 55.5384 171.149 56.7641C169.988 56.5851 169.025 56.4336 168.062 56.2867C167.997 56.0985 167.933 55.9103 167.868 55.7267C184.771 48.4733 200.02 37.8319 217.933 32.649C217.781 32.2909 217.634 31.9374 217.481 31.5793C214.67 32.5663 211.832 33.4707 209.062 34.5587C205.205 36.0783 201.408 37.7493 197.573 39.3285C191.721 41.7432 185.818 44.034 180.02 46.5681C175.624 48.487 171.366 50.709 167.039 52.7748C165.029 53.7343 162.969 54.5973 160.983 55.6027C159.674 56.2638 158.555 56.5576 157.564 53.9822C155.421 61.3273 148.333 60.4597 144.089 64.6465C143.734 62.677 143.522 61.4926 143.31 60.3036C142.121 62.1721 144.352 64.7337 141.034 66.3496C141.471 65.1377 141.753 64.3481 142.177 63.1728C140.771 63.7375 139.587 64.2103 138.236 64.752C138.024 64.3527 137.771 63.8844 137.522 63.4161C136.227 64.1231 135.071 64.752 133.591 65.5646C134.388 66.143 134.951 66.5516 135.785 67.1576C135.098 67.5753 134.55 68.039 133.918 68.2594C133.352 68.4568 132.688 68.3879 132.066 68.4338C132.37 69.026 132.674 69.6182 133.034 70.316C131.757 71.023 130.439 71.7484 129.034 72.5288C129.034 71.73 129.204 70.8807 128.987 70.1462C128.743 69.3107 128.153 68.5807 127.711 67.8003C126.716 68.3696 125.508 68.7506 124.785 69.5631C124.112 70.316 123.868 70.9036 122.628 71.4178C120.342 72.3681 117.563 73.6765 117.121 76.7844C113.964 75.6505 112.453 78.7033 109.513 79.2358C110.416 78.056 111.121 77.1379 111.826 76.2151L111.499 75.981C107.96 77.9091 104.374 79.75 100.909 81.8021C99.5678 82.5917 98.5033 83.845 97.319 84.8871C96.2637 85.8144 95.3005 86.8932 94.1208 87.6231C93.4987 88.0087 92.4986 87.793 91.577 87.614C89.6968 88.2199 91.7567 90.8872 89.2267 91.663C87.0977 92.3149 85.2267 93.8206 82.4985 95.3677C81.5907 97.4382 72.8349 101.138 70.8855 99.6693C74.563 96.9699 78.2773 94.2384 82.222 91.3416V89.8772C80.1022 90.8688 77.9501 91.8374 75.8395 92.8841C75.1805 93.2101 74.5307 93.6646 74.0468 94.2108C72.0514 96.4787 72.0791 96.5016 69.1159 94.4174C70.0191 93.9308 70.8026 93.5636 71.5261 93.0999C73.8072 91.6263 76.0929 90.1572 78.328 88.6102C81.2819 86.5673 84.1207 84.3453 87.1438 82.4081C89.5309 80.8747 92.1807 79.7546 94.5816 78.2534C95.8858 77.4363 97.9273 77.069 97.6231 74.3008C90.9871 77.6199 84.5216 80.8518 77.8349 84.1938C78.1529 83.6154 78.305 82.9038 78.7381 82.6192C80.9962 81.1456 83.3004 79.7271 85.646 78.3911C90.2452 75.7652 94.9134 73.2587 99.4895 70.5915C100.835 69.8065 101.973 68.6634 103.204 67.6809L102.6 66.7628C101.052 67.5983 99.4987 68.4292 97.9595 69.2831C97.7015 69.4254 97.5217 69.8569 97.2913 69.8661C92.5493 70.0681 90.2682 75.274 85.4755 75.5816C84.282 75.6597 83.2635 77.2848 82.0101 77.8678C80.7382 78.46 79.2681 78.6345 77.8948 79.0201C77.3971 79.1578 76.6644 79.245 76.48 79.5893C74.7519 82.8717 71.0883 82.5963 68.3878 84.0699L68.4523 84.1387C68.8947 83.5603 69.2219 82.812 69.7933 82.4264C71.6597 81.1731 73.6321 80.0714 75.5307 78.8686C75.8533 78.6666 76.0238 78.2259 76.116 77.6979C70.8072 79.6215 66.8071 83.9873 61.231 85.8511C61.4476 84.4739 61.6043 83.5144 61.761 82.5595C62.6596 82.6835 63.7702 83.1976 64.397 82.8488C67.5491 81.0905 70.5998 79.144 73.6229 77.1654C74.3556 76.688 74.8487 75.8433 75.4524 75.1685C75.2819 74.9573 75.1114 74.7507 74.9409 74.5395C74.1114 74.8195 73.1528 74.9297 72.4754 75.4209C71.5123 76.1233 70.8763 77.2986 69.8809 77.9275C67.2495 79.5847 64.503 81.0538 61.8025 82.6008C59.2356 83.5465 56.6365 84.4188 54.1112 85.4655C52.9637 85.9383 51.9821 86.7922 50.8807 87.389C48.489 88.6882 46.0926 89.9874 43.6502 91.181C40.6133 92.6638 37.5211 94.0456 34.452 95.4595C34.1202 95.611 33.5487 95.5789 33.4335 95.8038C32.1063 98.416 29.2031 98.4068 27.074 99.6647C26.8252 99.8116 26.3828 99.8345 26.2998 100.027C25.0694 102.915 21.8389 102.603 19.7698 104.127C18.908 104.76 18.1661 105.587 17.2398 106.096C14.4379 107.634 11.4702 108.897 8.76507 110.581C6.68671 111.876 4.91249 113.648 2.99082 115.195C2.19357 115.838 1.37329 116.444 0.562219 117.068C0.364061 116.88 0.165902 116.692 -0.0368652 116.504C0.580653 115.801 1.11522 114.998 1.83412 114.419C4.56226 112.211 7.33187 110.058 10.1153 107.919C12.0554 106.427 14.0601 105.017 16.0002 103.521C17.1937 102.603 18.3504 101.625 19.4334 100.583C19.5762 100.445 19.1799 99.7565 19.1799 99.7657C20.5578 98.3701 21.6776 97.0434 23.0002 95.9553C24.3136 94.8765 25.7192 93.6049 27.2814 93.2101C29.1662 92.7372 29.8114 92.1772 28.8344 90.3087C31.3321 89.8726 33.71 89.4916 36.0695 89.0279C36.9912 88.8443 37.9451 88.601 38.7515 88.1511C40.9036 86.9575 43.088 85.7822 45.0558 84.327C46.6226 83.1701 47.7747 81.4715 49.3185 80.2779C50.8577 79.0889 52.6826 78.2764 54.3324 77.2159C55.0605 76.7477 55.5858 75.9489 56.3324 75.5265C59.3554 73.8188 62.4292 72.2028 65.3739 70.2931C62.2587 70.6144 59.4476 71.6841 57.0651 73.8325L56.6734 73.2495C57.6642 72.616 58.6412 71.9641 59.6412 71.3444C61.3278 70.3023 63.0099 69.2556 64.7242 68.2548C67.7058 66.5195 70.7288 64.8439 73.7058 63.0948C76.4294 61.4972 79.0607 59.7298 81.8442 58.247C83.7797 57.2186 85.9318 56.6127 87.9318 55.6945C88.9594 55.2217 89.8028 54.3448 90.835 53.8904C93.8673 52.5636 96.8673 51.2048 99.3282 48.9415C99.743 48.5605 99.895 47.8902 100.181 47.3302C98.2775 48.0509 96.7521 48.4824 95.3743 49.1894C93.4526 50.1718 91.7014 51.4986 89.7567 52.4351C86.5769 53.9638 83.5585 55.7726 80.0054 56.5989C77.9962 57.0671 76.3003 58.7703 74.3833 59.7573C73.7104 60.1062 72.7888 59.9823 71.9823 60.0787L72.0376 60.1475C74.586 58.6601 77.1529 57.2049 79.6736 55.6716C82.5354 53.9271 85.3419 52.0908 88.2037 50.3417C89.1392 49.7724 90.1622 49.3409 91.1668 48.8864C93.7014 47.7388 95.4434 45.2047 98.5217 44.8879C99.0932 44.8282 99.5172 43.3179 100.015 42.4869C102.153 43.6025 103.697 41.6468 105.568 41.3622C105.84 41.3209 105.964 40.3063 106.282 39.3606C103.821 40.6047 101.927 41.5688 100.029 42.5283C98.8628 43.07 97.6922 43.5979 96.5356 44.158C94.7567 45.021 92.9687 45.8657 91.2267 46.793C89.471 47.725 87.835 48.9232 86.0101 49.6623C84.9594 50.0892 83.5539 50.1259 82.4479 49.8275C80.1944 49.2124 80.9317 50.888 80.5446 51.1405C78.2312 51.5261 75.9224 51.9117 73.7565 52.2698C74.1344 51.7786 74.6598 51.09 75.1897 50.406L74.8948 50.002C69.5583 51.8612 64.2173 53.7205 59.3785 55.4099C59.6273 54.7305 60.0467 53.4955 60.549 52.2974C60.6827 51.9806 61.0605 51.572 61.3601 51.5445C64.3647 51.2369 65.1021 47.7938 67.7426 46.995C67.8947 46.9491 68.1021 46.5819 68.0514 46.4396C67.1666 43.7907 69.632 43.529 70.9086 42.4273C71.7841 41.6698 72.6597 40.9077 73.6459 40.0493C74.821 39.9437 76.2312 39.8151 77.3418 39.7141C77.752 38.5802 78.0469 37.7631 78.5031 36.5006C76.9962 37.0056 75.7335 37.4234 74.4386 37.8549C74.0699 37.0148 74.1759 36.1839 72.2173 36.8725C68.821 38.0752 66.609 40.8756 63.4338 42.161C61.9085 42.7762 60.1988 42.946 58.2817 43.3867C59.0283 42.4686 59.6135 41.7386 60.2034 41.0133L59.8716 40.6461C58.2218 41.4908 56.572 42.34 54.8439 43.226C53.4522 42.2528 53.6641 41.454 55.0605 40.5634C57.9315 38.7363 60.8209 36.923 63.5536 34.9076C65.4707 33.4937 67.1343 31.7354 68.9362 30.1654C69.5491 29.6283 70.245 29.1876 70.9132 28.7147C71.2726 28.4576 71.9777 28.2235 71.9731 27.9848C71.9224 24.5509 75.1989 25.0513 76.9547 23.8669C80.0423 21.7781 83.3188 19.9556 86.6046 18.1744C89.7705 16.4574 93.0609 14.9746 96.2591 13.3128C98.9549 11.9126 101.568 10.3609 104.264 8.95615C106.347 7.86814 108.563 7.02803 110.591 5.8528C113.384 4.23686 116.098 2.46484 118.771 0.651497C121.315 -1.07462 123.762 -2.93847 126.573 -4.97217C126.342 -5.53683 126.024 -6.33562 125.711 -7.12063C126.49 -6.56056 127.264 -6.00967 127.808 -5.61946C129.089 -6.5927 130.292 -7.50626 131.494 -8.41982C131.347 -8.631 131.199 -8.84216 131.057 -9.05333L125.716 -7.09769C123.582 -5.77096 121.453 -4.44423 119.319 -3.1175C119.172 -3.33327 119.024 -3.54446 118.877 -3.76022C120.08 -4.8115 121.158 -6.06017 122.504 -6.87732C125.411 -8.64476 128.513 -10.1092 131.407 -11.895C132.061 -12.299 132.213 -13.5109 132.688 -14.553C134.734 -12.299 136.72 -14.4475 138.679 -15.3748C139.292 -15.6686 139.342 -17.1422 139.826 -18.6021C140.61 -19.0244 141.785 -19.7819 143.375 -18.4139C143.84 -18.0145 145.499 -18.4001 146.172 -18.9556C147.476 -20.0298 148.467 -21.4759 149.453 -22.6098C150.527 -22.4124 151.601 -22.2196 152.886 -21.9855V-23.8814C155.979 -25.502 158.85 -27.173 161.868 -28.5319C164.287 -29.6245 166.873 -30.2947 168.698 -32.4569C169.085 -32.916 170.025 -32.9114 170.822 -33.1547C171.052 -36.8136 174.573 -36.0928 176.684 -37.2681C178.177 -38.099 179.937 -38.4479 181.587 -38.9896C182.55 -39.3063 183.624 -39.4211 184.467 -39.9307C185.26 -40.4081 185.845 -41.262 186.467 -41.9919C187.03 -42.653 187.564 -44.0027 188.03 -43.9659C191.702 -43.6951 193.666 -47.1427 196.933 -47.7809C199.283 -48.2399 201.504 -49.3555 203.776 -50.1864C204.739 -50.5353 205.693 -50.9072 206.79 -51.3157C205.601 -52.9684 204.385 -51.5499 203.26 -51.4397C201.643 -51.2836 200.03 -51.0403 198.417 -50.8337L198.463 -50.7832C199.03 -51.38 199.495 -52.2752 200.186 -52.5139C202.477 -53.3127 204.855 -53.8544 207.186 -54.5293C208.039 -54.7772 208.85 -55.1765 209.703 -55.4198C210.168 -55.553 210.689 -55.4795 211.173 -55.5576C211.716 -55.6494 212.311 -55.6999 212.767 -55.9661C213.85 -56.5951 214.781 -57.5408 215.919 -57.9999C219.025 -59.2439 222.219 -60.2814 225.353 -61.4705C225.583 -61.5577 225.606 -62.1912 225.671 -62.4024C222.744 -61.902 219.869 -61.5164 217.053 -60.8691C215.979 -60.6212 215.044 -59.7627 214.15 -58.941C211.458 -59.2026 208.841 -59.4735 206.186 -57.6234C204.864 -56.7007 202.643 -57.0633 200.827 -56.8476L200.537 -57.4352C201.191 -57.7979 201.804 -58.3396 202.504 -58.4911C205.73 -59.1797 209.044 -59.5423 212.2 -60.4467C214.721 -61.1675 217.011 -62.6411 219.505 -63.5133C221.523 -64.2203 223.707 -64.4498 225.776 -65.0283C228.067 -65.671 230.316 -66.4698 232.578 -67.1997C232.505 -67.567 232.436 -67.9342 232.362 -68.3061C228.062 -67.7965 223.767 -67.2869 219.468 -66.7773C219.417 -66.9793 219.371 -67.1813 219.32 -67.3787C223.422 -68.7697 227.523 -70.1561 232.159 -71.7262C227.74 -72.5755 224.154 -71.4094 220.564 -70.3949C217.799 -69.6144 215.085 -68.6182 212.283 -68.0536C211.666 -67.9296 210.763 -69.2288 209.993 -69.8715C210.61 -70.2525 211.182 -70.8034 211.855 -70.9825C214.528 -71.6849 217.242 -72.2312 219.919 -72.9198C220.505 -73.0713 221.044 -73.5212 221.5 -73.9435C221.606 -74.0445 221.251 -74.9076 221.164 -74.8984C220.569 -74.8341 219.988 -74.6321 219.26 -74.4393C219.228 -76.2159 218.062 -76.6153 216.56 -76.4592C215.288 -76.3261 214.025 -76.1103 212.763 -75.9313L212.67 -76.5143C213.422 -76.7301 214.173 -76.9504 215.145 -77.2351C215.002 -77.8869 214.846 -78.5802 214.592 -79.737C216.14 -79.8059 217.624 -79.8702 218.647 -79.9115C220.74 -81.1051 222.574 -82.9505 224.495 -83.0469C227.012 -83.1709 228.717 -83.832 230.403 -86.2651C219.334 -85.2643 208.795 -83.6437 198.481 -80.3981C201.827 -83.6942 206.965 -83.3453 210.693 -86.2605C206.279 -87.3026 202.822 -83.7585 198.758 -83.4326C198.666 -83.6621 198.578 -83.8916 198.486 -84.1212C199.878 -84.7731 201.223 -85.5719 202.679 -86.0447C205.14 -86.8435 207.652 -87.5275 210.182 -88.0876C212.297 -88.5558 214.486 -88.689 216.597 -89.1618C217.652 -89.4005 219.574 -88.7991 219.196 -91.0348C220.246 -91.2782 221.27 -91.5123 222.523 -91.8015C223.8 -89.6255 225.726 -91.7005 227.744 -91.2873C227.426 -92.031 227.219 -92.5085 226.915 -93.22C228.583 -93.22 230.076 -93.4083 231.505 -93.1787C233.952 -92.7885 236.468 -94.1382 237.016 -96.5529C237.173 -97.2415 236.984 -98.1964 236.592 -98.7886C235.846 -99.9133 236.085 -101.419 237.39 -101.548C239.675 -101.768 241.998 -101.809 244.293 -101.722C245.459 -101.676 245.961 -101.993 246.85 -102.828C247.892 -103.802 249.929 -103.71 251.519 -104.118C254.058 -104.775 256.579 -105.519 259.132 -106.115C260.104 -106.345 261.146 -106.272 261.984 -106.648C265.468 -107.433 269.293 -107.571 272.339 -109.177C275.717 -110.959 279.261 -110.596 282.8 -111.79C282.915 -112.129 283.127 -112.74 283.413 -113.571C285.943 -111.335 288.786 -112.239 291.515 -112.171C292.722 -112.143 293.92 -111.762 295.127 -111.565C295.528 -111.5 296.017 -111.335 296.326 -111.491C298.155 -112.423 299.768 -111.707 301.593 -111.294C304.114 -110.725 306.805 -110.936 309.423 -110.793C309.985 -110.761 310.547 -110.656 311.598 -110.523C310.501 -109.756 309.897 -109.329 309.289 -108.907C311.349 -108.893 310.395 -103.834 313.856 -106.198C316.082 -103.526 319.289 -105.216 322.621 -104.743C322.022 -104.082 321.685 -103.411 321.377 -103.425C319.63 -103.499 317.888 -103.737 316.146 -103.916C315.773 -103.953 315.294 -104.132 315.04 -103.972C311.358 -101.594 307.482 -101.176 303.27 -102.369C302.39 -102.617 301.22 -101.841 300.27 -101.038C302.118 -100.845 303.966 -100.652 306.192 -100.423C303.533 -98.3754 301.257 -96.8192 297.943 -97.7144C295.243 -98.4443 292.409 -98.6922 289.634 -99.1605C289.413 -99.1972 289.187 -99.266 288.989 -99.367C287.745 -100.001 285.805 -99.7848 284.796 -98.885C284.086 -98.2515 283.127 -97.7511 282.726 -96.9615C282.035 -95.5934 284.694 -92.862 286.238 -92.9354C287.929 -93.018 289.644 -92.7196 291.349 -92.6186C291.865 -92.5865 292.399 -92.6049 292.906 -92.6921C295.533 -93.1649 298.146 -93.6929 300.773 -94.1611C303.551 -94.6523 306.321 -95.2767 309.123 -95.5016C311.04 -95.6577 313.003 -95.2308 315.077 -95.0563C314.833 -93.3899 314.736 -92.256 317.418 -92.7977C321.612 -93.647 325.957 -93.7342 330.238 -94.1887C333.626 -94.5468 336.999 -95.0747 340.395 -95.2996C341.667 -95.3869 342.971 -94.7304 344.28 -94.611C346.142 -94.4412 348.031 -94.3218 349.888 -94.4687C350.57 -94.5238 351.644 -95.3226 351.746 -95.9194C352.031 -97.5537 352.833 -97.5124 354.036 -97.1084C354.962 -96.8008 355.907 -96.3785 356.856 -96.3463C357.658 -96.3142 358.483 -96.7549 359.294 -97.0028C359.861 -97.1727 360.409 -97.5032 360.976 -97.5307C362.483 -97.6042 363.999 -97.5583 365.617 -97.5583L365.137 -95.7358C366.99 -95.9148 368.621 -96.2224 370.239 -96.1765C371.474 -96.1397 373.75 -95.6439 373.746 -95.3685C373.727 -93.6516 372.234 -93.422 370.801 -93.3118C370.354 -93.2797 369.921 -93.1007 369.478 -92.9905C369.52 -92.2192 369.557 -91.526 369.626 -90.2223C368.842 -91.1863 368.446 -91.673 368.054 -92.1596L368.119 -92.0953C367.755 -92.5222 367.326 -93.3623 367.031 -93.321C363.718 -92.8436 360.128 -93.3899 357.331 -90.8283C356.93 -90.4564 356.229 -90.4105 355.428 -90.1305C356.239 -89.9836 356.861 -89.8688 357.621 -89.7357C357.119 -89.148 356.663 -88.6155 356.206 -88.083C356.276 -87.8856 356.345 -87.6836 356.414 -87.4862C357.234 -87.702 358.059 -87.9131 358.879 -88.1289C359.285 -88.2345 359.704 -88.487 360.091 -88.4365C360.87 -88.3401 362.253 -88.161 362.289 -87.8764C362.497 -86.2375 361.211 -86.7609 360.271 -86.7012C359.607 -86.6599 358.958 -86.3706 358.239 -86.1778C358.331 -85.7784 358.423 -85.3928 358.451 -85.2918C356.953 -84.8832 355.566 -84.5022 354.146 -84.1166C354.248 -82.317 354.939 -81.7248 356.469 -81.7294C358.948 -81.734 361.428 -81.5641 363.902 -81.4172C364.266 -81.3943 364.612 -81.1234 364.912 -80.5358C359.266 -79.9849 353.621 -79.4386 347.524 -78.8464C349.58 -77.9696 351.128 -77.2075 352.755 -76.6888C353.16 -76.5602 353.819 -77.2259 354.363 -77.5197C354.838 -77.7768 355.676 -78.3139 355.736 -78.2358C356.971 -76.6979 358.317 -77.763 359.704 -77.8273C362.534 -77.9512 365.395 -77.4187 368.23 -77.5243C370.101 -77.5931 371.889 -78.144 373.672 -77.0055C374.792 -76.2894 375.99 -75.6375 377.529 -76.2113C378.055 -76.4087 378.893 -75.766 379.797 -75.4263C381.156 -77.9558 384.119 -75.8073 386.262 -76.8081L386.216 -76.8357C386.81 -75.8165 386.073 -74.0307 384.949 -73.8701C381.797 -73.4202 378.621 -73.085 375.492 -72.5204C374.746 -72.3872 374.124 -71.5425 373.455 -71.01C372.967 -70.6152 372.557 -69.9771 372.008 -69.8302C370.262 -69.3573 368.414 -69.2242 366.718 -68.6274C366.018 -68.3795 365.607 -67.3053 365.064 -66.6029L365.082 -66.6626C364.156 -66.8921 363.151 -67.4751 362.317 -67.2823C360.064 -66.7682 357.884 -65.9281 355.04 -65.0099C356.395 -64.4315 357.345 -64.1285 358.193 -63.6465C361.566 -61.7367 365.091 -61.195 368.856 -62.2233C370.4 -62.6457 371.921 -62.3473 373.386 -63.9632C374.294 -64.964 377.225 -64.1514 379.248 -64.1514L379.52 -63.0864C378.598 -62.6549 377.718 -62.0672 376.75 -61.8102C371.469 -60.4284 366.137 -59.2302 360.888 -57.729C359.718 -57.3939 357.736 -57.2148 357.847 -55.4887C358.93 -55.7596 360.428 -56.5721 360.902 -56.1727C362.58 -54.7726 365.99 -54.5155 365.054 -51.0908C364.672 -49.6814 364.806 -47.8864 362.815 -47.2759C362.428 -47.1565 362.045 -46.2154 362.082 -45.6875C362.285 -42.9468 360.363 -41.565 358.594 -40.1373C356.534 -38.4754 353.778 -37.3507 352.372 -35.2849C350.515 -32.5579 347.626 -31.7729 345.275 -30.0284C344.068 -29.1332 343.142 -28.3023 343.46 -26.5854C343.778 -24.8776 342.967 -24.3451 341.34 -24.9924C340.953 -25.1439 340.183 -25.277 340.109 -25.1347C338.575 -22.3252 335.644 -22.8715 333.225 -22.2058C331.782 -21.8064 330.28 -21.5448 328.925 -20.9434C327.764 -20.4292 326.773 -19.5294 325.487 -18.648C327.077 -16.9494 328.907 -18.2807 330.432 -18.4689C334.119 -18.928 337.75 -19.8232 341.418 -20.443C342.63 -20.6496 343.902 -20.6312 345.137 -20.544C345.515 -20.5164 345.833 -19.8875 346.202 -19.5616C347.169 -18.7031 348.073 -17.2524 349.137 -17.1239C351.746 -16.8071 351.418 -15.1957 351.345 -13.5155C351.303 -12.4872 351.28 -11.4543 351.248 -10.426C352.358 -10.4948 353.469 -10.5637 354.833 -10.6463C354.552 -10.0908 354.377 -9.03956 353.833 -8.79625C351.87 -7.91024 350.681 -6.66616 350.819 -4.42129L349.672 -6.5881C348.985 -6.16116 348.303 -5.73424 347.616 -5.31189C346.298 -4.50851 344.501 -4.25142 344.225 -2.28658C344.123 -1.57042 343.98 -0.858864 343.759 0.403587C345.4 -0.174843 346.552 -0.578835 347.736 -0.991997C349.483 1.35387 350.05 1.33092 352.4 -0.991997C352.746 -1.3363 353.879 -1.45566 354.156 -1.18481C354.732 -0.62014 355.285 0.279648 355.28 1.04171C355.276 1.77623 354.699 2.65306 354.123 3.20395C351.939 5.29273 349.206 6.12825 346.248 6.58733C345.013 6.78014 343.547 7.45957 342.81 8.40067C341.75 9.75494 340.46 10.2048 338.98 10.4527C336.423 10.8843 333.838 11.1597 331.294 11.6371C330.478 11.7886 329.745 12.3763 328.778 12.8629C330.294 15.0664 332.146 14.3641 333.778 13.8958C335.888 13.2898 337.902 12.3671 339.99 11.6739C340.289 11.5729 340.764 11.9769 341.151 12.1467C342.142 10.4619 343.165 9.54377 344.842 11.4856C345.179 11.8713 346.179 11.8116 346.861 11.7611C350.46 11.4902 354.064 11.2653 357.644 10.8246C362.045 10.2829 366.423 9.56212 370.801 8.86433C371.184 8.80465 371.506 8.36395 372.336 8.32722C371.962 9.02042 371.76 9.95234 371.184 10.3655C367.824 12.7894 363.967 13.4872 361.663 12.2523C360.216 13.8315 355.981 15.0159 354.11 14.2998C351.856 17.0083 348.469 16.9211 345.391 17.7336C341.252 18.8262 337.179 20.153 333.068 21.3603C332.225 21.6082 331.275 21.6174 330.515 22.0076C330.031 22.2555 329.483 23.0635 329.556 23.518C329.635 23.9908 330.455 24.707 330.916 24.684C332.718 24.5876 334.501 24.2341 336.298 23.9862C338.603 23.6695 341.05 23.7337 343.169 22.9304C344.921 22.2647 346.515 21.7643 348.414 21.5945C351.183 21.3512 353.898 20.433 356.626 19.7628C359.239 19.1201 361.829 18.3855 364.446 17.7796C365.833 17.4582 367.266 17.3205 368.778 17.0863C367.746 18.1652 367.036 19.1155 364.971 18.941C362.856 18.762 360.626 19.9051 358.451 20.4835C355.635 21.2318 352.861 22.329 349.994 22.6825C344.828 23.3206 339.897 25.1752 334.681 25.4369C334.538 25.4461 334.298 25.4736 334.275 25.5517C333.718 27.2732 332.847 28.9856 332.764 30.7392C332.699 32.0751 333.778 32.7041 335.395 31.919C336.561 31.3544 338.174 31.6849 339.321 31.0973C343.128 29.1462 347.377 29.2151 351.381 28.2143C354.16 27.5211 357.077 27.3696 359.939 27.0207C364.746 26.4331 369.557 25.8593 374.372 25.3313C378.004 24.9319 381.644 24.6335 385.276 24.2617C388.663 23.9128 392.225 24.0643 395.391 23.0222C400.202 21.4338 405.225 22.0398 410.046 20.8599C411.543 20.4927 413.341 21.6037 415.027 21.7138C418.714 21.9571 422.083 23.899 425.931 23.5042C426.834 23.4124 427.862 25.0467 428.862 23.3481C429.419 22.4024 430.106 21.5348 430.894 20.4009C431.336 20.557 432.097 20.8278 432.862 21.0987C433.507 20.1622 434.051 18.537 434.815 18.4268C436.885 18.1285 439.055 18.4039 441.175 18.5875C443.217 18.762 445.244 19.1109 447.276 19.368C448.498 19.5194 449.723 19.6388 450.945 19.7719C450.931 20.052 450.922 20.3366 450.908 20.6166C448.991 20.8094 447.069 20.9426 445.166 21.2226C444.511 21.319 443.908 21.7827 443.281 22.0765C443.691 22.5998 444.12 23.1186 444.516 23.6557C445.143 24.5096 445.747 25.3818 446.438 26.3551C446.742 25.8225 447.064 25.2579 447.659 24.2204C448.097 26.0154 448.438 27.4063 448.945 29.486C447.111 30.3169 444.894 31.2718 442.719 32.3139C440.06 33.5855 437.428 33.8885 434.502 33.0851C433.723 32.8693 432.751 33.3559 431.991 32.4332C431.862 32.2771 430.949 32.7683 429.968 33.108C431.106 33.8977 431.769 34.3567 432.516 34.8755C432.152 35.2795 431.815 35.6559 431.479 36.0369C431.557 36.2114 431.636 36.3904 431.714 36.5649L434.074 35.6972C438.272 35.8992 442.889 34.6964 447.47 35.1647L447.608 36.317C444.553 37.0423 441.502 37.7768 438.447 38.493C437.051 38.8189 435.604 39.0072 434.263 39.4892C433.774 39.6636 433.53 40.5129 432.972 41.3576C431.253 41.7616 428.594 40.9077 426.967 42.9781C423.838 43.5979 420.682 44.2222 417.53 44.8512L417.566 45.3975H426.838L427.004 45.6086C426.567 45.7556 426.133 45.9943 425.686 46.0264C422.977 46.2192 420.636 47.0685 418.751 49.1756C418.212 49.777 417.055 49.823 416.253 50.103C415.585 49.1252 415.055 48.3447 414.719 47.8489C413.838 49.2032 413.004 50.484 412.184 51.7465C408.248 50.9997 405.84 51.116 404.958 52.0954C404.88 51.898 404.797 51.7052 404.718 51.5078C403.894 51.8429 403.096 52.2882 402.244 52.4856C400.635 52.8528 399.004 53.1788 397.368 53.3349C394.884 53.569 392.377 53.5644 389.898 53.8398C389.234 53.9133 388.7 54.836 388.009 55.0243C386.861 55.3318 385.626 55.5247 384.451 55.4512C383.529 55.3915 382.64 54.8544 381.585 54.4734C380.76 55.0702 379.797 55.768 378.543 56.6769C376.741 56.1077 374.529 55.6486 372.497 57.416C373.368 57.2232 374.239 57.035 375.11 56.8422C368.386 60.7673 360.211 61.4789 353.907 66.3175C353.958 66.5929 354.013 66.8638 354.064 67.1392L360.534 65.7941C354.607 68.5761 352.792 69.0031 352.142 67.1805C351.736 67.6901 351.391 68.1171 350.833 68.8194C350.137 67.9197 349.524 67.1346 348.916 66.3496C346.294 68.3879 345.432 68.1584 347.16 70.4813C345.501 72.6573 343.391 71.6933 341.262 71.2847C340.925 72.4966 342.386 74.5992 339.533 74.6726C339.58 73.984 339.635 73.2312 339.718 72.0054C338.151 72.4966 336.851 72.9144 335.552 73.3092C335.192 73.4194 334.722 73.6581 334.469 73.525C332.109 72.2855 330.437 74.2824 328.469 74.7874C327.602 75.0078 326.916 75.8662 326.105 76.3712C325.192 76.9405 324.22 77.4133 323.298 77.9688C322.667 78.3498 322.086 78.8227 321.469 79.2312C320.132 80.1173 318.81 81.0171 317.427 81.825C317.252 81.9306 316.768 81.522 316.432 81.3476L316.377 81.4302V77.7071C315.911 78.0331 315.639 78.3544 315.303 78.4371C313.344 78.9375 310.962 78.1065 309.533 80.2963C309.455 80.4203 309.105 80.4019 308.883 80.3927C305.616 80.232 305.422 80.4065 305.27 83.7118L305.349 83.643C304.128 80.8977 303.768 80.7829 301.224 82.0867C300.814 82.2979 300.215 82.0959 299.727 82.1969C298.957 82.353 298.201 82.6009 297.183 82.8855C296.021 81.7883 292.289 82.2749 289.542 84.4417C291.086 84.5795 292.409 84.6942 293.727 84.8136C293.763 84.9238 293.8 85.034 293.837 85.1441C292.92 85.3507 292.008 85.5573 290.902 85.8052C291.717 88.3622 294.095 86.1725 295.215 87.3431C294.174 88.7708 291.413 89.6293 289.75 89.4319C288.929 89.3355 287.551 89.7532 287.229 90.3592C286.349 92.0165 285.51 91.461 284.556 90.676C282.141 88.6974 280.501 88.7984 278.026 90.8963C277.27 91.5344 276.206 91.8145 274.961 92.4159C277.547 94.6699 278.367 90.2628 280.68 91.6997C279.141 92.7234 277.708 93.6783 275.86 94.9086C275.519 94.445 275.164 93.7839 274.639 93.3157C274.284 92.9989 273.616 92.7189 273.201 92.829C271.422 93.2973 269.159 93.435 268.063 94.6102C266.851 95.9048 266.321 96.295 264.758 94.5598C264.92 95.4641 264.984 95.813 265.127 96.6026C264.132 96.0976 263.344 95.7029 262.335 95.1933C261.708 97.4978 259.989 96.295 258.574 96.2767C259.546 95.4595 260.51 94.6516 261.477 93.8436C261.27 93.536 261.063 93.2284 260.855 92.9209C260.164 93.3019 259.265 93.5314 258.846 94.1098C258.487 94.6102 258.675 95.5054 258.62 96.2262C258.542 97.025 258.463 97.8284 258.445 98.0395C256.039 98.6317 253.897 99.1367 251.768 99.6968C250.694 99.9768 249.579 100.234 248.597 100.73C247.648 101.212 246.924 102.139 245.97 102.598C242.92 104.063 239.85 105.499 236.708 106.744C235.228 107.331 233.56 107.451 231.781 107.818C231.597 109.268 230.726 109.971 228.864 109.695C228.214 109.599 227.422 110.48 226.482 111.036C226.012 108.75 230.219 108.281 227.97 105.697C222.408 106.702 217.399 109.975 211.693 113.52C213.14 113.327 214.09 113.414 214.832 113.06C216.242 112.386 217.481 111.353 218.892 110.673C220.081 110.099 221.412 109.815 223.15 109.25C222.882 110.067 222.873 110.811 222.541 110.999C220.403 112.22 218.205 113.34 216.002 114.451C215.062 114.924 214.09 115.521 213.09 115.618C212.454 115.677 211.739 114.911 211.067 114.52C210.518 114.442 209.961 114.36 209.408 114.277C206.145 113.914 203.739 116.026 201.057 117.266C200.348 117.592 200.007 118.712 199.767 119.065C197.214 119.786 194.85 120.456 192.274 121.181L193.246 124.882C192.076 123.913 191.357 123.316 190.477 122.586C190.232 122.779 189.721 123.472 189.348 123.403C188.523 123.257 187.762 122.729 186.979 122.352C188.384 121.296 187.062 118.377 189.818 118.225C190.011 118.216 190.195 118.018 190.053 118.101C190.781 118.794 191.297 119.547 192.011 119.868C192.463 120.07 193.739 119.588 193.735 119.465C193.679 118.5 193.403 117.546 193.122 116.274C193.753 116.132 194.583 115.948 195.495 115.746C195.758 116.54 195.956 117.142 196.154 117.748L196.486 117.725V114.406C197.776 114.897 198.855 115.305 199.933 115.714C200.044 115.581 200.159 115.443 200.269 115.31C199.73 114.727 199.186 114.144 198.523 113.428C203.721 110.972 208.933 108.511 214.14 106.05C214.048 105.761 213.956 105.467 213.864 105.178C212.975 105.435 212.053 105.614 211.196 105.963C207.735 107.368 204.288 108.8 200.855 110.269C197.357 111.761 193.873 113.29 190.407 114.846C189.813 115.112 189.371 115.746 188.772 115.957C186.91 116.614 185.002 117.146 183.085 117.27C182.269 118.381 181.453 119.492 180.527 120.745C180.804 120.989 181.195 121.338 181.582 121.686C181.435 121.884 181.288 122.077 181.14 122.274C180.564 121.82 179.988 121.37 179.366 120.883C178.126 121.462 176.375 121.296 175.656 123.211C175.458 123.734 173.499 124.28 173.099 123.941C171.172 122.302 170.089 123.734 168.831 124.753C168.596 124.941 168.412 125.253 168.154 125.332C166.029 125.983 163.859 126.511 161.762 127.241C160.209 127.778 158.744 128.563 156.84 129.417C155.932 131.602 155.204 131.901 152.112 131.841C150.896 131.818 149.661 132.521 148.052 133.007C147.896 132.86 147.37 132.365 146.578 131.621C147.504 131.295 148.315 131.244 148.665 130.817C149.052 130.349 149.011 129.532 149.158 128.871C148.55 128.903 147.716 128.692 147.361 129.009C143.955 132.071 140.236 134.609 135.9 136.175C135.375 136.363 134.776 136.34 134.209 136.414L134.052 135.803C137.564 133.466 141.034 131.056 144.619 128.839C145.697 128.173 145.748 126.24 147.541 126.571C148.061 124.312 150.412 124.895 151.739 123.895C152.656 123.201 153.697 122.646 154.508 121.852C155.688 120.695 156.711 119.382 157.896 118.028C158.297 118.349 158.688 118.666 159.14 119.028C159.26 118.859 159.398 118.702 159.485 118.519C160.048 117.321 160.204 115.723 162.301 117.137C163.416 117.89 164.891 116.297 164.877 114.406H162.688L162.416 113.786C165.145 112.257 167.859 110.692 170.61 109.204C173.513 107.634 176.449 106.119 179.389 104.618C180.619 103.989 181.91 103.48 183.149 102.869C183.914 102.488 184.638 102.015 185.38 101.584C187.744 100.431 190.108 99.2744 192.467 98.1222L192.237 97.5942C190.071 98.3792 187.91 99.1643 185.638 99.9906C185.583 100.45 185.509 101.042 185.435 101.634L185.509 101.597ZM79.2082 66.1476C82.2174 63.7329 86.3373 62.8239 88.9364 59.1651C84.5953 59.7481 82.3926 63.0443 79.3096 64.8944C79.0884 65.0275 79.2266 65.7528 79.199 66.1752C78.54 65.5279 77.8764 64.8852 76.7612 63.7926C76.4017 67.7682 71.9224 66.7031 70.9454 70.1416C74.0422 68.6404 76.6275 67.3917 79.2082 66.1431V66.1476ZM279.031 82.2244C281.86 82.1005 284.703 81.9673 287.224 80.4937C287.593 80.2779 287.667 79.5572 287.911 78.9879C284.275 78.662 284.289 78.6758 281.713 80.9298C281.413 81.1915 280.823 81.0905 280.436 81.2925C279.948 81.5496 279.528 81.9398 279.081 82.2749C278.247 82.1923 277.413 82.1142 276.579 82.0316C276.418 81.7424 276.261 81.4532 276.1 81.164C276.883 80.9161 277.666 80.6636 278.45 80.4157C278.261 80.2183 278.072 80.0255 277.878 79.828C276.957 80.1356 276.035 80.4432 275.312 80.6819C275.399 81.8893 275.473 82.9084 275.607 84.6988C276.952 83.7256 277.989 82.9727 279.026 82.2198L279.031 82.2244ZM211.818 54.3356C211.965 54.5101 212.177 54.8636 212.246 54.836C214.555 53.9684 216.882 53.1329 219.136 52.1367C220.38 51.5858 221.495 50.7457 222.666 50.0387L222.256 49.2032C220.389 51.5996 217.279 50.0892 215.196 51.9072C214.159 52.8161 212.984 53.5736 211.869 54.3953C209.085 55.3089 206.306 56.2225 203.527 57.1498C203.449 57.1773 203.44 57.4252 203.348 57.7603C203.799 57.8797 204.329 58.2148 204.689 58.0863C206.758 57.3426 208.813 56.5392 210.818 55.6394C211.26 55.442 211.491 54.7809 211.818 54.3311V54.3356ZM178.891 88.2842L181.532 86.4158C180.9 85.9842 180.269 85.5527 179.241 84.8503C179.126 86.4479 179.057 87.412 178.988 88.3806C178.412 87.7195 177.841 87.0631 176.965 86.0577C175.785 86.6407 174.002 87.5267 172.034 88.5C172.486 89.6936 173.043 91.158 173.734 92.9668C174.633 91.9935 175.168 91.2957 175.827 90.7402C176.375 90.2766 177.108 89.6522 177.679 89.7211C178.122 89.7762 178.444 90.7953 178.822 91.3875C178.882 91.9981 178.937 92.6087 179.043 93.7334C178.324 92.8428 178.039 92.1817 177.753 92.1772C175.112 92.1726 176.499 95.1887 174.877 96.116C179.135 96.0471 182.347 93.4947 185.988 91.8374C185.79 91.0341 185.615 90.3409 185.38 89.3768C184.426 89.5696 183.251 89.4594 182.698 89.992C181.55 91.1029 180.292 91.4243 178.817 91.3921L178.887 88.2842H178.891ZM228.366 81.5588C226.74 81.8663 225.099 82.128 223.491 82.5182C223.187 82.5917 222.869 83.1563 222.823 83.5282C222.795 83.7394 223.454 84.2811 223.555 84.226C225.159 83.3537 226.721 82.4081 228.293 81.4761C228.454 81.6322 228.648 81.9398 228.767 81.9168C230.938 81.4302 232.813 80.2183 235.168 79.9658C237.486 79.7133 239.657 78.2305 241.938 77.4179C242.542 77.2021 243.316 77.4684 244.007 77.5143C244.035 77.6612 244.067 77.8127 244.095 77.9596C242.781 78.6895 241.473 79.4149 240.159 80.1448C240.247 80.3376 240.334 80.535 240.417 80.7278C240.984 80.6865 241.588 80.7462 242.118 80.5809C244.574 79.8189 247.035 79.0522 249.45 78.1662C250.477 77.7898 251.394 77.1103 252.362 76.5686C251.791 75.8525 251.205 75.1409 250.652 74.411C250.528 74.2503 250.533 73.9932 250.385 73.4286C251.044 73.4286 251.731 73.2128 252.076 73.4653C254.044 74.8976 254.016 74.9343 257.076 73.5755C256.182 73.4377 255.602 73.4285 255.081 73.2495C254.606 73.0888 254.196 72.7399 253.758 72.4783C254.187 72.1248 254.588 71.5234 255.049 71.4729C255.998 71.3627 256.984 71.5509 257.989 71.6152C258.334 71.1515 258.717 70.6328 259.284 69.857C260.496 71.349 262.431 72.0376 261.97 74.4844C262.514 74.2962 263.099 74.0896 263.685 73.883C263.477 73.7315 263.265 73.5755 263.058 73.424C263.464 72.5838 263.722 71.6106 264.321 70.945C264.694 70.5318 265.583 70.5593 266.247 70.4216C267.252 70.215 268.371 70.2518 269.242 69.8019C270.505 69.15 271.514 68.0253 272.772 67.3596C273.56 66.9372 274.597 66.9832 275.524 66.8179C271.574 65.4039 268.03 66.6848 264.869 68.622C263.33 69.5677 262.302 69.9855 260.606 69.3198C259.754 68.9847 258.39 69.1041 257.606 69.5861C255.468 70.9036 253.288 71.4913 251.56 71.0138C249.823 72.0146 248.615 72.7124 247.408 73.4102C247.256 73.2082 247.104 73.0016 246.952 72.7996L247.45 71C246.053 71.1378 243.979 70.9679 243.837 71.4132C242.892 74.3467 241.841 72.8501 241.007 71.8585C239.855 73.1347 238.366 74.1631 237.781 75.5632C236.878 77.7347 235.675 77.8494 234.449 77.1792C232.247 78.3406 230.5 79.5205 228.574 80.1907C227.099 80.7049 227.454 80.9528 228.353 81.5679L228.366 81.5588ZM332.054 -91.673C330.515 -91.7694 329.344 -91.9254 328.174 -91.8979C326.708 -91.8658 324.934 -92.1596 323.856 -91.4572C321.93 -90.2039 320.142 -90.4885 318.123 -90.6263C316.141 -90.7594 313.856 -90.8879 312.178 -90.0616C309.326 -88.6568 306.547 -87.5183 303.335 -87.2383C298.574 -86.8251 293.837 -86.1365 289.091 -85.5259C287.035 -85.2643 284.994 -84.9154 282.404 -84.5206C283.906 -83.125 284.763 -81.8901 286.625 -82.34C287.948 -82.6613 289.307 -82.8404 290.653 -83.0791C295.69 -83.9743 300.533 -85.9713 305.791 -85.6407C306.745 -85.581 308.183 -86.3247 308.602 -85.907C310.151 -84.3691 311.556 -85.3928 312.791 -85.9529C315.787 -87.3163 318.547 -88.2758 322.118 -87.6147C325.331 -87.0225 328.837 -87.9912 332.211 -88.3447C332.492 -88.3722 332.976 -89.0287 332.916 -89.2766C332.667 -90.2636 332.234 -91.2001 332.059 -91.6638L332.054 -91.673ZM96.9411 29.3253L96.4572 28.5724C94.5954 29.4079 92.5816 30.0231 90.8949 31.1294C87.282 33.5029 83.5907 35.5641 79.1437 35.913C79.9455 37.8732 83.3234 38.6307 84.8211 37.1892C87.4341 34.6735 90.4479 32.8831 93.7982 31.5288C94.9549 31.0606 95.8996 30.0736 96.9411 29.3207V29.3253ZM176.264 113.859C171.449 114.718 165.596 118.335 165.006 120.534C168.877 118.239 172.569 116.049 176.264 113.859ZM244.837 95.6018C245.537 94.5597 245.846 93.5222 246.436 93.3248C248.749 92.5536 251.15 92.0486 253.514 91.4426C253.717 91.3921 253.91 91.3003 254.187 91.1993C253.966 90.5428 253.763 89.946 253.62 89.5099C250.173 90.8963 246.92 92.2093 243.238 93.6921C244.016 94.6194 244.523 95.23 244.837 95.6018ZM236.864 102.924C238.339 102.502 239.837 102.148 241.279 101.639C243.279 100.932 245.256 100.147 247.205 99.3066C247.509 99.1734 247.615 98.5904 248.016 97.8375C246.703 98.5261 245.786 99.4443 245.016 99.3387C241.574 98.8613 239.265 100.881 236.864 102.924ZM247.509 -88.3906C247.459 -88.666 247.413 -88.9415 247.362 -89.2123H237.509C238.546 -87.4541 241.049 -86.4303 241.956 -87.5734C243.007 -88.9001 243.979 -88.3355 245.132 -88.1702C245.897 -88.0646 246.712 -88.3033 247.509 -88.3906ZM159.831 122.045C158.103 122.898 156.638 123.5 155.306 124.312C153.992 125.107 151.702 125.015 151.96 127.76C154.697 126.291 157.283 124.946 159.799 123.491C160.029 123.357 159.831 122.485 159.831 122.045ZM271.648 -4.02647C271.736 -3.72807 271.823 -3.43427 271.911 -3.13587C276.487 -4.34324 281.063 -5.54601 285.643 -6.75338C285.561 -7.06096 285.478 -7.37312 285.395 -7.6807C280.814 -6.46416 276.229 -5.24302 271.648 -4.02647ZM267.874 86.1495C266.726 84.8871 265.837 83.2023 264.219 85.3691C264.104 85.5252 263.652 85.4333 263.358 85.4425C262.427 85.4747 261.252 85.493 261.662 86.7922C261.828 87.3201 263.109 87.9215 263.735 87.7884C265.104 87.5038 266.381 86.7692 267.874 86.1449V86.1495ZM232.772 -72.3872C232.813 -72.1439 232.86 -71.9006 232.901 -71.6573C236.016 -72.1852 239.131 -72.7132 242.251 -73.2411C242.247 -73.5349 242.238 -73.8333 242.233 -74.1271C241.666 -74.1271 241.085 -74.2098 240.537 -74.1088C239.749 -73.9619 238.818 -73.2824 238.247 -73.5257C236.012 -74.4806 234.445 -73.3467 232.772 -72.3872ZM233.058 -79.0851C232.495 -81.0041 227.906 -81.8763 225.675 -79.9895C228.076 -79.6957 230.482 -79.4019 233.058 -79.0851ZM307.312 -82.1058C307.519 -80.7791 307.699 -79.6544 307.874 -78.5297C308.823 -78.7362 309.584 -78.7684 310.197 -79.0805C310.736 -79.356 311.109 -79.9482 311.556 -80.3981C311.082 -80.8021 310.671 -81.3667 310.123 -81.5687C309.294 -81.8717 308.372 -81.9176 307.307 -82.1058H307.312ZM312.059 -92.6141L312.197 -93.7067C309.782 -95.2308 307.303 -93.1925 304.869 -93.4771L304.842 -92.6141H312.059ZM262.215 -74.196C262.146 -74.5082 262.076 -74.8249 262.007 -75.1371L253.486 -72.9703L253.708 -72.0705C256.542 -72.7775 259.381 -73.4844 262.215 -74.1914V-74.196ZM221.067 102.69C221.021 102.488 220.97 102.291 220.924 102.089C219.329 102.662 217.712 103.19 216.159 103.865C215.961 103.952 216.104 104.802 216.09 105.302C216.56 105.288 217.076 105.389 217.491 105.229C217.823 105.1 218.039 104.664 218.283 104.398C218.693 104.783 218.975 105.045 219.122 105.183C219.846 104.255 220.458 103.47 221.071 102.69H221.067ZM282.118 65.9227L282.399 66.7215C285.27 65.7069 288.141 64.6924 291.012 63.6732L290.74 62.8928C287.865 63.9028 284.994 64.9127 282.118 65.9227ZM274.45 68.7001C272.362 69.655 270.436 70.5364 268.404 71.4637C270.865 72.7399 274.279 71.0827 274.45 68.7001ZM214.947 86.7784C216.647 87.6599 220.329 85.8603 221.385 83.62C219.385 84.6024 217.389 85.5802 214.947 86.7784ZM200.974 92.7602C201.094 93.132 201.214 93.5039 201.334 93.8757C202.988 93.4304 204.647 93.0035 206.288 92.5123C206.449 92.4664 206.638 91.8742 206.55 91.7823C206.343 91.562 205.928 91.3141 205.68 91.3784C204.099 91.7915 202.541 92.2873 200.974 92.7602ZM190.085 62.218C190.182 62.498 190.274 62.7734 190.371 63.0535C193.108 63.4024 193.993 62.9708 194.841 60.7214C193.182 61.2447 191.633 61.7313 190.085 62.218ZM280.247 -92.7564C280.173 -92.5222 280.104 -92.2881 280.031 -92.0586C280.74 -91.7005 281.468 -91.0211 282.15 -91.0624C283.362 -91.1358 284.275 -91.8244 283.671 -93.5368C282.496 -93.2705 281.372 -93.0135 280.242 -92.7564H280.247ZM222.929 29.2197C227.938 28.7652 229.73 27.9756 230.173 26.2587C227.717 27.2594 225.325 28.2373 222.929 29.2197ZM294.57 -101.672H289.017C292.418 -99.5369 293.22 -99.5507 294.57 -101.672ZM105.821 70.4859C106.001 70.7338 106.181 70.9771 106.365 71.225C108.158 70.013 109.955 68.8011 111.748 67.5891C111.55 67.3045 111.356 67.0245 111.158 66.7398C109.379 67.9885 107.6 69.2372 105.821 70.4905V70.4859ZM78.6275 25.9557C80.7566 25.6756 82.7243 25.414 84.6921 25.1569C81.7059 23.7154 80.0008 24.0918 78.6275 25.9557ZM266.275 64.2287C266.394 64.3756 266.56 64.697 266.657 64.6786C268.625 64.27 270.593 63.8615 272.528 63.3289C272.699 63.283 272.625 62.3786 272.63 62.3465C270.445 62.9938 268.436 63.5906 266.275 64.2333V64.2287ZM90.8949 58.1873C91.0516 58.3893 91.2083 58.5913 91.365 58.7933C92.9272 57.8292 94.4848 56.8652 96.0471 55.9011C93.3281 55.1207 92.494 57.2554 90.8949 58.1873ZM283.717 86.4892C283.597 86.1862 283.473 85.8832 283.353 85.5803C282.026 86.2092 280.699 86.8335 279.372 87.4625C279.482 87.7195 279.597 87.9766 279.708 88.2337C281.155 87.9353 282.828 88.1924 283.717 86.4892ZM259.514 88.0317C259.311 87.8481 259.104 87.669 258.901 87.4854C257.86 87.9261 256.795 88.3255 255.795 88.8489C255.602 88.9499 255.675 89.5512 255.629 89.9185C256.703 89.7349 257.809 89.6476 258.837 89.3171C259.169 89.2115 259.293 88.477 259.514 88.0271V88.0317ZM253.837 96.5154C253.966 96.7633 254.095 97.0158 254.224 97.2637C255.113 96.8781 256.007 96.497 256.897 96.1114C256.413 95.4917 255.929 94.8719 255.279 94.0364C254.634 95.1428 254.238 95.8268 253.837 96.5108V96.5154ZM108.817 74.6635C106.881 75.903 105.342 76.8854 103.803 77.8678C106.904 77.6291 108.674 76.4952 108.817 74.6635ZM278.335 -82.9414L278.164 -83.6254L273.242 -82.5603L273.381 -81.8809C275.229 -81.1739 276.823 -81.8258 278.335 -82.9459V-82.9414ZM324.773 73.3367C324.879 73.5204 324.985 73.6994 325.091 73.883C326.096 73.6351 327.132 73.4653 328.096 73.1072C328.418 72.9878 328.561 72.391 328.787 72.0146C328.349 71.8585 327.782 71.4454 327.492 71.5923C326.533 72.0697 325.672 72.7445 324.773 73.3413V73.3367ZM285.777 71.0781C283.63 71.2984 282.012 71.4683 280.266 71.6473C281.362 73.5112 282.339 73.4102 285.777 71.0781ZM235.311 103.383C235.164 103.172 235.012 102.965 234.864 102.754C234.339 103.209 233.813 103.663 233.288 104.118C233.975 104.6 232.823 106.808 234.896 105.954C235.044 105.054 235.178 104.214 235.311 103.379V103.383ZM252.505 96.7449C252.274 96.4557 252.044 96.1665 251.814 95.8773C251.113 96.3134 250.413 96.7449 249.717 97.1811C250.086 97.5667 250.712 98.3288 250.786 98.2783C251.417 97.8467 251.947 97.2775 252.505 96.7449ZM288.68 88.0501C288.611 87.7517 288.538 87.4533 288.468 87.1503C286.915 87.7012 285.362 88.2521 283.814 88.8029C283.902 89.0738 283.989 89.3401 284.081 89.6109C285.616 89.0922 287.15 88.5688 288.685 88.0501H288.68ZM213.458 89.8451C214.044 89.0738 214.417 88.5826 214.79 88.0914C214.32 87.8527 213.822 87.3798 213.394 87.4349C212.951 87.4946 212.574 88.0684 212.173 88.4127C212.532 88.8121 212.892 89.2115 213.458 89.8405V89.8451ZM333.013 8.52462C332.957 8.13899 332.897 7.75796 332.842 7.37234C331.93 7.50088 331.013 7.60648 330.119 7.81306C330.045 7.83142 330.146 8.57511 330.165 8.9791C331.114 8.8276 332.063 8.67152 333.013 8.52002V8.52462Z" fill="#FDC003"/>
<path d="M68.4108 84.0654C68.208 85.0295 68.1112 86.0303 67.761 86.9392C67.5905 87.3845 67.0052 87.7793 66.5214 87.9768C65.5167 88.3853 64.3739 88.5001 63.4338 89.0051C60.4522 90.6072 57.5397 92.3334 54.8623 93.8667C54.5535 93.1413 54.2263 92.3609 53.9636 91.7412C57.383 89.8084 61.8854 87.2422 66.4154 84.7311C67.0237 84.3914 67.7887 84.3271 68.4799 84.1343L68.4154 84.0654H68.4108Z" fill="#FDC003"/>
<path d="M172.126 130.9C172.126 131.869 171.9 132.333 170.725 132.732C168.827 133.375 167.158 134.674 165.389 135.698C163.006 137.075 160.638 138.471 158.246 139.829C156.287 140.936 154.301 141.996 152.329 143.08L152.006 142.446C154.038 140.908 155.988 139.251 158.126 137.878C159.504 136.997 161.209 136.625 162.661 135.84C163.094 135.606 163.177 134.729 163.421 134.146L163.352 134.197C164.126 134.151 165.297 134.408 165.615 134.004C167.32 131.819 169.684 131.314 172.186 130.992L172.126 130.91V130.9Z" fill="#FDC003"/>
<path d="M72.0191 60.0698C70.9776 61.0936 70.0974 62.4019 68.8669 63.0859C65.4245 65.0003 61.8116 66.6162 58.3185 68.4433C57.3046 68.9759 56.4567 69.8206 55.3276 70.2337C60.3139 65.8955 66.1296 62.9115 72.079 60.1433C72.079 60.1387 72.0191 60.0698 72.0191 60.0698Z" fill="#FDC003"/>
<path d="M175.343 139.508C174.297 140.261 173.195 140.954 172.227 141.794C171.863 142.111 171.799 142.772 171.762 142.855C169.453 144.002 167.31 145.113 165.117 146.128C164.241 146.532 163.26 146.715 162.329 147C162.214 146.734 162.094 146.463 161.979 146.197C164.149 144.829 166.274 143.392 168.499 142.12C170.61 140.913 172.822 139.884 174.988 138.773L175.343 139.508Z" fill="#FDC003"/>
<path d="M229.325 113.942C226.035 115.356 222.735 116.756 219.458 118.202C218.753 118.514 218.173 119.116 217.463 119.4C216.91 119.621 216.242 119.556 215.629 119.616C215.832 118.969 215.85 117.95 216.269 117.743C217.629 117.082 219.164 116.784 220.587 116.223C223.09 115.241 225.555 114.158 228.048 113.148C228.339 113.028 228.707 113.102 229.039 113.083C229.136 113.368 229.228 113.648 229.325 113.933V113.942Z" fill="#FDC003"/>
<path d="M163.421 134.142C162.882 133.82 162.338 133.499 161.799 133.182C162.315 132.723 162.762 132.145 163.356 131.828C164.624 131.148 166.131 130.804 167.227 129.932C168.094 129.243 168.49 127.967 169.14 126.888L169.642 127.696C171.14 127.554 172.338 127.439 173.536 127.324L173.513 127.255C173.163 127.692 172.905 128.298 172.453 128.527C170.615 129.454 168.633 130.115 166.877 131.162C165.568 131.943 164.522 133.168 163.356 134.197L163.426 134.146L163.421 134.142Z" fill="#FDC003"/>
<path d="M188.878 125.979C185.808 127.783 182.735 129.583 179.177 131.676C179.177 130.478 179.099 129.757 179.191 129.734C180.523 129.408 180.527 127.173 182.624 127.659C183.55 127.875 184.808 126.649 185.924 126.094C186.716 125.694 187.523 125.313 188.32 124.928C188.504 125.281 188.693 125.63 188.878 125.984V125.979Z" fill="#FDC003"/>
<path d="M173.532 127.319C174.343 126.539 175.145 125.745 175.97 124.978C176.877 124.133 177.49 124.014 177.698 125.561C177.79 126.264 178.292 126.911 178.417 127.182C177.546 127.994 176.748 128.779 175.9 129.509C174.822 130.437 173.993 132.089 172.126 130.905L172.186 130.988C173.135 129.968 174.08 128.949 175.209 127.737C174.684 127.59 174.099 127.42 173.509 127.251L173.532 127.319Z" fill="#FDC003"/>
<path d="M316.487 81.3294C315.708 81.8894 314.934 82.4587 314.151 83.0096C313.906 83.1794 313.496 83.5008 313.395 83.4273C311.409 82.0088 310.409 83.9002 309.169 84.7219C307.492 85.8283 305.869 85.8926 303.952 84.9239C304.496 84.4373 304.952 84.0287 305.409 83.6201L305.326 83.689C306.455 83.7211 308.077 84.2445 308.621 83.6982C310.436 81.8757 312.787 81.7425 314.971 81.0906C315.386 80.9667 315.939 81.2926 316.427 81.412L316.482 81.3294H316.487Z" fill="#FDC003"/>
<path d="M157.983 70.936C156.771 72.8182 149.255 76.982 147.213 76.4174C151.107 74.526 153.582 71.3354 157.983 70.936Z" fill="#FDC003"/>
<path d="M49.9453 73.8784C46.3692 76.5915 43.2632 78.7216 39.2585 78.818C43.148 78.3039 45.148 73.6626 49.9453 73.8784Z" fill="#FDC003"/>
<path d="M53.5166 89.4091C53.4982 89.0648 53.3553 88.4817 53.4843 88.4129C55.489 87.3249 57.5305 86.3057 59.9498 85.0708C59.9498 86.0899 60.0835 86.8107 59.9314 86.875C57.8024 87.8115 55.6318 88.6608 53.4705 89.533C53.5028 89.4917 53.5166 89.4504 53.5166 89.4091Z" fill="#FDC003"/>
<path d="M33.2721 81.6646C33.7791 84.2721 31.1754 84.0104 30.0094 84.8138C28.5163 85.8421 26.4702 86.0625 24.3965 86.1727C27.3735 84.6899 30.3505 83.207 33.3275 81.7288L33.2768 81.6691L33.2721 81.6646Z" fill="#FDC003"/>
<path d="M209.481 114.25C210.034 114.332 210.592 114.415 211.14 114.493C212.002 116.104 211.205 116.852 209.689 117.206C208.901 117.39 208.104 117.555 206.813 117.376C207.703 116.334 208.592 115.292 209.481 114.25Z" fill="#FDC003"/>
<path d="M53.5166 89.4089C53.5166 89.4502 53.4982 89.4961 53.4705 89.5328C52.9959 90.2031 52.6502 91.2498 52.0189 91.4564C50.8622 91.842 49.5396 91.7364 48.1018 91.4793C49.2631 90.6805 50.3691 89.7761 51.6134 89.1472C52.0788 88.9085 52.8714 89.3033 53.5166 89.4089Z" fill="#FDC003"/>
<path d="M28.9081 108.516C27.5533 108.718 26.3782 108.888 25.203 109.062C25.0233 108.897 24.8482 108.736 24.6685 108.571L26.3643 105.472C27.2952 106.588 27.9173 107.331 28.9035 108.516H28.9081Z" fill="#FDC003"/>
<path d="M133.914 124.115C132.905 124.983 131.988 125.993 130.872 126.686C128.84 127.953 128.992 125.951 128.541 125.24C130.416 124.661 132.2 124.115 133.983 123.569L133.914 124.115Z" fill="#FDC003"/>
<path d="M202.057 125.924C201.859 125.795 201.412 125.501 200.965 125.212C201.44 124.886 201.887 124.505 202.398 124.262C202.702 124.12 203.149 124.299 203.467 124.17C203.951 123.973 204.375 123.633 204.827 123.353C204.933 123.679 205.232 124.156 205.117 124.299C204.675 124.836 204.136 125.322 203.555 125.713C203.278 125.896 202.831 125.827 202.062 125.924H202.057Z" fill="#FDC003"/>
<path d="M164.011 106.9C165.555 106.138 167.099 105.371 168.877 104.494C169.311 104.834 169.928 105.316 170.5 105.766C168.352 106.252 166.274 106.721 164.191 107.193L164.011 106.9Z" fill="#FDC003"/>
<path d="M133.928 92.4711C135.066 91.6448 136.181 90.7817 137.361 90.0288C137.637 89.8498 138.2 89.937 138.536 90.1023C138.679 90.1711 138.697 90.9837 138.559 91.0572C137.167 91.7963 135.725 92.4573 134.301 93.1368L133.928 92.4757V92.4711Z" fill="#FDC003"/>
<path d="M122.84 75.0173C123.651 74.0257 124.467 73.0295 125.693 71.5283C125.845 72.7632 126.259 73.8283 125.955 74.0991C125.19 74.7832 124.103 75.1091 123.144 75.582C123.043 75.3937 122.941 75.2055 122.835 75.0173H122.84Z" fill="#FDC003"/>
<path d="M136.573 119.111C136.107 119.414 135.674 119.781 135.172 120.006C134.476 120.318 133.734 120.53 133.015 120.782C132.837 120.158 133.837 119.382 136.015 118.455L136.573 119.111Z" fill="#FDC003"/>
<path d="M194.375 52.7338C196.2 51.9717 198.03 51.2096 199.855 50.4521C199.97 50.7551 200.08 51.0581 200.196 51.3657C198.334 52.0406 196.472 52.7154 194.61 53.3902C194.532 53.1745 194.454 52.9541 194.375 52.7383V52.7338Z" fill="#FDC003"/>
<path d="M137.034 84.1617C138.038 83.2849 139.154 82.3117 140.577 81.063C140.181 82.7478 137.393 83.7807 140.384 85.4793C140.154 85.5665 139.923 85.6583 139.693 85.7455C138.748 85.1855 137.803 84.6208 137.034 84.1617Z" fill="#FDC003"/>
<path d="M76.2175 85.5252C74.7244 86.4067 73.2313 87.2927 71.7382 88.1741C71.6091 87.9813 71.4801 87.7931 71.3511 87.6003C72.7981 86.6683 74.2405 85.741 75.6875 84.8091C75.8626 85.0478 76.0378 85.2865 76.2175 85.5252Z" fill="#FDC003"/>
<path d="M33.3229 81.7244C35.0188 81.3113 36.3091 79.5943 38.1202 79.5576L38.429 80.6548C36.71 80.9945 34.9957 81.3342 33.2722 81.6693L33.3183 81.7244H33.3229Z" fill="#FDC003"/>
<path d="M155.873 134.509C156.753 132.916 157.868 131.993 159.343 132.773L159.532 133.613C158.31 133.912 157.094 134.21 155.873 134.513V134.509Z" fill="#FDC003"/>
<path d="M128.739 95.8773C130.084 94.8857 131.255 94.0272 132.476 93.1274C132.683 95.106 131.448 96.0563 128.739 95.8773Z" fill="#FDC003"/>
<path d="M103.955 82.0182C105.13 81.1965 106.301 80.3748 107.476 79.5576L107.983 80.2921C106.817 81.1093 105.646 81.9264 104.48 82.7436C104.305 82.5049 104.13 82.2616 103.955 82.0228V82.0182Z" fill="#FDC003"/>
<path d="M160.241 69.6229C161.204 69.0491 162.163 68.4707 163.384 67.7407C163.326 69.0537 162.278 69.6811 160.241 69.6229Z" fill="#FDC003"/>
<path d="M134.808 101.001C133.84 101.616 132.872 102.227 131.909 102.842L131.416 102.043C132.37 101.373 133.319 100.702 134.273 100.032C134.453 100.358 134.633 100.68 134.808 101.005V101.001Z" fill="#FDC003"/>
<path d="M199.901 127.494C199.316 127.696 198.73 128.04 198.14 128.049C197.832 128.049 197.228 127.434 197.265 127.154C197.325 126.672 197.772 126.241 198.062 125.786C198.458 126.048 198.855 126.305 199.256 126.562C199.472 126.87 199.689 127.182 199.91 127.489L199.901 127.494Z" fill="#FDC003"/>
</g>
<defs>
<clipPath id="clip0_169_1172">
<rect width="451" height="270" fill="white" transform="translate(0 -123)"/>
</clipPath>
</defs>
</svg>
