<svg width="760" height="64" viewBox="0 0 760 64" fill="none" xmlns="http://www.w3.org/2000/svg">
<g clip-path="url(#clip0_159_1478)">
<g clip-path="url(#clip1_159_1478)">
<path d="M204.025 36.6108H205.741L206.393 40.2707H206.406L207.524 36.6108H208.829L207.152 41.8898H205.448L204.77 38.2299H204.757L203.626 41.8898H202.335L204.025 36.6108Z" fill="white"/>
<path d="M188.776 57.6719H187.484L187.831 56.6243H191.796L191.451 57.6719H190.172L188.828 61.9032H187.432L188.776 57.6719Z" fill="white"/>
<path d="M194.818 56.6243H196.201L195.576 58.6379H197.199L197.838 56.6243H199.208L197.558 61.9032H196.175L196.879 59.6447H195.256L194.551 61.9032H193.167L194.818 56.6243Z" fill="white"/>
<path d="M202.71 56.6243H206.343L206.023 57.6311H203.761L203.402 58.7059H205.544L205.225 59.6991H203.095L202.71 60.91H205.066L204.746 61.9032H201.021L202.71 56.6243Z" fill="white"/>
<path d="M217.719 57.8891C217.342 57.6601 216.906 57.5511 216.468 57.5762C215.927 57.5573 215.4 57.7537 214.998 58.1243C214.595 58.4948 214.35 59.0105 214.313 59.5627C214.219 60.515 214.751 60.9232 215.644 60.9232C216.102 60.9294 216.557 60.8318 216.973 60.6374L216.694 61.7668C216.262 61.8969 215.814 61.9655 215.363 61.9709C213.701 61.9709 212.862 60.9641 213.021 59.5218C213.113 58.6617 213.524 57.8706 214.171 57.3131C214.818 56.7555 215.65 56.4745 216.495 56.5285C217.105 56.5023 217.714 56.5946 218.291 56.8007L217.719 57.8891Z" fill="white"/>
<path d="M221.354 56.6243H222.751L221.433 60.8556H223.576L223.257 61.9032H219.704L221.354 56.6243Z" fill="white"/>
<path d="M229.551 56.6243H231.28L231.546 61.9032H230.215V60.7603H228.113L227.381 61.9032H225.878L229.551 56.6243ZM230.123 57.7127L228.792 59.7671H230.123V57.7127Z" fill="white"/>
<path d="M236.245 56.6243H237.894C238.879 56.6243 240.064 56.6243 239.917 57.9847C239.811 58.9099 239.066 59.2365 238.267 59.3453C238.667 59.3453 238.746 59.944 238.772 60.2842L238.959 61.9168H237.628L237.508 60.5562C237.508 59.8624 237.415 59.808 236.79 59.808H236.657L236.005 61.9032H234.674L236.245 56.6243ZM236.91 58.8147H237.428C238.027 58.8147 238.506 58.665 238.56 58.1617C238.613 57.6582 238.4 57.6174 237.988 57.6174H237.336L236.91 58.8147Z" fill="white"/>
<path d="M243.868 56.6243H245.266L243.602 61.9032H242.219L243.868 56.6243Z" fill="white"/>
<path d="M249.363 57.6719H248.085L248.418 56.6243H252.383L252.051 57.6719H250.76L249.416 61.9032H248.019L249.363 57.6719Z" fill="white"/>
<path d="M255.844 59.944L255.006 56.6243H256.47L256.869 58.7467L258.533 56.6243H260.223L257.254 59.944L256.642 61.9032H255.232L255.844 59.944Z" fill="white"/>
<path d="M268.409 61.9841C266.733 61.9841 266.241 60.9228 266.36 59.8344C266.363 59.389 266.455 58.9489 266.627 58.5402C266.8 58.1315 267.052 57.7625 267.368 57.4553C267.683 57.1481 268.055 56.9089 268.463 56.752C268.871 56.5951 269.305 56.5236 269.74 56.5418C271.417 56.5418 271.909 57.6031 271.789 58.6916C271.785 59.1364 271.692 59.5756 271.519 59.9834C271.345 60.3913 271.093 60.7595 270.779 61.0664C270.464 61.3732 270.092 61.6125 269.685 61.77C269.278 61.9277 268.845 62.0004 268.409 61.9841ZM269.528 57.5759C268.476 57.5759 267.89 58.8276 267.784 59.7256C267.784 60.3922 267.89 60.9365 268.609 60.9365C269.674 60.9365 270.26 59.6848 270.365 58.8004C270.365 58.1337 270.245 57.5759 269.528 57.5759Z" fill="white"/>
<path d="M275.686 56.6243H279.134L278.84 57.6311H276.738L276.352 58.7875H278.375L278.069 59.7807H276.073L275.407 61.9032H274.01L275.686 56.6243Z" fill="white"/>
<path d="M287.968 61.9032H286.278L286.186 56.6243H287.556L287.463 60.6107H287.476L289.924 56.6243H291.401L287.968 61.9032Z" fill="white"/>
<path d="M294.477 56.6243H295.86L294.211 61.9032H292.826L294.477 56.6243Z" fill="white"/>
<path d="M302.383 57.8212C302.041 57.6453 301.661 57.561 301.278 57.5762C300.733 57.5762 300.281 57.6578 300.227 58.0796C300.148 58.828 302.183 58.5423 302.01 60.1476C301.838 61.7531 300.481 61.9844 299.349 61.9844C298.815 61.9748 298.286 61.8831 297.778 61.7123L298.231 60.6374C298.61 60.8494 299.037 60.9528 299.469 60.9368C299.895 60.9368 300.573 60.8552 300.64 60.3246C300.733 59.4674 298.684 59.794 298.856 58.2973C299.03 56.8007 300.187 56.5422 301.359 56.5422C301.883 56.5087 302.409 56.5875 302.902 56.7736L302.383 57.8212Z" fill="white"/>
<path d="M306.466 56.6243H307.863L306.213 61.9032H304.816L306.466 56.6243Z" fill="white"/>
<path d="M312.308 61.9841C310.631 61.9841 310.139 60.9228 310.259 59.8344C310.263 59.389 310.353 58.9489 310.527 58.5402C310.699 58.1315 310.951 57.7625 311.266 57.4553C311.582 57.1481 311.955 56.9089 312.362 56.752C312.77 56.5951 313.204 56.5236 313.639 56.5418C315.316 56.5418 315.809 57.6031 315.689 58.6916C315.683 59.1364 315.592 59.5756 315.418 59.9834C315.244 60.3913 314.993 60.7595 314.677 61.0664C314.362 61.3732 313.99 61.6125 313.583 61.77C313.176 61.9277 312.743 62.0004 312.308 61.9841ZM313.426 57.5759C312.375 57.5759 311.79 58.8276 311.683 59.7256C311.683 60.3922 311.803 60.9365 312.508 60.9365C313.586 60.9365 314.158 59.6848 314.265 58.8004C314.265 58.1337 314.145 57.5759 313.426 57.5759Z" fill="white"/>
<path d="M319.666 56.6243H321.383L322.036 60.2842H322.049L323.18 56.6243H324.484L322.807 61.9032H321.09L320.411 58.2433L319.281 61.9032H317.977L319.666 56.6243Z" fill="white"/>
<path d="M298.16 21.3586L299.97 16.4197C288.386 17.5477 277.162 21.1442 267.021 26.9777L252.968 16.1885H231.544L255.164 33.9709C248.697 37.5952 241.883 40.5311 234.83 42.733C231.341 43.8139 227.784 44.6547 224.184 45.2499L217.677 50.6923C219.008 50.6242 220.099 50.529 221.044 50.4065C226.184 49.8072 231.261 48.7372 236.215 47.2092C244.255 44.6882 251.998 41.2661 259.303 37.0051L272.45 46.9235C275.884 49.4078 279.994 50.7262 284.201 50.6923H298.054L271.12 29.9982C279.549 25.4068 288.733 22.4412 298.213 21.2497L298.16 21.3586ZM228.656 16.0796H210.917C201.425 16.0987 192.126 18.8218 184.063 23.9436C170.756 32.2295 143.476 50.6378 143.476 50.6378H156.782C164.249 50.6378 172.618 45.4133 172.618 45.4133L209.48 20.7464L201.203 46.1344H187.616L181.721 50.8691H204.503C217.078 50.8691 220.592 40.801 220.592 40.801L228.656 16.0796ZM360.691 20.9504L362.022 16.1069H304.334L296.67 40.2568C296.67 40.2568 293.329 50.7194 310.802 50.7194H352.214L353.545 46.012H312.518L315.912 35.2771H356.579L357.91 30.5832H317.402L320.556 20.9369L360.691 20.9504Z" fill="white"/>
<path d="M79.4302 58.9089C107.256 58.9089 144.077 45.7523 144.077 31.4664C144.077 18.8814 113.471 3.26213 75.4646 2.89478C74.8392 16.6637 42.7551 48.5551 -1.0127 43.3441C42.1164 61.1403 84.3938 41.5074 99.2581 22.0242C115.4 22.0242 130.277 27.7386 130.277 35.6298C130.277 42.6775 115.161 48.9225 106.763 50.868C103.503 47.8476 102.771 45.1945 103.157 39.9019C103.157 39.9019 79.5366 58.8 79.4302 58.8681" fill="white"/>
</g>
</g>
<g clip-path="url(#clip2_159_1478)">
<path fill-rule="evenodd" clip-rule="evenodd" d="M753.974 16.4219C753.646 16.3599 753.313 16.3242 752.979 16.3151H747.595L744.615 20.9303L743.926 22.0564H745.59L746.19 21.1321C746.189 21.0959 746.196 21.06 746.21 21.0268L746.228 20.995L747.231 19.4847H750.192V22.0564H751.833V19.506H752.482C753.069 19.4906 753.482 19.3063 753.726 18.9525L754.585 17.4633V17.1457C754.565 16.9783 754.497 16.8204 754.388 16.6916C754.28 16.5629 754.136 16.469 753.974 16.4219ZM752.446 18.2289C752.354 18.3778 752.224 18.4997 752.069 18.582C751.915 18.6644 751.742 18.7044 751.567 18.698H747.71L748.587 17.4427L748.836 17.0802H752.236C752.373 17.0833 752.507 17.1198 752.627 17.1867C752.747 17.2536 752.848 17.3487 752.923 17.4638L752.446 18.2289ZM758.685 13.3326C757.978 13.1995 757.262 13.1226 756.544 13.1028H749.992C749.07 13.1022 748.148 13.1636 747.233 13.2866C745.613 13.6851 744.335 14.4036 743.4 15.4421L738.497 23.0585C738.333 23.3861 738.304 23.7653 738.418 24.1138C738.679 25.0306 740.025 25.489 742.454 25.489H749.126C752.493 25.489 754.546 24.7245 755.285 23.1956L760.003 15.581V14.8916C759.96 14.5308 759.813 14.1904 759.578 13.9131C759.344 13.6358 759.033 13.434 758.685 13.3326ZM751.518 23.2421C751.187 23.6394 750.603 23.8458 749.767 23.8614L742.949 23.8383C742.208 23.7757 741.882 23.5623 741.979 23.1964L747.067 15.535C747.816 14.9513 748.759 14.6731 749.705 14.756H754.936C755.677 14.8464 756.171 15.1217 756.418 15.5818L751.518 23.2421ZM460.777 35.646L466.108 28.2851V26.7076C465.792 24.9544 464.528 23.7623 462.318 23.1312C460.277 22.8246 458.219 22.6494 456.157 22.6066H422.747L404.265 45.4285L400 51.0019H410.306L414.039 46.4267C414.033 46.2447 414.073 46.0641 414.157 45.9024L414.276 45.7448L420.496 38.276H438.859V51.0019H449.048V38.3813H453.077C456.709 38.3118 459.276 37.4 460.777 35.646ZM452.84 32.0717C451.576 33.6123 449.759 34.383 447.39 34.3838H423.457L428.907 28.1798L430.448 26.3915H451.536C453.668 26.6024 455.089 27.2337 455.801 28.2853L452.84 32.0717ZM731.256 23.1312C729.216 22.8246 727.158 22.6494 725.095 22.6066H706.259C703.607 22.6044 700.957 22.7448 698.32 23.0272C693.659 23.9382 689.986 25.5859 687.303 27.9703L673.203 45.4285C672.972 45.7833 672.831 46.1883 672.79 46.6095C672.749 47.0306 672.809 47.4554 672.967 47.8481C673.715 49.9515 677.585 51.003 684.577 51.0027H703.769C713.444 51.0027 719.348 49.2503 721.479 45.7456L735.046 28.2861V26.7076C734.731 24.9543 733.467 23.7621 731.256 23.1312ZM710.641 45.848C709.692 46.76 708.014 47.2339 705.605 47.2697L685.997 47.2152C683.867 47.0757 682.938 46.5857 683.213 45.745L697.844 28.1801C699.977 26.8482 702.505 26.2521 705.428 26.3917H720.474C722.605 26.6026 724.026 27.2339 724.738 28.2856L710.641 45.848ZM675.928 35.646L681.259 28.2851V26.7076C680.944 24.9544 679.679 23.7623 677.467 23.1312C675.427 22.8244 673.37 22.6492 671.308 22.6066H637.897L619.415 45.4285L615.15 51.0027H625.457L629.189 46.4275C629.183 46.2455 629.223 46.065 629.307 45.9032L629.426 45.7456L635.645 38.2768H654.009V51.0027H664.2V38.3813H668.228C671.862 38.3118 674.428 37.4 675.928 35.646ZM667.99 32.0715C666.725 33.612 664.909 34.3827 662.541 34.3836H638.608L644.057 28.1795L645.597 26.3912H666.687C668.818 26.6021 670.239 27.2334 670.951 28.2851L667.99 32.0715ZM470.61 47.215C468.754 47.2834 467.826 47.0207 467.826 46.4267C467.82 46.2447 467.86 46.064 467.945 45.9024L468.063 45.7448L474.282 38.276H501.414L504.732 34.3841H477.244L482.694 28.1801C484.827 26.8482 487.355 26.2521 490.278 26.3917H520.133L523.923 22.6064H491.107C488.456 22.6042 485.806 22.7446 483.169 23.027C478.508 23.9381 474.835 25.5854 472.15 27.969L458.051 45.4285C457.82 45.783 457.678 46.188 457.637 46.6092C457.596 47.0304 457.656 47.4554 457.814 47.8481C458.566 49.9515 462.436 51.003 469.424 51.0027H502.006L505.916 47.2158L490.455 47.2702L470.61 47.215ZM627.473 28.2853V26.7076C627.155 24.9544 625.891 23.7623 623.68 23.1312C621.64 22.8246 619.582 22.6494 617.519 22.6066H598.682C596.031 22.6045 593.381 22.7448 590.745 23.0272C586.083 23.9382 582.41 25.5859 579.726 27.9703L565.627 45.4285L561.245 51.0027H571.669L575.401 46.4275C575.395 46.2454 575.436 46.0648 575.52 45.9032L575.638 45.7456L581.858 38.2768H613.018C617.599 38.2768 620.64 37.4002 622.14 35.6471L627.473 28.2853ZM614.203 32.0717C612.939 33.6123 610.61 34.383 607.213 34.3838H584.82L590.269 28.1798C592.402 26.8479 594.93 26.2518 597.853 26.3915H612.899C615.031 26.6024 616.453 27.2337 617.164 28.2853L614.203 32.0717ZM566.457 37.7499C568.273 35.5076 567.404 34.3856 563.851 34.3841H531.032L536.482 28.1801C538.615 26.8482 541.143 26.2521 544.064 26.3917H574.394L577.83 22.6066H544.895C542.243 22.6044 539.593 22.7448 536.956 23.0272C532.138 23.4481 528.465 25.0958 525.938 27.9703L520.251 34.8054C518.435 37.1193 519.146 38.2762 522.385 38.276H555.202L549.396 45.6388L549.159 45.8477C548.291 46.7598 546.653 47.2336 544.243 47.2694L524.279 47.215H511.721L507.692 51.0019H542.407C552.082 51.0019 557.966 49.2838 560.059 45.8477L561.599 43.9555L566.457 37.7499Z" fill="white"/>
</g>
<defs>
<clipPath id="clip0_159_1478">
<rect width="360" height="64" fill="white"/>
</clipPath>
<clipPath id="clip1_159_1478">
<rect width="364.364" height="60" fill="white" transform="translate(-2 2)"/>
</clipPath>
<clipPath id="clip2_159_1478">
<rect width="360" height="38" fill="white" transform="translate(400 13)"/>
</clipPath>
</defs>
</svg>
