<svg width="308" height="44" viewBox="0 0 308 44" fill="none" xmlns="http://www.w3.org/2000/svg">
<g clip-path="url(#clip0_127_7453)">
<path d="M74.318 13.2959H66.3554L60.0025 29.8778C59.8492 30.2818 60.1654 30.7038 60.6253 30.7038H64.324L66.5566 24.8772H68.6934L69.1916 30.1382C69.2204 30.4524 69.5078 30.7038 69.8528 30.7038H73.8772L73.2448 24.1231C77.5471 22.552 78.4478 18.7813 78.4478 18.7813C79.4731 16.1059 77.3555 13.2959 74.3276 13.2959H74.318ZM73.7431 18.9429L73.7239 18.9878C73.149 20.4961 71.6255 21.5016 69.9199 21.5016H67.8501L69.6516 16.6805H72.0471C73.3023 16.6805 74.1743 17.8386 73.7431 18.9429Z" fill="#00960F"/>
<path d="M8.91143 15.5494L0.0864033 29.7971C-0.172311 30.2101 0.143895 30.7218 0.651742 30.7218H4.13959L6.8513 26.3317H11.4794L11.0578 30.7218H15.6955L17.1903 15.1095C17.2861 14.1489 16.4716 13.314 15.4368 13.314H13.0317C11.3261 13.314 9.74506 14.1669 8.89227 15.5494H8.91143ZM11.7669 23.4768H8.63355L12.3418 17.4976L11.7669 23.4768Z" fill="#00960F"/>
<path d="M140.032 15.5494L131.475 29.3662C131.101 29.9677 131.561 30.7218 132.309 30.7218H135.269L137.981 26.3317H142.609L142.245 30.7218H146.873L148.368 15.1095C148.464 14.1489 147.649 13.314 146.614 13.314H144.161C142.456 13.314 140.875 14.1669 140.022 15.5494H140.032ZM142.887 23.4768H139.754L143.462 17.4976L142.887 23.4768Z" fill="#00960F"/>
<path d="M24.7981 13.3137H28.4968C28.9567 13.3137 29.2729 13.7356 29.1196 14.1396L24.4149 26.4212C24.2424 26.8701 24.5969 27.3459 25.1048 27.3459H29.4358C29.8958 27.3459 30.212 27.7679 30.0587 28.1719L29.2825 30.1829C24.3957 30.8831 22.5655 30.7215 22.5655 30.7215C20.4096 30.7215 18.8956 28.7195 19.6334 26.8072L24.8077 13.3047L24.7981 13.3137Z" fill="#00960F"/>
<path d="M38.0599 13.3137H41.7585C42.2184 13.3137 42.5346 13.7356 42.3813 14.1396L37.6766 26.4212C37.5041 26.8701 37.8586 27.3459 38.3665 27.3459H42.6975C43.1575 27.3459 43.4737 27.7679 43.3204 28.1719L42.5442 30.1829C37.6574 30.8831 35.8272 30.7215 35.8272 30.7215C33.6713 30.7215 32.1573 28.7195 32.8952 26.8072L38.0694 13.3047L38.0599 13.3137Z" fill="#00960F"/>
<path d="M56.6587 13.3137C56.6587 13.3137 58.7955 13.2149 61.9767 13.5741C62.3887 13.6189 62.6475 14.005 62.5325 14.3731L61.7563 16.7073H56.6491C55.5855 16.6983 54.6273 17.3178 54.2728 18.2604L53.4008 20.5498H59.38C59.8399 20.5498 60.1561 20.9717 60.0028 21.3757L59.0255 23.9344H52.1072L51.149 26.4123C50.9766 26.8611 51.3311 27.337 51.8389 27.337H56.7641C57.224 27.337 57.5402 27.7589 57.3869 28.1629L56.6204 30.156C51.8773 30.9011 49.2901 30.7216 49.2901 30.7216C47.1342 30.7216 45.6202 28.7195 46.358 26.8073L49.798 17.8295C50.8424 15.1182 53.5829 13.3047 56.6683 13.3047L56.6587 13.3137Z" fill="#00960F"/>
<path d="M96.7211 14.5168L95.7054 17.1563H90.4353C88.241 17.1563 86.2863 18.4491 85.5485 20.3793L83.6033 24.9849C83.1626 26.134 84.0728 27.337 85.376 27.337H86.9954L89.228 21.5105H92.9266C93.3866 21.5105 93.7028 21.9324 93.5495 22.3364L90.5311 30.2009C85.146 30.8384 83.1913 30.6678 83.1913 30.6678C80.0772 30.6678 77.8925 27.8308 78.9369 25.0836L81.4857 18.4401C82.6643 15.3607 85.7785 13.3138 89.2663 13.3138C89.2663 13.3138 90.8952 13.1971 96.1653 13.6908C96.587 13.7268 96.8648 14.1397 96.7211 14.5168Z" fill="#00960F"/>
<path d="M99.4229 13.314H103.457C103.802 13.314 104.08 13.5564 104.108 13.8796L104.703 20.0922L110.308 13.314H113.614C114.16 13.314 114.467 13.8975 114.141 14.3015L107.127 22.9022C106.839 23.2613 106.389 23.4678 105.91 23.4678L103.131 30.7218H99.4324C98.9725 30.7218 98.6563 30.2999 98.8096 29.8959L101.272 23.4678C100.784 23.4678 100.381 23.1177 100.333 22.6688L99.4324 13.314H99.4229Z" fill="#00960F"/>
<path d="M117.361 13.3229H120.734C121.04 13.3229 121.309 13.5205 121.376 13.8077L122.985 20.5231L129.98 13.314H133.708C134.158 13.314 134.484 13.7449 134.33 14.1489L128.025 30.7308H124.365C123.905 30.7308 123.589 30.3089 123.742 29.9049L127.096 21.1067L123.436 24.9043H120.676C120.369 24.9043 120.101 24.7067 120.034 24.4195L119.153 20.7565L115.329 30.7218H111.631C111.171 30.7218 110.855 30.2999 111.008 29.8959L117.361 13.3229Z" fill="#00960F"/>
<path d="M170.972 13.3226H174.671C175.131 13.3226 175.447 13.7356 175.294 14.1396L172.946 20.2625L180.688 13.3137H184.396C184.991 13.3137 185.278 13.978 184.856 14.3641L176.223 22.2376L178.561 30.7126H174.067C173.77 30.7126 173.502 30.524 173.425 30.2457L171.624 23.7009L168.941 30.7036H165.242C164.782 30.7036 164.466 30.2816 164.619 29.8776L170.972 13.3047V13.3226Z" fill="#00960F"/>
<path d="M167.062 14.5888C167.235 14.2117 166.967 13.7808 166.535 13.7359C161.313 13.1344 159.799 13.3229 159.799 13.3229C156.848 13.3229 154.223 15.0556 153.226 17.6592L153.044 18.144C152.459 19.6702 153.044 21.3849 154.481 22.3007L157.385 24.1501C158.084 24.599 158.372 25.4249 158.084 26.1791V26.206C157.806 26.8973 157.107 27.3552 156.331 27.3552H149.997L149.029 29.5457C148.866 29.9228 149.134 30.3447 149.566 30.3986C154.031 30.8834 156.043 30.7218 156.043 30.7218C158.994 30.7218 161.629 29.0071 162.636 26.4035L163.009 25.416C163.565 23.9526 163.009 22.3186 161.629 21.4478L158.429 19.4009C157.845 19.0238 157.595 18.3235 157.835 17.6951V17.6771C158.065 17.0936 158.649 16.7075 159.311 16.7075H166.095L167.053 14.5978L167.062 14.5888Z" fill="#00960F"/>
<path d="M224.746 17.6594H228.732C231.147 17.6594 232.201 18.7277 232.201 20.0205C232.201 21.3133 231.319 22.1213 230.007 22.3906C230.859 22.7587 231.444 23.3513 231.444 24.3388C231.444 26.0536 229.873 27.2566 227.036 27.2566H221.996L224.746 17.6504V17.6594ZM227.372 25.4072C228.502 25.4072 229.202 24.9403 229.202 24.2042C229.202 23.6386 228.723 23.2974 227.793 23.2974H225.321L224.717 25.4072H227.372ZM228.1 21.5378C229.259 21.5378 229.949 21.1697 229.949 20.3707C229.949 19.8769 229.528 19.5088 228.531 19.5088H226.404L225.829 21.5378H228.1Z" fill="#333333"/>
<path d="M235.353 23.4768L233.226 17.6592H235.727L236.925 21.6363L240.441 17.6592H243.163L237.557 23.6653L236.522 27.2564H234.271L235.353 23.4678V23.4768Z" fill="#333333"/>
<path d="M248.414 17.6594H252.151C253.674 17.6594 254.709 17.9736 255.399 18.62C255.907 19.0958 256.185 19.7691 256.185 20.5502C256.185 21.4659 255.85 22.265 255.246 22.8306C254.671 23.3692 253.885 23.7642 252.87 23.9797L254.613 27.2566H252.055L250.474 24.1862H248.788L247.906 27.2566H245.654L248.404 17.6504L248.414 17.6594ZM251.346 22.3278C252.228 22.3278 252.975 22.1213 253.406 21.7083C253.665 21.4659 253.828 21.1338 253.828 20.7387C253.828 20.4066 253.722 20.1731 253.502 19.9667C253.224 19.7063 252.726 19.5716 252.007 19.5716H250.12L249.334 22.3278H251.336H251.346Z" fill="#333333"/>
<path d="M259.05 17.6596H266.706L266.159 19.5359H260.746L260.19 21.4931H264.952L264.406 23.3425H259.644L259.059 25.3715H264.569L264.023 27.2478H256.29L259.04 17.6416L259.05 17.6596Z" fill="#333333"/>
<path d="M265.709 25.6315L267.405 24.2849C268.21 25.1108 269.101 25.5507 270.27 25.5507C271.18 25.5507 271.832 25.1557 271.832 24.5452C271.832 24.0784 271.468 23.809 270.088 23.2793C268.756 22.7766 267.568 22.1033 267.568 20.6848C267.568 18.7276 269.446 17.5156 271.64 17.5156C273.394 17.5156 274.611 18.0812 275.473 18.9431L273.921 20.3975C273.145 19.7242 272.455 19.365 271.458 19.365C270.462 19.365 269.964 19.8588 269.964 20.3346C269.964 20.8464 270.376 21.0618 271.765 21.6005C273.173 22.1392 274.228 22.7945 274.228 24.1951C274.228 26.2151 272.311 27.3912 270.155 27.3912C268.181 27.3912 266.658 26.7897 265.69 25.6225L265.709 25.6315Z" fill="#333333"/>
<path d="M278.099 17.6594H281.347C282.813 17.6594 283.819 17.9377 284.567 18.629C285.094 19.1227 285.362 19.7691 285.362 20.6041C285.362 22.9922 283.177 24.3478 280.379 24.3478H278.434L277.6 27.2566H275.349L278.099 17.6504V17.6594ZM280.504 22.4984C281.999 22.4984 283.005 21.8699 283.005 20.7836C283.005 20.4694 282.89 20.1911 282.669 19.9846C282.363 19.6973 281.941 19.5627 281.261 19.5627H279.795L278.961 22.4984H280.494H280.504Z" fill="#333333"/>
<path d="M288.036 17.6594H291.772C293.296 17.6594 294.331 17.9736 295.021 18.62C295.529 19.0958 295.806 19.7691 295.806 20.5502C295.806 21.4659 295.471 22.265 294.867 22.8306C294.293 23.3692 293.507 23.7642 292.491 23.9797L294.235 27.2566H291.677L290.096 24.1862H288.409L287.528 27.2566H285.276L288.026 17.6504L288.036 17.6594ZM290.968 22.3278C291.849 22.3278 292.597 22.1213 293.028 21.7083C293.286 21.4659 293.449 21.1338 293.449 20.7387C293.449 20.4066 293.344 20.1731 293.124 19.9667C292.846 19.7063 292.347 19.5716 291.629 19.5716H289.741L288.955 22.3278H290.958H290.968Z" fill="#333333"/>
<path d="M296.726 23.1717C296.726 20.3078 299.217 17.4888 302.887 17.4888C305.714 17.4888 307.573 19.3292 307.573 21.7442C307.573 24.6081 305.082 27.4271 301.412 27.4271C298.585 27.4271 296.726 25.5867 296.726 23.1717ZM305.235 21.8789C305.235 20.4514 304.315 19.4369 302.629 19.4369C300.473 19.4369 299.074 21.3672 299.074 23.028C299.074 24.4555 299.994 25.47 301.68 25.47C303.836 25.47 305.235 23.5398 305.235 21.8789Z" fill="#333333"/>
<path d="M209.885 0.00858595L196.521 43.7324L197.535 44.0043L210.899 0.280461L209.885 0.00858595Z" fill="#00960F"/>
</g>
<defs>
<clipPath id="clip0_127_7453">
<rect width="307.573" height="44" fill="white"/>
</clipPath>
</defs>
</svg>
