<svg width="22" height="21" viewBox="0 0 22 21" fill="none" xmlns="http://www.w3.org/2000/svg">
<path d="M20.1875 21C17.8153 21 15.4576 20.4215 13.1146 19.2646C10.7715 18.1076 8.66667 16.5958 6.8 14.7292C4.93333 12.8625 3.41667 10.7528 2.25 8.4C1.08333 6.04722 0.5 3.68472 0.5 1.3125C0.5 1.09861 0.509722 0.875 0.529167 0.641667C0.548611 0.408333 0.577778 0.194444 0.616667 0H6.8L7.96667 5.5125L4.55417 8.95417C5.64306 10.7625 6.86319 12.3375 8.21458 13.6792C9.56597 15.0208 11.0972 16.1583 12.8083 17.0917L16.2208 13.5625L21.5 14.7292V20.9125C21.3056 20.9319 21.0917 20.9514 20.8583 20.9708C20.625 20.9903 20.4014 21 20.1875 21Z" fill="#00960F"/>
</svg>
