<svg width="9" height="17" viewBox="0 0 9 17" fill="none" xmlns="http://www.w3.org/2000/svg">
<path d="M0.480248 9.0542H2.34372V16.7258C2.34372 16.8773 2.46645 17 2.61792 17H5.7775C5.92897 17 6.0517 16.8773 6.0517 16.7258V9.09034H8.19392C8.33321 9.09034 8.4504 8.98582 8.4663 8.84746L8.79166 6.02315C8.8006 5.94545 8.77597 5.86763 8.72399 5.80934C8.67194 5.75099 8.59747 5.71759 8.51933 5.71759H6.05181V3.94718C6.05181 3.41349 6.33916 3.14286 6.90597 3.14286C6.98675 3.14286 8.51933 3.14286 8.51933 3.14286C8.67079 3.14286 8.79352 3.02008 8.79352 2.86867V0.276223C8.79352 0.124758 8.67079 0.00202903 8.51933 0.00202903H6.29589C6.28021 0.00126129 6.24539 0 6.19406 0C5.80827 0 4.4673 0.0757322 3.40803 1.05022C2.23437 2.1301 2.39752 3.42309 2.43651 3.64727V5.71754H0.480248C0.328784 5.71754 0.206055 5.84027 0.206055 5.99173V8.77995C0.206055 8.93142 0.328784 9.0542 0.480248 9.0542Z" fill="white"/>
</svg>
