<svg width="17" height="17" viewBox="0 0 17 17" fill="none" xmlns="http://www.w3.org/2000/svg">
<path d="M11.785 0.393799H5.05769C2.13558 0.393799 0.393555 2.13583 0.393555 5.05794V11.7772C0.393555 14.7073 2.13558 16.4494 5.05769 16.4494H11.7769C14.6991 16.4494 16.4411 14.7073 16.4411 11.7852V5.05794C16.4491 2.13583 14.7071 0.393799 11.785 0.393799ZM8.42133 11.5364C6.70339 11.5364 5.30655 10.1395 5.30655 8.42158C5.30655 6.70363 6.70339 5.3068 8.42133 5.3068C10.1393 5.3068 11.5361 6.70363 11.5361 8.42158C11.5361 10.1395 10.1393 11.5364 8.42133 11.5364ZM13.1738 4.31135C13.1336 4.40769 13.0774 4.49599 13.0052 4.57627C12.9249 4.64852 12.8366 4.70472 12.7403 4.74485C12.6439 4.78499 12.5396 4.80908 12.4352 4.80908C12.2185 4.80908 12.0178 4.7288 11.8653 4.57627C11.793 4.49599 11.7368 4.40769 11.6967 4.31135C11.6565 4.21502 11.6324 4.11066 11.6324 4.0063C11.6324 3.90194 11.6565 3.79758 11.6967 3.70124C11.7368 3.59688 11.793 3.5166 11.8653 3.43633C12.0499 3.25169 12.3309 3.16338 12.5878 3.21958C12.6439 3.2276 12.6921 3.24366 12.7403 3.26774C12.7884 3.2838 12.8366 3.30788 12.8848 3.33999C12.9249 3.36408 12.9651 3.40422 13.0052 3.43633C13.0774 3.5166 13.1336 3.59688 13.1738 3.70124C13.2139 3.79758 13.238 3.90194 13.238 4.0063C13.238 4.11066 13.2139 4.21502 13.1738 4.31135Z" fill="white"/>
</svg>
