<svg width="239" height="24" viewBox="0 0 239 24" fill="none" xmlns="http://www.w3.org/2000/svg">
<g clip-path="url(#clip0_28_37)">
<path d="M95.7186 0.0147705H85.4678L77.2776 22.814C77.0774 23.3699 77.4851 23.9481 78.0781 23.9481H82.8366L85.7124 15.9431H88.4622L89.1071 23.1772C89.1441 23.6145 89.5147 23.9481 89.9521 23.9481H95.1404L94.3325 14.898C99.8693 12.7411 101.026 7.56017 101.026 7.56017C102.345 3.88382 99.6247 0.0147705 95.7186 0.0147705ZM94.9774 7.77512L94.9551 7.84182C94.2139 9.90977 92.2498 11.2884 90.0484 11.2884H87.3801L89.7 4.66208H92.7908C94.3992 4.66208 95.5259 6.25566 94.9774 7.77512Z" fill="white"/>
<path d="M11.4813 3.10567L0.118687 22.6955C-0.20744 23.2589 0.200219 23.9704 0.852474 23.9704H5.34414L8.84259 17.937H14.8092L14.2682 23.9704H20.2348L22.1619 2.5053C22.2805 1.17855 21.2354 0.0371094 19.9087 0.0371094H16.8179C14.6239 0.0371094 12.5856 1.2082 11.4887 3.10567H11.4813ZM15.1576 14.0013H11.1255L15.8988 5.77398L15.1576 14.0013Z" fill="white"/>
<path d="M180.363 3.10567L169.342 22.1026C168.86 22.9327 169.46 23.9704 170.417 23.9704H174.226L177.725 17.937H183.691L183.224 23.9704H189.184L191.111 2.5053C191.229 1.17855 190.184 0.0371094 188.858 0.0371094H185.7C183.506 0.0371094 181.468 1.2082 180.371 3.10567H180.363ZM184.04 14.0013H180.008L184.781 5.77398L184.04 14.0013Z" fill="white"/>
<path d="M31.9383 0.0371094H36.6968C37.2823 0.0371094 37.6974 0.622656 37.4973 1.17114L31.4343 18.0482C31.2119 18.6634 31.6715 19.3157 32.3237 19.3157H37.905C38.4905 19.3157 38.9056 19.9012 38.7054 20.4497L37.7122 23.2218C31.4195 24.1853 29.055 23.963 29.055 23.963C26.2756 23.963 24.3336 21.2057 25.2749 18.5893L31.9383 0.0371094Z" fill="white"/>
<path d="M49.0228 0.0371094H53.7813C54.3668 0.0371094 54.7819 0.622656 54.5818 1.17114L48.5188 18.0482C48.2964 18.6634 48.7559 19.3157 49.4082 19.3157H54.9894C55.575 19.3157 55.99 19.9012 55.7899 20.4497L54.7967 23.2218C48.5039 24.1853 46.1395 23.963 46.1395 23.963C43.36 23.963 41.4181 21.2057 42.3594 18.5893L49.0228 0.0371094Z" fill="white"/>
<path d="M72.9784 0.0369996C72.9784 0.0369996 75.7283 -0.103828 79.8271 0.392775C80.3533 0.459483 80.6943 0.985733 80.5386 1.48975L79.538 4.69914L72.9562 4.68431C71.585 4.68431 70.3546 5.5441 69.895 6.8412L68.7684 9.99129H76.4695C77.055 9.99129 77.4701 10.5768 77.27 11.1253L76.0099 14.6386H67.1007L65.8703 18.0481C65.648 18.6633 66.1075 19.3156 66.7598 19.3156H73.1118C73.6974 19.3156 74.1125 19.9011 73.9123 20.4496L72.9339 23.1846C66.8265 24.2075 63.4911 23.9629 63.4911 23.9629C60.7116 23.9629 58.7696 21.2056 59.711 18.5892L64.1433 6.25565C65.4701 2.52743 69.013 0.0369996 72.9784 0.0369996Z" fill="white"/>
<path d="M124.573 1.68996L123.268 5.32183H116.479C113.655 5.32183 111.135 7.09329 110.179 9.7542L107.674 16.0914C107.11 17.6702 108.274 19.3305 109.949 19.3305H112.039L114.915 11.3255H119.674C120.259 11.3255 120.674 11.9111 120.474 12.4596L116.583 23.2737C109.653 24.1483 107.133 23.9111 107.133 23.9111C103.13 23.9111 100.299 20.0124 101.655 16.2397L104.939 7.10071C106.465 2.86105 110.475 0.0370876 114.967 0.0370876C114.967 0.0370876 117.065 -0.125976 123.854 0.555926C124.402 0.60781 124.758 1.17112 124.573 1.68996Z" fill="white"/>
<path d="M128.057 0.0371094H133.245C133.683 0.0371094 134.053 0.370649 134.09 0.807956L134.854 9.35397L142.08 0.0371094H146.335C147.039 0.0371094 147.439 0.845015 147.009 1.40091L137.981 13.2304C137.611 13.7196 137.025 14.0087 136.418 14.0087H136.41L132.83 23.9778H128.072C127.486 23.9778 127.071 23.3923 127.271 22.8438L130.443 14.0087H130.429C129.806 14.0087 129.28 13.5343 129.228 12.9043L128.057 0.0371094Z" fill="white"/>
<path d="M151.16 0.0519333H155.503C155.904 0.0519333 156.245 0.326177 156.334 0.7116L158.409 9.94693L167.415 0.0371094H172.21C172.796 0.0445214 173.203 0.630068 173.011 1.17855L164.894 23.9704H160.18C159.595 23.9704 159.187 23.3923 159.38 22.8364L163.694 10.74L158.98 15.9655H155.422C155.022 15.9655 154.681 15.6912 154.592 15.3058L153.458 10.2731L148.536 23.9778H143.778C143.192 23.9778 142.777 23.3923 142.977 22.8438L151.16 0.0519333Z" fill="white"/>
<path d="M220.21 0.0518283H224.976C225.561 0.0444164 225.976 0.622551 225.776 1.17845L222.752 9.59846L232.714 0.0518283H237.487C238.251 0.0444164 238.629 0.970914 238.08 1.49716L226.962 12.3187L229.979 23.9703H224.19C223.805 23.9703 223.464 23.7109 223.367 23.3329L221.04 14.3421L217.586 23.9703H212.828C212.242 23.9703 211.827 23.3847 212.027 22.8363L220.21 0.0518283Z" fill="white"/>
<path d="M215.185 1.7863C215.407 1.26746 215.066 0.68191 214.503 0.615202C207.78 -0.21494 205.823 0.0444792 205.823 0.0444792C202.028 0.0444792 198.641 2.43114 197.359 6.00371L197.122 6.67079C196.365 8.77579 197.122 11.1254 198.975 12.378L202.718 14.9277C203.622 15.5429 203.992 16.6844 203.622 17.7146L203.607 17.7517C203.266 18.7004 202.369 19.3379 201.354 19.3379H193.201L191.955 22.3471C191.74 22.866 192.089 23.4515 192.645 23.5182C198.396 24.1779 200.991 23.9555 200.991 23.9555C204.793 23.9555 208.188 21.5985 209.477 18.0111L209.959 16.6621C210.678 14.6535 209.959 12.4077 208.188 11.2069L204.067 8.39778C203.311 7.87894 202.999 6.9228 203.303 6.0556V6.02595C203.6 5.22546 204.356 4.69179 205.208 4.69179H213.954L215.185 1.79371V1.7863Z" fill="white"/>
</g>
<defs>
<clipPath id="clip0_28_37">
<rect width="238.34" height="24" fill="white"/>
</clipPath>
</defs>
</svg>
