<svg width="18" height="10" viewBox="0 0 18 10" fill="none" xmlns="http://www.w3.org/2000/svg">
<path fill-rule="evenodd" clip-rule="evenodd" d="M8.57626 9.95806H9.62397C9.62397 9.95806 9.94036 9.92319 10.1021 9.74913C10.2508 9.58914 10.2461 9.28891 10.2461 9.28891C10.2461 9.28891 10.2256 7.88308 10.878 7.67606C11.5213 7.472 12.3472 9.03473 13.2226 9.63568C13.8846 10.0903 14.3876 9.99078 14.3876 9.99078L16.7285 9.95806C16.7285 9.95806 17.953 9.88251 17.3724 8.91974C17.3249 8.8411 17.0341 8.20757 15.6318 6.90593C14.1639 5.54355 14.3607 5.76397 16.1288 3.40741C17.2055 1.97226 17.6359 1.09615 17.5014 0.720928C17.3733 0.363421 16.5813 0.45786 16.5813 0.45786L13.9456 0.474155C13.9456 0.474155 13.7501 0.447552 13.6053 0.534213C13.4636 0.61896 13.3727 0.816971 13.3727 0.816971C13.3727 0.816971 12.9554 1.92745 12.3993 2.87201C11.2256 4.86484 10.7563 4.97032 10.5645 4.84638C10.1181 4.55795 10.2297 3.68788 10.2297 3.06959C10.2297 1.13824 10.5226 0.332992 9.65921 0.12455C9.37275 0.0554187 9.16171 0.00968097 8.42899 0.00221239C7.4885 -0.00735486 6.69269 0.0051137 6.24198 0.225901C5.94212 0.372743 5.71078 0.69988 5.85176 0.718706C6.026 0.741914 6.42042 0.82518 6.62954 1.10973C6.89971 1.4773 6.89027 2.30242 6.89027 2.30242C6.89027 2.30242 7.0455 4.57591 6.52782 4.85823C6.1726 5.05192 5.68523 4.65652 4.63888 2.8485C4.10287 1.92239 3.69802 0.89857 3.69802 0.89857C3.69802 0.89857 3.62006 0.707287 3.48081 0.604887C3.31193 0.480821 3.07596 0.441503 3.07596 0.441503L0.571324 0.45786C0.571324 0.45786 0.195423 0.468353 0.0572846 0.63186C-0.065608 0.777405 0.0474713 1.07806 0.0474713 1.07806C0.0474713 1.07806 2.0082 5.66552 4.22854 7.97734C6.26463 10.0972 8.57626 9.95806 8.57626 9.95806Z" fill="white"/>
</svg>
