<svg width="18" height="12" viewBox="0 0 18 12" fill="none" xmlns="http://www.w3.org/2000/svg">
<path d="M6.77418 8.53253V3.46755L11.2259 6.00011L6.77418 8.53253ZM16.6764 1.87382C16.4805 1.13625 15.9033 0.555388 15.1705 0.358259C13.8423 0 8.51612 0 8.51612 0C8.51612 0 3.19 0 1.86177 0.358259C1.12899 0.555388 0.551832 1.13625 0.355936 1.87382C0 3.21068 0 6.00004 0 6.00004C0 6.00004 0 8.78924 0.355936 10.1262C0.551832 10.8638 1.12892 11.4446 1.86177 11.6419C3.19 12 8.51612 12 8.51612 12C8.51612 12 13.8423 12 15.1705 11.6419C15.9033 11.4446 16.4805 10.8638 16.6764 10.1262C17.0323 8.78924 17.0323 5.99996 17.0323 5.99996C17.0323 5.99996 17.0323 3.21068 16.6764 1.87382Z" fill="white"/>
</svg>
